{
classes = (
{
automatic = 1;
code = "A Aacute Abreve Acircumflex Adieresis Agrave Amacron Aogonek Aring Atilde AE B C Cacute Ccaron Ccedilla Ccircumflex Cdotaccent D Eth Dcaron Dcroat E Eacute Ebreve Ecaron Ecircumflex Edieresis Edotaccent Egrave Emacron Eogonek F G Gacute Gbreve Gcircumflex Gcommaaccent Gdotaccent H Hbar Hcircumflex I IJ Iacute Ibreve Icircumflex Idieresis Idotaccent Igrave Imacron Iogonek Itilde J Jcircumflex K Kcommaaccent L Lacute Lcaron Lcommaaccent Ldot Lslash M N Nacute Ncaron Ncommaaccent Eng Ntilde O Oacute Obreve Ocircumflex Odieresis Ograve Ohungarumlaut Omacron Oslash Otilde OE P Thorn Q R Racute Rcaron Rcommaaccent S Sacute Scaron Scedilla Scircumflex Scommaaccent Germandbls T Tbar Tcaron Tcedilla Tcommaaccent U Uacute Ubreve Ucircumflex Udieresis Ugrave Uhungarumlaut Umacron Uogonek Uring Utilde V W Wacute Wcircumflex Wdieresis Wgrave X Y Yacute Ycircumflex Ydieresis Ygrave Z Zacute Zcaron Zdotaccent Cacute.loclPLK Nacute.loclPLK Oacute.loclPLK Sacute.loclPLK Zacute.loclPLK A-cy Be-cy Ve-cy Ge-cy Gje-cy Gheupturn-cy De-cy Ie-cy Io-cy Zhe-cy Ze-cy Ii-cy Iishort-cy Iigrave-cy Ka-cy Kje-cy El-cy Em-cy En-cy O-cy Pe-cy Er-cy Es-cy Te-cy U-cy Ushort-cy Ef-cy Ha-cy Che-cy Tse-cy Sha-cy Shcha-cy Dzhe-cy Ia-cy Softsign-cy Hardsign-cy Yeru-cy Lje-cy Nje-cy Dze-cy E-cy Ereversed-cy I-cy Yi-cy Je-cy Tshe-cy Iu-cy Dje-cy Delta Omega";
name = Uppercase;
}
);
copyright = "Copyright (c) 2010-2012 by Claus Eggers S\U00F8rensen (es@forthehearts.net), with Reserved Font Name 'Playfair'.";
customParameters = (
{
name = openTypeOS2VendorID;
value = FTH;
},
{
name = openTypeNameLicense;
value = "This Font Software is licensed under the SIL Open Font License, Version 1.1. This license is available with a FAQ at http://scripts.sil.org/OFL";
},
{
name = openTypeNameLicenseURL;
value = "http://scripts.sil.org/OFL";
},
{
name = trademark;
value = "Playfair is a trademark of Claus Eggers S\U00F8rensen.";
},
{
name = note;

glyphs = (
{
glyphname = A;
lastChange = "2012-10-16 17:03:49 +0100";
layers = (
{
anchors = (
{
name = ogonek;
position = "{624, 0}";
},
{
name = top;
position = "{309, 708}";
}
);
layerId = UUID0;
name = Regular;
paths = (
{
closed = 1;
nodes = (
"318 713 OFFCURVE",
"312 713 OFFCURVE",
"307 713 CURVE",
"72 107 LINE SMOOTH",
"49 47 OFFCURVE",
"19 26 OFFCURVE",
"-7 20 CURVE",
"-7 0 LINE",
"13 2 OFFCURVE",
"34 3 OFFCURVE",
"68 3 CURVE SMOOTH",
"103 3 OFFCURVE",
"145 2 OFFCURVE",
"183 0 CURVE",
"183 20 LINE",
"99 22 OFFCURVE",
"74 54 OFFCURVE",
"116 162 CURVE SMOOTH",
"290 614 LINE",
"274 601 LINE",
"460 104 LINE SMOOTH",
"486 36 OFFCURVE",
"469 23 OFFCURVE",
"401 20 CURVE",
"401 0 LINE",
"429 2 OFFCURVE",
"477 3 OFFCURVE",
"529 3 CURVE SMOOTH",
"567 3 OFFCURVE",
"609 2 OFFCURVE",
"636 0 CURVE",
"636 20 LINE",
"615 21 OFFCURVE",
"587 33 OFFCURVE",
"567 84 CURVE SMOOTH",
"323 713 LINE"
);
},
{
closed = 1;
nodes = (
"157 288 LINE",
"147 268 LINE",
"445 268 LINE",
"445 288 LINE"
);
}
);
width = 630;
},
{
anchors = (
{
name = ogonek;
position = "{682, 0}";
},
{
name = top;
position = "{347, 708}";
}
);
layerId = "39933D6F-F4A7-4C4E-8677-28C34DBED807";
name = Bold;
paths = (
{
closed = 1;
nodes = (
"366 705 OFFCURVE",
"325 705 OFFCURVE",
"293 708 CURVE",
"71 137 LINE SMOOTH",
"39 54 OFFCURVE",
"10 25 OFFCURVE",
"-21 20 CURVE",
"-21 0 LINE",
"-1 2 OFFCURVE",
"30 3 OFFCURVE",
"56 3 CURVE SMOOTH",
"102 3 OFFCURVE",
"137 2 OFFCURVE",
"187 0 CURVE",
"187 20 LINE",
"107 23 OFFCURVE",
"62 50 OFFCURVE",
"129 223 CURVE SMOOTH",
"267 582 LINE",
"247 547 LINE",
"407 104 LINE SMOOTH",
"434 36 OFFCURVE",
"417 23 OFFCURVE",
"349 20 CURVE",
"349 0 LINE",
"385 2 OFFCURVE",
"449 3 OFFCURVE",
"517 3 CURVE SMOOTH",
"583 3 OFFCURVE",
"651 2 OFFCURVE",
"699 0 CURVE",
"699 20 LINE",
"681 21 OFFCURVE",
"658 38 OFFCURVE",
"640 84 CURVE SMOOTH",
"398 708 LINE"
);
},
{
closed = 1;
nodes = (
"145 288 LINE",
"135 268 LINE",
"433 268 LINE",
"433 288 LINE"
);
}
);
width = 692;
}
);
leftKerningGroup = A;
rightKerningGroup = A;
unicode = 0041;
},
{
glyphname = AE;
lastChange = "2012-10-19 08:29:11 +0100";
layers = (
{
anchors = (
{
name = top;
position = "{427, 708}";
}
);
layerId = UUID0;
name = Regular;
paths = (
{
closed = 1;
nodes = (
"476 772 LINE",
"59 84 LINE SMOOTH",
"31 37 OFFCURVE",
"11 21 OFFCURVE",
"-10 20 CURVE",
"-10 0 LINE",
"7 2 OFFCURVE",
"34 3 OFFCURVE",
"57 3 CURVE SMOOTH",
"93 3 OFFCURVE",
"128 2 OFFCURVE",
"148 0 CURVE",
"148 20 LINE",
"80 23 OFFCURVE",
"60 42 OFFCURVE",
"97 104 CURVE SMOOTH",
"500 772 LINE"
);
},
{
closed = 1;
nodes = (
"730 705 OFFCURVE",
"652 705 OFFCURVE",
"597 705 CURVE SMOOTH",
"543 705 OFFCURVE",
"426 705 OFFCURVE",
"337 708 CURVE",
"337 688 LINE",
"405 685 OFFCURVE",
"418 675 OFFCURVE",
"418 602 CURVE SMOOTH",
"418 106 LINE SMOOTH",
"418 33 OFFCURVE",
"409 23 OFFCURVE",
"357 20 CURVE",
"357 0 LINE",
"440 3 OFFCURVE",
"547 3 OFFCURVE",
"597 3 CURVE SMOOTH",
"658 3 OFFCURVE",
"744 3 OFFCURVE",
"806 0 CURVE",
"801 51 OFFCURVE",
"799 103 OFFCURVE",
"799 128 CURVE SMOOTH",
"799 156 OFFCURVE",
"800 182 OFFCURVE",
"802 200 CURVE",
"779 200 LINE",
"768 68 OFFCURVE",
"763 23 OFFCURVE",
"665 23 CURVE SMOOTH",
"592 23 LINE SMOOTH",
"524 23 OFFCURVE",
"511 33 OFFCURVE",
"511 106 CURVE SMOOTH",
"511 602 LINE SMOOTH",
"511 675 OFFCURVE",
"524 685 OFFCURVE",
"592 685 CURVE SMOOTH",
"655 685 LINE SMOOTH",
"737 685 OFFCURVE",
"749 646 OFFCURVE",
"759 528 CURVE",
"782 528 LINE",
"780 543 OFFCURVE",
"779 566 OFFCURVE",
"779 590 CURVE SMOOTH",
"779 613 OFFCURVE",
"781 661 OFFCURVE",
"786 708 CURVE"
);
},
{
closed = 1;
nodes = (
"241 366 LINE",
"231 346 LINE",
"451 346 LINE",
"451 366 LINE"
);
},
{
closed = 1;
nodes = (
"481 366 LINE",
"481 366 OFFCURVE",
"481 346 OFFCURVE",
"481 346 CURVE",
"651 346 LINE",
"651 346 OFFCURVE",
"651 366 OFFCURVE",
"651 366 CURVE"
);
},
{
closed = 1;
nodes = (
"657 478 LINE",
"651 438 OFFCURVE",
"654 366 OFFCURVE",
"584 366 CURVE",
"584 346 LINE",
"653 346 OFFCURVE",
"654 288 OFFCURVE",
"660 234 CURVE",
"683 234 LINE",
"678 300 OFFCURVE",
"677 327 OFFCURVE",
"677 356 CURVE SMOOTH",
"677 385 OFFCURVE",
"675 412 OFFCURVE",
"680 478 CURVE"
);
}
);
width = 854;
},
{
anchors = (
{
name = top;
position = "{456, 708}";
}
);
layerId = "39933D6F-F4A7-4C4E-8677-28C34DBED807";
name = Bold;
paths = (
{
closed = 1;
nodes = (
"449 772 LINE",
"52 84 LINE SMOOTH",
"24 36 OFFCURVE",
"4 21 OFFCURVE",
"-17 20 CURVE",
"-17 0 LINE",
"-1 2 OFFCURVE",
"26 3 OFFCURVE",
"50 3 CURVE SMOOTH",
"86 3 OFFCURVE",
"121 2 OFFCURVE",
"141 0 CURVE",
"141 20 LINE",
"73 23 OFFCURVE",
"54 41 OFFCURVE",
"90 104 CURVE SMOOTH",
"473 772 LINE"
);
},
{
closed = 1;
nodes = (
"787 705 OFFCURVE",
"701 705 OFFCURVE",
"640 705 CURVE SMOOTH",
"574 705 OFFCURVE",
"427 705 OFFCURVE",
"320 708 CURVE",
"320 688 LINE",
"380 685 OFFCURVE",
"391 675 OFFCURVE",
"391 602 CURVE SMOOTH",
"391 106 LINE SMOOTH",
"391 33 OFFCURVE",
"381 23 OFFCURVE",
"320 20 CURVE",
"320 0 LINE",
"427 3 OFFCURVE",
"574 3 OFFCURVE",
"640 3 CURVE SMOOTH",
"707 3 OFFCURVE",
"801 3 OFFCURVE",
"869 0 CURVE",
"862 58 OFFCURVE",
"862 119 OFFCURVE",
"862 148 CURVE SMOOTH",
"862 184 OFFCURVE",
"863 216 OFFCURVE",
"865 240 CURVE",
"842 240 LINE",
"824 75 OFFCURVE",
"748 23 OFFCURVE",
"698 23 CURVE SMOOTH",
"665 23 LINE SMOOTH",
"606 23 OFFCURVE",
"594 33 OFFCURVE",
"594 106 CURVE SMOOTH",
"594 602 LINE SMOOTH",
"594 675 OFFCURVE",
"606 685 OFFCURVE",
"665 685 CURVE SMOOTH",
"678 685 LINE SMOOTH",
"740 685 OFFCURVE",
"801 638 OFFCURVE",
"822 488 CURVE",
"845 488 LINE",
"843 505 OFFCURVE",
"842 532 OFFCURVE",
"842 560 CURVE SMOOTH",
"842 589 OFFCURVE",
"844 649 OFFCURVE",
"849 708 CURVE"
);
},
{
closed = 1;
nodes = (
"227 366 LINE",
"217 346 LINE",
"424 346 LINE",
"424 366 LINE"
);
},
{
closed = 1;
nodes = (
"564 366 LINE",
"564 366 OFFCURVE",
"564 346 OFFCURVE",
"564 346 CURVE",
"724 346 LINE",
"724 346 OFFCURVE",
"724 366 OFFCURVE",
"724 366 CURVE"
);
},
{
closed = 1;
nodes = (
"730 488 LINE",
"719 444 OFFCURVE",
"703 366 OFFCURVE",
"634 366 CURVE",
"634 346 LINE",
"703 346 OFFCURVE",
"722 283 OFFCURVE",
"733 224 CURVE",
"756 224 LINE",
"751 295 OFFCURVE",
"750 325 OFFCURVE",
"750 356 CURVE SMOOTH",
"750 387 OFFCURVE",
"748 417 OFFCURVE",
"753 488 CURVE"
);
}
);
width = 912;
}
);
leftKerningGroup = AE;
rightKerningGroup = E;
unicode = 00C6;
},
{
glyphname = B;
lastChange = "2012-08-07 07:59:26 +0100";
layers = (
{
layerId = UUID0;
name = Regular;
paths = (
{
closed = 1;
nodes = (
"42 688 LINE",
"110 685 OFFCURVE",
"123 675 OFFCURVE",
"123 602 CURVE SMOOTH",
"123 106 LINE SMOOTH",
"123 33 OFFCURVE",
"110 23 OFFCURVE",
"42 20 CURVE",
"42 0 LINE",
"70 2 OFFCURVE",
"119 3 OFFCURVE",
"166 3 CURVE SMOOTH",
"248 3 OFFCURVE",
"308 0 OFFCURVE",
"338 0 CURVE SMOOTH",
"488 0 OFFCURVE",
"578 80 OFFCURVE",
"578 194 CURVE SMOOTH",
"578 275 OFFCURVE",
"532 353 OFFCURVE",
"374 374 CURVE",
"374 376 LINE",
"486 410 OFFCURVE",
"526 479 OFFCURVE",
"526 550 CURVE SMOOTH",
"526 642 OFFCURVE",
"455 707 OFFCURVE",
"315 707 CURVE SMOOTH",
"291 707 OFFCURVE",
"227 705 OFFCURVE",
"164 705 CURVE SMOOTH",
"120 705 OFFCURVE",
"70 706 OFFCURVE",
"42 708 CURVE"
);
},
{
closed = 1;
nodes = (
"390 688 OFFCURVE",
"430 637 OFFCURVE",
"430 539 CURVE SMOOTH",
"430 452 OFFCURVE",
"401 376 OFFCURVE",
"283 376 CURVE SMOOTH",
"197 376 LINE",
"197 376 OFFCURVE",
"197 359 OFFCURVE",
"197 359 CURVE",
"300 359 LINE SMOOTH",
"427 359 OFFCURVE",
"478 300 OFFCURVE",
"478 198 CURVE SMOOTH",
"478 86 OFFCURVE",
"422 23 OFFCURVE",
"291 23 CURVE SMOOTH",
"229 23 OFFCURVE",
"216 36 OFFCURVE",
"216 106 CURVE SMOOTH",
"216 602 LINE SMOOTH",
"216 671 OFFCURVE",
"229 688 OFFCURVE",
"290 688 CURVE SMOOTH"
);
}
);
width = 623;
},
{
layerId = "39933D6F-F4A7-4C4E-8677-28C34DBED807";
name = Bold;
paths = (
{
closed = 1;
nodes = (
"28 688 LINE",
"88 685 OFFCURVE",
"99 675 OFFCURVE",
"99 602 CURVE SMOOTH",
"99 106 LINE SMOOTH",
"99 33 OFFCURVE",
"89 23 OFFCURVE",
"28 20 CURVE",
"28 0 LINE",
"66 2 OFFCURVE",
"135 3 OFFCURVE",
"202 3 CURVE SMOOTH",
"289 3 OFFCURVE",
"352 0 OFFCURVE",
"384 0 CURVE SMOOTH",
"570 0 OFFCURVE",
"684 60 OFFCURVE",
"684 194 CURVE SMOOTH",
"684 275 OFFCURVE",
"607 361 OFFCURVE",
"401 371 CURVE",
"401 373 LINE",
"559 393 OFFCURVE",
"632 479 OFFCURVE",
"632 550 CURVE SMOOTH",
"632 642 OFFCURVE",
"543 707 OFFCURVE",
"361 707 CURVE SMOOTH",
"335 707 OFFCURVE",
"267 705 OFFCURVE",
"200 705 CURVE SMOOTH",
"136 705 OFFCURVE",
"66 706 OFFCURVE",
"28 708 CURVE"
);
},
{
closed = 1;
nodes = (
"407 688 OFFCURVE",
"426 637 OFFCURVE",
"426 539 CURVE SMOOTH",
"426 452 OFFCURVE",
"407 376 OFFCURVE",
"329 376 CURVE SMOOTH",
"243 376 LINE",
"243 376 OFFCURVE",
"243 359 OFFCURVE",
"243 359 CURVE",
"316 359 LINE SMOOTH",
"429 359 OFFCURVE",
"474 300 OFFCURVE",
"474 198 CURVE SMOOTH",
"474 86 OFFCURVE",
"442 23 OFFCURVE",
"367 23 CURVE SMOOTH",
"313 23 OFFCURVE",
"302 36 OFFCURVE",
"302 106 CURVE SMOOTH",
"302 602 LINE SMOOTH",
"302 671 OFFCURVE",
"311 688 OFFCURVE",
"356 688 CURVE SMOOTH"
);
}
);
width = 704;
}
);
leftKerningGroup = I;
unicode = 0042;
},
{
glyphname = C;
lastChange = "2012-08-09 16:51:44 +0100";
layers = (
{
anchors = (
{
name = bottom;
position = "{374, 0}";
},
{
name = top;
position = "{364, 708}";
}
);
layerId = UUID0;
name = Regular;
paths = (
{
closed = 1;
nodes = (
"185 722 OFFCURVE",
"53 572 OFFCURVE",
"53 348 CURVE SMOOTH",
"53 119 OFFCURVE",
"180 -14 OFFCURVE",
"370 -14 CURVE SMOOTH",
"456 -14 OFFCURVE",
"506 16 OFFCURVE",
"555 51 CURVE SMOOTH",
"584 70 OFFCURVE",
"595 57 OFFCURVE",
"600 0 CURVE",
"623 0 LINE",
"620 51 OFFCURVE",
"619 119 OFFCURVE",
"619 240 CURVE",
"596 240 LINE",
"586 159 OFFCURVE",
"579 121 OFFCURVE",
"550 82 CURVE SMOOTH",
"512 28 OFFCURVE",
"439 6 OFFCURVE",
"379 6 CURVE SMOOTH",
"250 6 OFFCURVE",
"153 129 OFFCURVE",
"153 352 CURVE SMOOTH",
"153 569 OFFCURVE",
"239 704 OFFCURVE",
"369 704 CURVE SMOOTH",
"438 704 OFFCURVE",
"504 680 OFFCURVE",
"546 626 CURVE SMOOTH",
"574 590 OFFCURVE",
"582 563 OFFCURVE",
"596 478 CURVE",
"619 478 LINE",
"619 594 OFFCURVE",
"620 659 OFFCURVE",
"623 708 CURVE",
"600 708 LINE",
"595 651 OFFCURVE",
"581 637 OFFCURVE",
"555 657 CURVE SMOOTH",
"511 691 OFFCURVE",
"459 722 OFFCURVE",
"371 722 CURVE SMOOTH"
);
}
);
width = 688;
},
{
anchors = (
{
name = bottom;
position = "{417, 0}";
},
{
name = top;
position = "{389, 708}";
}
);
layerId = "39933D6F-F4A7-4C4E-8677-28C34DBED807";
name = Bold;
paths = (
{
closed = 1;
nodes = (
"192 722 OFFCURVE",
"36 572 OFFCURVE",
"36 348 CURVE SMOOTH",
"36 119 OFFCURVE",
"187 -14 OFFCURVE",
"413 -14 CURVE SMOOTH",
"499 -14 OFFCURVE",
"549 16 OFFCURVE",
"598 51 CURVE SMOOTH",
"627 70 OFFCURVE",
"638 57 OFFCURVE",
"643 0 CURVE",
"666 0 LINE",
"663 55 OFFCURVE",
"662 129 OFFCURVE",
"662 260 CURVE",
"639 260 LINE",
"630 151 OFFCURVE",
"614 84 OFFCURVE",
"547 43 CURVE SMOOTH",
"519 25 OFFCURVE",
"487 13 OFFCURVE",
"454 13 CURVE SMOOTH",
"301 13 OFFCURVE",
"266 202 OFFCURVE",
"266 352 CURVE SMOOTH",
"266 502 OFFCURVE",
"301 691 OFFCURVE",
"454 691 CURVE SMOOTH",
"487 691 OFFCURVE",
"519 679 OFFCURVE",
"547 661 CURVE SMOOTH",
"614 617 OFFCURVE",
"630 554 OFFCURVE",
"639 458 CURVE",
"662 458 LINE",
"662 584 OFFCURVE",
"663 655 OFFCURVE",
"666 708 CURVE",
"643 708 LINE",
"638 651 OFFCURVE",
"624 637 OFFCURVE",
"598 657 CURVE SMOOTH",
"554 691 OFFCURVE",
"502 722 OFFCURVE",
"414 722 CURVE SMOOTH"
);
}
);
width = 717;
}
);
leftKerningGroup = O;
rightKerningGroup = C;
unicode = 0043;
},
{
glyphname = D;
lastChange = "2012-08-07 07:59:26 +0100";
layers = (
{
anchors = (
{
name = center;
position = "{362, 354}";
},
{
name = centre;
position = "{42, 346}";
},
{
name = top;
position = "{315, 708}";
}
);
layerId = UUID0;
name = Regular;
paths = (
{
closed = 1;
nodes = (
"277 708 OFFCURVE",
"210 706 OFFCURVE",
"164 705 CURVE SMOOTH",
"120 704 OFFCURVE",
"70 706 OFFCURVE",
"42 708 CURVE",
"42 688 LINE",
"110 685 OFFCURVE",
"123 675 OFFCURVE",
"123 602 CURVE SMOOTH",
"123 106 LINE SMOOTH",
"123 33 OFFCURVE",
"110 23 OFFCURVE",
"42 20 CURVE",
"42 0 LINE",
"70 2 OFFCURVE",
"119 3 OFFCURVE",
"166 3 CURVE SMOOTH",
"209 3 OFFCURVE",
"276 0 OFFCURVE",
"306 0 CURVE SMOOTH",
"536 0 OFFCURVE",
"668 144 OFFCURVE",
"668 362 CURVE SMOOTH",
"668 585 OFFCURVE",
"553 708 OFFCURVE",
"315 708 CURVE SMOOTH"
);
},
{
closed = 1;
nodes = (
"497 690 OFFCURVE",
"568 582 OFFCURVE",
"568 358 CURVE SMOOTH",
"568 140 OFFCURVE",
"509 18 OFFCURVE",
"291 18 CURVE SMOOTH",
"229 18 OFFCURVE",
"216 34 OFFCURVE",
"216 104 CURVE SMOOTH",
"216 604 LINE SMOOTH",
"216 673 OFFCURVE",
"229 690 OFFCURVE",
"290 690 CURVE SMOOTH"
);
}
);
width = 723;
},
{
anchors = (
{
name = center;
position = "{406, 354}";
},
{
name = centre;
position = "{88, 346}";
},
{
name = top;
position = "{361, 708}";
}
);
layerId = "39933D6F-F4A7-4C4E-8677-28C34DBED807";
name = Bold;
paths = (
{
closed = 1;
nodes = (
"320 708 OFFCURVE",
"249 706 OFFCURVE",
"200 705 CURVE SMOOTH",
"136 704 OFFCURVE",
"66 706 OFFCURVE",
"28 708 CURVE",
"28 688 LINE",
"88 685 OFFCURVE",
"99 675 OFFCURVE",
"99 602 CURVE SMOOTH",
"99 106 LINE SMOOTH",
"99 33 OFFCURVE",
"89 23 OFFCURVE",
"28 20 CURVE",
"28 0 LINE",
"66 2 OFFCURVE",
"135 3 OFFCURVE",
"202 3 CURVE SMOOTH",
"248 3 OFFCURVE",
"320 0 OFFCURVE",
"352 0 CURVE SMOOTH",
"618 0 OFFCURVE",
"774 144 OFFCURVE",
"774 362 CURVE SMOOTH",
"774 585 OFFCURVE",
"641 708 OFFCURVE",
"361 708 CURVE SMOOTH"
);
},
{
closed = 1;
nodes = (
"507 690 OFFCURVE",
"564 582 OFFCURVE",
"564 358 CURVE SMOOTH",
"564 140 OFFCURVE",
"513 18 OFFCURVE",
"377 18 CURVE SMOOTH",
"315 18 OFFCURVE",
"302 34 OFFCURVE",
"302 104 CURVE SMOOTH",
"302 604 LINE SMOOTH",
"302 673 OFFCURVE",
"315 690 OFFCURVE",
"376 690 CURVE SMOOTH"
);
}
);
width = 811;
}
);
leftKerningGroup = I;
rightKerningGroup = D;
unicode = 0044;
},
{
glyphname = Eth;
lastChange = "2012-08-07 07:59:26 +0100";
layers = (
{
components = (
{
name = D;
transform = "{1, 0, 0, 1, 1, 0}";
}
);
layerId = UUID0;
name = Regular;
paths = (
{
closed = 1;
nodes = (
"43 366 LINE",
"43 346 LINE",
"356 346 LINE",
"356 366 LINE"
);
}
);
width = 724;
},
{
components = (
{
name = D;
transform = "{1, 0, 0, 1, 0, 0}";
}
);
layerId = "39933D6F-F4A7-4C4E-8677-28C34DBED807";
name = Bold;
paths = (
{
closed = 1;
nodes = (
"28 366 LINE",
"28 346 LINE",
"416 346 LINE",
"416 366 LINE"
);
}
);
width = 811;
}
);
leftKerningGroup = I;
rightKerningGroup = D;
unicode = 00D0;
},
{
glyphname = Dcroat;
lastChange = "2012-08-07 07:59:26 +0100";
layers = (
{
components = (
{
name = D;
transform = "{1, 0, 0, 1, 1, 0}";
}
);
layerId = UUID0;
name = Regular;
paths = (
{
closed = 1;
nodes = (
"43 366 LINE",
"43 346 LINE",
"356 346 LINE",
"356 366 LINE"
);
}
);
width = 724;
},
{
components = (
{
name = D;
transform = "{1, 0, 0, 1, 0, 0}";
}
);
layerId = "39933D6F-F4A7-4C4E-8677-28C34DBED807";
name = Bold;
paths = (
{
closed = 1;
nodes = (
"28 366 LINE",
"28 346 LINE",
"416 346 LINE",
"416 366 LINE"
);
}
);
width = 811;
}
);
leftKerningGroup = I;
rightKerningGroup = D;
unicode = 0110;
},
{
glyphname = E;
lastChange = "2012-09-30 10:12:19 +0100";
layers = (
{
anchors = (
{
name = bottom;
position = "{325, 0}";
},
{
name = ogonek;
position = "{561, 0}";
},
{
name = top;
position = "{306, 708}";
}
);
layerId = UUID0;
name = Regular;
paths = (
{
closed = 1;
nodes = (
"479 705 OFFCURVE",
"393 705 OFFCURVE",
"332 705 CURVE SMOOTH",
"272 705 OFFCURVE",
"140 705 OFFCURVE",
"42 708 CURVE",
"42 688 LINE",
"110 685 OFFCURVE",
"123 675 OFFCURVE",
"123 602 CURVE SMOOTH",
"123 106 LINE SMOOTH",
"123 33 OFFCURVE",
"110 23 OFFCURVE",
"42 20 CURVE",
"42 0 LINE",
"140 3 OFFCURVE",
"272 3 OFFCURVE",
"332 3 CURVE SMOOTH",
"399 3 OFFCURVE",
"493 3 OFFCURVE",
"561 0 CURVE",
"556 51 OFFCURVE",
"554 103 OFFCURVE",
"554 128 CURVE SMOOTH",
"554 156 OFFCURVE",
"555 182 OFFCURVE",
"557 200 CURVE",
"534 200 LINE",
"520 68 OFFCURVE",
"495 23 OFFCURVE",
"370 23 CURVE SMOOTH",
"297 23 LINE SMOOTH",
"229 23 OFFCURVE",
"216 33 OFFCURVE",
"216 106 CURVE SMOOTH",
"216 602 LINE SMOOTH",
"216 675 OFFCURVE",
"229 685 OFFCURVE",
"297 685 CURVE SMOOTH",
"380 685 LINE SMOOTH",
"486 685 OFFCURVE",
"501 646 OFFCURVE",
"514 528 CURVE",
"537 528 LINE",
"535 543 OFFCURVE",
"534 566 OFFCURVE",
"534 590 CURVE SMOOTH",
"534 613 OFFCURVE",
"536 661 OFFCURVE",
"541 708 CURVE"
);
},
{
closed = 1;
nodes = (
"186 366 LINE",
"186 366 OFFCURVE",
"186 346 OFFCURVE",
"186 346 CURVE",
"369 346 LINE",
"369 346 OFFCURVE",
"369 366 OFFCURVE",
"369 366 CURVE"
);
},
{
closed = 1;
nodes = (
"375 498 LINE",
"367 450 OFFCURVE",
"369 366 OFFCURVE",
"282 366 CURVE",
"282 346 LINE",
"369 346 OFFCURVE",
"370 278 OFFCURVE",
"378 214 CURVE",
"401 214 LINE",
"396 290 OFFCURVE",
"395 323 OFFCURVE",
"395 356 CURVE SMOOTH",
"395 389 OFFCURVE",
"393 422 OFFCURVE",
"398 498 CURVE"
);
}
);
width = 609;
},
{
anchors = (
{
name = bottom;
position = "{325, 0}";
},
{
name = ogonek;
position = "{598, 0}";
},
{
name = top;
position = "{320, 708}";
}
);
layerId = "39933D6F-F4A7-4C4E-8677-28C34DBED807";
name = Bold;
paths = (
{
closed = 1;
nodes = (
"525 705 OFFCURVE",
"439 705 OFFCURVE",
"378 705 CURVE SMOOTH",
"306 705 OFFCURVE",
"144 705 OFFCURVE",
"28 708 CURVE",
"28 688 LINE",
"88 685 OFFCURVE",
"99 675 OFFCURVE",
"99 602 CURVE SMOOTH",
"99 106 LINE SMOOTH",
"99 33 OFFCURVE",
"89 23 OFFCURVE",
"28 20 CURVE",
"28 0 LINE",
"144 3 OFFCURVE",
"306 3 OFFCURVE",
"378 3 CURVE SMOOTH",
"445 3 OFFCURVE",
"539 3 OFFCURVE",
"607 0 CURVE",
"600 66 OFFCURVE",
"600 135 OFFCURVE",
"600 168 CURVE SMOOTH",
"600 204 OFFCURVE",
"601 236 OFFCURVE",
"603 260 CURVE",
"580 260 LINE",
"548 79 OFFCURVE",
"462 23 OFFCURVE",
"396 23 CURVE SMOOTH",
"363 23 LINE SMOOTH",
"311 23 OFFCURVE",
"302 31 OFFCURVE",
"302 86 CURVE SMOOTH",
"302 622 LINE SMOOTH",
"302 677 OFFCURVE",
"311 685 OFFCURVE",
"363 685 CURVE SMOOTH",
"376 685 LINE SMOOTH",
"458 685 OFFCURVE",
"535 634 OFFCURVE",
"560 468 CURVE",
"583 468 LINE",
"581 485 OFFCURVE",
"580 512 OFFCURVE",
"580 540 CURVE SMOOTH",
"580 573 OFFCURVE",
"582 641 OFFCURVE",
"587 708 CURVE"
);
},
{
closed = 1;
nodes = (
"272 366 LINE",
"272 366 OFFCURVE",
"272 346 OFFCURVE",
"272 346 CURVE",
"442 346 LINE",
"442 346 OFFCURVE",
"442 366 OFFCURVE",
"442 366 CURVE"
);
},
{
closed = 1;
nodes = (
"448 498 LINE",
"436 440 OFFCURVE",
"387 366 OFFCURVE",
"312 366 CURVE",
"312 346 LINE",
"387 346 OFFCURVE",
"439 288 OFFCURVE",
"451 214 CURVE",
"474 214 LINE",
"469 290 OFFCURVE",
"468 323 OFFCURVE",
"468 356 CURVE SMOOTH",
"468 389 OFFCURVE",
"466 422 OFFCURVE",
"471 498 CURVE"
);
}
);
width = 650;
}
);
leftKerningGroup = I;
rightKerningGroup = E;
unicode = 0045;
},
{
glyphname = F;
lastChange = "2012-10-16 16:51:31 +0100";
layers = (
{
layerId = UUID0;
name = Regular;
paths = (
{
closed = 1;
nodes = (
"479 705 OFFCURVE",
"393 705 OFFCURVE",
"332 705 CURVE SMOOTH",
"272 705 OFFCURVE",
"140 705 OFFCURVE",
"42 708 CURVE",
"42 688 LINE",
"110 685 OFFCURVE",
"123 675 OFFCURVE",
"123 602 CURVE SMOOTH",
"123 106 LINE SMOOTH",
"123 33 OFFCURVE",
"110 23 OFFCURVE",
"42 20 CURVE",
"42 0 LINE",
"70 2 OFFCURVE",
"118 3 OFFCURVE",
"170 3 CURVE SMOOTH",
"224 3 OFFCURVE",
"282 2 OFFCURVE",
"317 0 CURVE",
"317 20 LINE",
"233 23 OFFCURVE",
"216 33 OFFCURVE",
"216 106 CURVE SMOOTH",
"216 602 LINE SMOOTH",
"216 675 OFFCURVE",
"229 685 OFFCURVE",
"297 685 CURVE SMOOTH",
"360 685 LINE SMOOTH",
"485 685 OFFCURVE",
"500 637 OFFCURVE",
"514 498 CURVE",
"537 498 LINE",
"535 519 OFFCURVE",
"534 548 OFFCURVE",
"534 580 CURVE SMOOTH",
"534 605 OFFCURVE",
"536 657 OFFCURVE",
"541 708 CURVE"
);
},
{
closed = 1;
nodes = (
"186 356 LINE",
"186 356 OFFCURVE",
"186 336 OFFCURVE",
"186 336 CURVE",
"386 336 LINE",
"386 336 OFFCURVE",
"386 356 OFFCURVE",
"386 356 CURVE"
);
},
{
closed = 1;
nodes = (
"382 488 LINE",
"374 440 OFFCURVE",
"376 356 OFFCURVE",
"289 356 CURVE",
"289 336 LINE",
"376 336 OFFCURVE",
"377 268 OFFCURVE",
"385 204 CURVE",
"408 204 LINE",
"403 280 OFFCURVE",
"402 313 OFFCURVE",
"402 346 CURVE SMOOTH",
"402 379 OFFCURVE",
"400 412 OFFCURVE",
"405 488 CURVE"
);
}
);
width = 569;
},
{
layerId = "39933D6F-F4A7-4C4E-8677-28C34DBED807";
name = Bold;
paths = (
{
closed = 1;
nodes = (
"525 705 OFFCURVE",
"439 705 OFFCURVE",
"378 705 CURVE SMOOTH",
"306 705 OFFCURVE",
"144 705 OFFCURVE",
"28 708 CURVE",
"28 688 LINE",
"88 685 OFFCURVE",
"99 675 OFFCURVE",
"99 602 CURVE SMOOTH",
"99 106 LINE SMOOTH",
"99 33 OFFCURVE",
"89 23 OFFCURVE",
"28 20 CURVE",
"28 0 LINE",
"82 1 OFFCURVE",
"146 3 OFFCURVE",
"207 3 CURVE SMOOTH",
"290 3 OFFCURVE",
"368 1 OFFCURVE",
"413 0 CURVE SMOOTH",
"413 23 LINE",
"321 23 OFFCURVE",
"302 34 OFFCURVE",
"302 116 CURVE SMOOTH",
"302 622 LINE SMOOTH",
"302 677 OFFCURVE",
"311 685 OFFCURVE",
"363 685 CURVE SMOOTH",
"376 685 LINE SMOOTH",
"448 685 OFFCURVE",
"525 634 OFFCURVE",
"560 468 CURVE",
"583 468 LINE",
"581 485 OFFCURVE",
"580 512 OFFCURVE",
"580 540 CURVE SMOOTH",
"580 573 OFFCURVE",
"582 641 OFFCURVE",
"587 708 CURVE"
);
},
{
closed = 1;
nodes = (
"272 366 LINE",
"272 366 OFFCURVE",
"272 346 OFFCURVE",
"272 346 CURVE",
"442 346 LINE",
"442 346 OFFCURVE",
"442 366 OFFCURVE",
"442 366 CURVE"
);
},
{
closed = 1;
nodes = (
"448 498 LINE",
"436 440 OFFCURVE",
"387 366 OFFCURVE",
"312 366 CURVE",
"312 346 LINE",
"387 346 OFFCURVE",
"439 288 OFFCURVE",
"451 214 CURVE",
"474 214 LINE",
"469 290 OFFCURVE",
"468 323 OFFCURVE",
"468 356 CURVE SMOOTH",
"468 389 OFFCURVE",
"466 422 OFFCURVE",
"471 498 CURVE"
);
}
);
width = 608;
}
);
leftKerningGroup = I;
unicode = 0046;
},
{
glyphname = G;
lastChange = "2012-10-25 12:34:39 +0100";
layers = (
{
anchors = (
{
name = bottom;
position = "{377, 0}";
},
{
name = top;
position = "{361, 708}";
}
);
layerId = UUID0;
name = Regular;
paths = (
{
closed = 1;
nodes = (
"190 722 OFFCURVE",
"54 575 OFFCURVE",
"54 342 CURVE SMOOTH",
"54 119 OFFCURVE",
"175 -14 OFFCURVE",
"382 -14 CURVE SMOOTH",
"447 -14 OFFCURVE",
"494 7 OFFCURVE",
"538 40 CURVE SMOOTH",
"558 55 OFFCURVE",
"563 57 OFFCURVE",
"571 57 CURVE SMOOTH",
"588 57 OFFCURVE",
"597 23 OFFCURVE",
"598 0 CURVE",
"618 0 LINE",
"618 198 LINE SMOOTH",
"618 272 OFFCURVE",
"625 281 OFFCURVE",
"669 284 CURVE",
"669 304 LINE",
"645 302 OFFCURVE",
"609 301 OFFCURVE",
"565 301 CURVE SMOOTH",
"520 301 OFFCURVE",
"459 302 OFFCURVE",
"424 304 CURVE",
"424 284 LINE",
"508 281 OFFCURVE",
"525 269 OFFCURVE",
"525 188 CURVE SMOOTH",
"525 92 LINE SMOOTH",
"525 67 OFFCURVE",
"521 54 OFFCURVE",
"496 37 CURVE SMOOTH",
"476 23 OFFCURVE",
"440 6 OFFCURVE",
"392 6 CURVE SMOOTH",
"229 6 OFFCURVE",
"154 113 OFFCURVE",
"154 353 CURVE SMOOTH",
"154 568 OFFCURVE",
"241 704 OFFCURVE",
"374 704 CURVE SMOOTH",
"441 704 OFFCURVE",
"508 675 OFFCURVE",
"547 626 CURVE SMOOTH",
"578 588 OFFCURVE",
"588 534 OFFCURVE",
"597 478 CURVE",
"620 478 LINE",
"620 594 OFFCURVE",
"621 659 OFFCURVE",
"624 708 CURVE",
"601 708 LINE",
"597 666 OFFCURVE",
"589 647 OFFCURVE",
"576 647 CURVE SMOOTH",
"570 647 OFFCURVE",
"564 651 OFFCURVE",
"556 657 CURVE SMOOTH",
"509 691 OFFCURVE",
"463 722 OFFCURVE",
"376 722 CURVE SMOOTH"
);
}
);
width = 703;
},
{
anchors = (
{
name = bottom;
position = "{419, 0}";
},
{
name = top;
position = "{403, 708}";
}
);
layerId = "39933D6F-F4A7-4C4E-8677-28C34DBED807";
name = Bold;
paths = (
{
closed = 1;
nodes = (
"196 722 OFFCURVE",
"36 572 OFFCURVE",
"36 348 CURVE SMOOTH",
"36 120 OFFCURVE",
"161 -14 OFFCURVE",
"412 -14 CURVE SMOOTH",
"469 -14 OFFCURVE",
"529 9 OFFCURVE",
"581 34 CURVE SMOOTH",
"622 54 OFFCURVE",
"638 57 OFFCURVE",
"649 57 CURVE SMOOTH",
"670 57 OFFCURVE",
"679 23 OFFCURVE",
"680 0 CURVE",
"700 0 LINE",
"700 198 LINE SMOOTH",
"700 272 OFFCURVE",
"707 281 OFFCURVE",
"741 284 CURVE",
"741 304 LINE",
"707 302 OFFCURVE",
"651 301 OFFCURVE",
"587 301 CURVE SMOOTH",
"527 301 OFFCURVE",
"441 302 OFFCURVE",
"396 304 CURVE",
"396 284 LINE",
"480 281 OFFCURVE",
"497 265 OFFCURVE",
"497 168 CURVE SMOOTH",
"497 68 LINE SMOOTH",
"497 44 OFFCURVE",
"490 28 OFFCURVE",
"476 18 CURVE SMOOTH",
"464 10 OFFCURVE",
"448 6 OFFCURVE",
"427 6 CURVE SMOOTH",
"330 6 OFFCURVE",
"266 112 OFFCURVE",
"266 352 CURVE SMOOTH",
"266 502 OFFCURVE",
"310 691 OFFCURVE",
"464 691 CURVE SMOOTH",
"499 691 OFFCURVE",
"539 680 OFFCURVE",
"567 661 CURVE SMOOTH",
"633 616 OFFCURVE",
"650 554 OFFCURVE",
"659 458 CURVE",
"682 458 LINE",
"682 584 OFFCURVE",
"683 655 OFFCURVE",
"686 708 CURVE",
"663 708 LINE",
"659 667 OFFCURVE",
"652 648 OFFCURVE",
"638 648 CURVE SMOOTH",
"632 648 OFFCURVE",
"625 651 OFFCURVE",
"618 657 CURVE SMOOTH",
"573 693 OFFCURVE",
"517 722 OFFCURVE",
"424 722 CURVE SMOOTH"
);
}
);
width = 756;
}
);
leftKerningGroup = O;
rightKerningGroup = G;
unicode = 0047;
},
{
glyphname = H;
lastChange = "2012-08-07 07:59:26 +0100";
layers = (
{
anchors = (
{
name = center;
position = "{379, 354}";
},
{
name = top;
position = "{381, 708}";
}
);
layerId = UUID0;
name = Regular;
paths = (
{
closed = 1;
nodes = (
"687 706 OFFCURVE",
"639 705 OFFCURVE",
"587 705 CURVE SMOOTH",
"541 705 OFFCURVE",
"491 706 OFFCURVE",
"460 708 CURVE",
"460 688 LINE",
"528 685 OFFCURVE",
"541 675 OFFCURVE",
"541 602 CURVE SMOOTH",
"541 366 LINE",
"216 366 LINE",
"216 602 LINE SMOOTH",
"216 675 OFFCURVE",
"229 685 OFFCURVE",
"297 688 CURVE",
"297 708 LINE",
"266 706 OFFCURVE",
"216 705 OFFCURVE",
"170 705 CURVE SMOOTH",
"118 705 OFFCURVE",
"70 706 OFFCURVE",
"42 708 CURVE",
"42 688 LINE",
"110 685 OFFCURVE",
"123 675 OFFCURVE",
"123 602 CURVE SMOOTH",
"123 106 LINE SMOOTH",
"123 33 OFFCURVE",
"110 23 OFFCURVE",
"42 20 CURVE",
"42 0 LINE",
"70 2 OFFCURVE",
"118 3 OFFCURVE",
"170 3 CURVE SMOOTH",
"216 3 OFFCURVE",
"266 2 OFFCURVE",
"297 0 CURVE",
"297 20 LINE",
"229 23 OFFCURVE",
"216 33 OFFCURVE",
"216 106 CURVE SMOOTH",
"216 346 LINE",
"541 346 LINE",
"541 106 LINE SMOOTH",
"541 33 OFFCURVE",
"528 23 OFFCURVE",
"460 20 CURVE",
"460 0 LINE",
"491 2 OFFCURVE",
"541 3 OFFCURVE",
"587 3 CURVE SMOOTH",
"639 3 OFFCURVE",
"687 2 OFFCURVE",
"715 0 CURVE",
"715 20 LINE",
"647 23 OFFCURVE",
"634 33 OFFCURVE",
"634 106 CURVE SMOOTH",
"634 602 LINE SMOOTH",
"634 675 OFFCURVE",
"647 685 OFFCURVE",
"715 688 CURVE",
"715 708 LINE"
);
}
);
width = 757;
},
{
anchors = (
{
name = center;
position = "{415, 354}";
},
{
name = top;
position = "{417, 708}";
}
);
layerId = "39933D6F-F4A7-4C4E-8677-28C34DBED807";
name = Bold;
paths = (
{
closed = 1;
nodes = (
"765 706 OFFCURVE",
"701 705 OFFCURVE",
"633 705 CURVE SMOOTH",
"567 705 OFFCURVE",
"497 706 OFFCURVE",
"456 708 CURVE",
"456 688 LINE",
"516 685 OFFCURVE",
"527 675 OFFCURVE",
"527 602 CURVE SMOOTH",
"527 366 LINE",
"302 366 LINE",
"302 602 LINE SMOOTH",
"302 675 OFFCURVE",
"312 685 OFFCURVE",
"373 688 CURVE",
"373 708 LINE",
"334 706 OFFCURVE",
"268 705 OFFCURVE",
"206 705 CURVE SMOOTH",
"134 705 OFFCURVE",
"66 706 OFFCURVE",
"28 708 CURVE",
"28 688 LINE",
"88 685 OFFCURVE",
"99 675 OFFCURVE",
"99 602 CURVE SMOOTH",
"99 106 LINE SMOOTH",
"99 33 OFFCURVE",
"89 23 OFFCURVE",
"28 20 CURVE",
"28 0 LINE",
"66 2 OFFCURVE",
"134 3 OFFCURVE",
"206 3 CURVE SMOOTH",
"268 3 OFFCURVE",
"334 2 OFFCURVE",
"373 0 CURVE",
"373 20 LINE",
"313 23 OFFCURVE",
"302 33 OFFCURVE",
"302 106 CURVE SMOOTH",
"302 346 LINE",
"527 346 LINE",
"527 106 LINE SMOOTH",
"527 33 OFFCURVE",
"517 23 OFFCURVE",
"456 20 CURVE",
"456 0 LINE",
"497 2 OFFCURVE",
"567 3 OFFCURVE",
"633 3 CURVE SMOOTH",
"701 3 OFFCURVE",
"765 2 OFFCURVE",
"801 0 CURVE",
"801 20 LINE",
"741 23 OFFCURVE",
"730 33 OFFCURVE",
"730 106 CURVE SMOOTH",
"730 602 LINE SMOOTH",
"730 675 OFFCURVE",
"740 685 OFFCURVE",
"801 688 CURVE",
"801 708 LINE"
);
}
);
width = 829;
}
);
leftKerningGroup = I;
rightKerningGroup = I;
unicode = 0048;
},
{
glyphname = Hbar;
lastChange = "2012-08-07 07:59:26 +0100";
layers = (
{
components = (
{
name = H;
transform = "{1, 0, 0, 1, 0, 0}";
}
);
layerId = UUID0;
name = Regular;
paths = (
{
closed = 1;
nodes = (
"42 533 LINE",
"42 513 LINE",
"715 513 LINE",
"715 533 LINE"
);
}
);
width = 757;
},
{
components = (
{
name = H;
transform = "{1, 0, 0, 1, 0, 0}";
}
);
layerId = "39933D6F-F4A7-4C4E-8677-28C34DBED807";
name = Bold;
paths = (
{
closed = 1;
nodes = (
"28 533 LINE",
"28 513 LINE",
"801 513 LINE",
"801 533 LINE"
);
}
);
width = 829;
}
);
leftKerningGroup = I;
rightKerningGroup = I;
unicode = 0126;
},
{
glyphname = I;
lastChange = "2012-09-30 10:12:31 +0100";
layers = (
{
anchors = (
{
name = bottom;
position = "{170, 0}";
},
{
name = ogonek;
position = "{297, 0}";
},
{
name = top;
position = "{170, 708}";
}
);
layerId = UUID0;
name = Regular;
paths = (
{
closed = 1;
nodes = (
"266 706 OFFCURVE",
"216 705 OFFCURVE",
"170 705 CURVE SMOOTH",
"118 705 OFFCURVE",
"70 706 OFFCURVE",
"42 708 CURVE",
"42 688 LINE",
"110 685 OFFCURVE",
"123 675 OFFCURVE",
"123 602 CURVE SMOOTH",
"123 106 LINE SMOOTH",
"123 33 OFFCURVE",
"110 23 OFFCURVE",
"42 20 CURVE",
"42 0 LINE",
"70 2 OFFCURVE",
"118 3 OFFCURVE",
"170 3 CURVE SMOOTH",
"216 3 OFFCURVE",
"266 2 OFFCURVE",
"297 0 CURVE",
"297 20 LINE",
"229 23 OFFCURVE",
"216 33 OFFCURVE",
"216 106 CURVE SMOOTH",
"216 602 LINE SMOOTH",
"216 675 OFFCURVE",
"229 685 OFFCURVE",
"297 688 CURVE",
"297 708 LINE"
);
}
);
width = 339;
},
{
anchors = (
{
name = bottom;
position = "{206, 0}";
},
{
name = ogonek;
position = "{349, 0}";
},
{
name = top;
position = "{206, 708}";
}
);
layerId = "39933D6F-F4A7-4C4E-8677-28C34DBED807";
name = Bold;
paths = (
{
closed = 1;
nodes = (
"334 706 OFFCURVE",
"268 705 OFFCURVE",
"206 705 CURVE SMOOTH",
"134 705 OFFCURVE",
"66 706 OFFCURVE",
"28 708 CURVE",
"28 688 LINE",
"88 685 OFFCURVE",
"99 675 OFFCURVE",
"99 602 CURVE SMOOTH",
"99 106 LINE SMOOTH",
"99 33 OFFCURVE",
"89 23 OFFCURVE",
"28 20 CURVE",
"28 0 LINE",
"66 2 OFFCURVE",
"134 3 OFFCURVE",
"206 3 CURVE SMOOTH",
"268 3 OFFCURVE",
"334 2 OFFCURVE",
"373 0 CURVE",
"373 20 LINE",
"313 23 OFFCURVE",
"302 33 OFFCURVE",
"302 106 CURVE SMOOTH",
"302 602 LINE SMOOTH",
"302 675 OFFCURVE",
"312 685 OFFCURVE",
"373 688 CURVE",
"373 708 LINE"
);
}
);
width = 401;
}
);
leftKerningGroup = I;
rightKerningGroup = I;
unicode = 0049;
},
{
glyphname = J;
lastChange = "2012-08-09 11:57:09 +0100";
layers = (
{
anchors = (
{
name = top;
position = "{164, 708}";
}
);
layerId = UUID0;
name = Regular;
paths = (
{
closed = 1;
nodes = (
"260 706 OFFCURVE",
"210 705 OFFCURVE",
"164 705 CURVE SMOOTH",
"112 705 OFFCURVE",
"64 706 OFFCURVE",
"36 708 CURVE",
"36 688 LINE",
"104 685 OFFCURVE",
"117 675 OFFCURVE",
"117 602 CURVE SMOOTH",
"117 145 LINE SMOOTH",
"117 7 OFFCURVE",
"114 -42 OFFCURVE",
"100 -84 CURVE SMOOTH",
"82 -137 OFFCURVE",
"38 -169 OFFCURVE",
"-20 -169 CURVE SMOOTH",
"-37 -169 OFFCURVE",
"-71 -166 OFFCURVE",
"-84 -153 CURVE",
"-59 -148 OFFCURVE",
"-42 -131 OFFCURVE",
"-42 -102 CURVE SMOOTH",
"-42 -68 OFFCURVE",
"-66 -48 OFFCURVE",
"-97 -48 CURVE SMOOTH",
"-128 -48 OFFCURVE",
"-150 -70 OFFCURVE",
"-150 -101 CURVE SMOOTH",
"-150 -129 OFFCURVE",
"-135 -153 OFFCURVE",
"-102 -170 CURVE SMOOTH",
"-84 -179 OFFCURVE",
"-55 -188 OFFCURVE",
"-18 -188 CURVE SMOOTH",
"96 -188 OFFCURVE",
"171 -117 OFFCURVE",
"193 -25 CURVE SMOOTH",
"209 42 OFFCURVE",
"210 153 OFFCURVE",
"210 236 CURVE SMOOTH",
"210 602 LINE SMOOTH",
"210 675 OFFCURVE",
"223 685 OFFCURVE",
"291 688 CURVE",
"291 708 LINE"
);
}
);
width = 326;
},
{
anchors = (
{
name = top;
position = "{191, 708}";
}
);
layerId = "39933D6F-F4A7-4C4E-8677-28C34DBED807";
name = Bold;
paths = (
{
closed = 1;
nodes = (
"327 706 OFFCURVE",
"257 705 OFFCURVE",
"191 705 CURVE SMOOTH",
"123 705 OFFCURVE",
"59 706 OFFCURVE",
"23 708 CURVE",
"23 688 LINE",
"83 685 OFFCURVE",
"94 675 OFFCURVE",
"94 602 CURVE SMOOTH",
"94 145 LINE SMOOTH",
"94 7 OFFCURVE",
"94 -46 OFFCURVE",
"73 -104 CURVE SMOOTH",
"60 -138 OFFCURVE",
"30 -167 OFFCURVE",
"-15 -167 CURVE SMOOTH",
"-21 -167 OFFCURVE",
"-27 -167 OFFCURVE",
"-33 -166 CURVE SMOOTH",
"8 -151 OFFCURVE",
"25 -120 OFFCURVE",
"25 -91 CURVE SMOOTH",
"25 -42 OFFCURVE",
"-10 -17 OFFCURVE",
"-65 -17 CURVE SMOOTH",
"-124 -17 OFFCURVE",
"-163 -47 OFFCURVE",
"-163 -94 CURVE SMOOTH",
"-163 -126 OFFCURVE",
"-149 -151 OFFCURVE",
"-113 -169 CURVE SMOOTH",
"-82 -184 OFFCURVE",
"-36 -188 OFFCURVE",
"-1 -188 CURVE SMOOTH",
"148 -188 OFFCURVE",
"250 -117 OFFCURVE",
"280 -25 CURVE SMOOTH",
"302 44 OFFCURVE",
"297 153 OFFCURVE",
"297 236 CURVE SMOOTH",
"297 602 LINE SMOOTH",
"297 675 OFFCURVE",
"307 685 OFFCURVE",
"368 688 CURVE",
"368 708 LINE"
);
}
);
width = 390;
}
);
leftKerningGroup = J;
rightKerningGroup = J;
unicode = 004A;
},
{
glyphname = K;
lastChange = "2012-08-07 07:59:26 +0100";
layers = (
{
anchors = (
{
name = bottom;
position = "{346, 0}";
},
{
name = top;
position = "{345, 708}";
}
);
layerId = UUID0;
name = Regular;
paths = (
{
closed = 1;
nodes = (
"595 706 OFFCURVE",
"564 705 OFFCURVE",
"530 705 CURVE SMOOTH",
"495 705 OFFCURVE",
"453 706 OFFCURVE",
"415 708 CURVE",
"415 688 LINE",
"499 686 OFFCURVE",
"492 640 OFFCURVE",
"426 556 CURVE SMOOTH",
"330 434 LINE SMOOTH",
"305 402 OFFCURVE",
"268 379 OFFCURVE",
"212 378 CURVE",
"212 358 LINE",
"261 356 OFFCURVE",
"280 347 OFFCURVE",
"321 285 CURVE SMOOTH",
"467 65 LINE SMOOTH",
"488 34 OFFCURVE",
"476 22 OFFCURVE",
"431 20 CURVE",
"431 0 LINE",
"480 3 OFFCURVE",
"511 3 OFFCURVE",
"534 3 CURVE SMOOTH",
"567 3 OFFCURVE",
"622 2 OFFCURVE",
"654 0 CURVE",
"654 20 LINE",
"613 30 OFFCURVE",
"588 48 OFFCURVE",
"566 81 CURVE SMOOTH",
"326 417 LINE",
"304 368 LINE",
"497 615 LINE SMOOTH",
"535 664 OFFCURVE",
"574 682 OFFCURVE",
"615 688 CURVE",
"615 708 LINE"
);
},
{
closed = 1;
nodes = (
"266 706 OFFCURVE",
"216 705 OFFCURVE",
"170 705 CURVE SMOOTH",
"118 705 OFFCURVE",
"70 706 OFFCURVE",
"42 708 CURVE",
"42 688 LINE",
"110 685 OFFCURVE",
"123 675 OFFCURVE",
"123 602 CURVE SMOOTH",
"123 106 LINE SMOOTH",
"123 33 OFFCURVE",
"110 23 OFFCURVE",
"42 20 CURVE",
"42 0 LINE",
"70 2 OFFCURVE",
"118 3 OFFCURVE",
"170 3 CURVE SMOOTH",
"216 3 OFFCURVE",
"266 2 OFFCURVE",
"297 0 CURVE",
"297 20 LINE",
"229 23 OFFCURVE",
"216 33 OFFCURVE",
"216 106 CURVE SMOOTH",
"216 602 LINE SMOOTH",
"216 675 OFFCURVE",
"229 685 OFFCURVE",
"297 688 CURVE",
"297 708 LINE"
);
}
);
width = 655;
},
{
anchors = (
{
name = bottom;
position = "{432, 0}";
},
{
name = top;
position = "{431, 708}";
}
);
layerId = "39933D6F-F4A7-4C4E-8677-28C34DBED807";
name = Bold;
paths = (
{
closed = 1;
nodes = (
"712 706 OFFCURVE",
"681 705 OFFCURVE",
"638 705 CURVE SMOOTH",
"563 705 OFFCURVE",
"525 706 OFFCURVE",
"469 708 CURVE",
"469 689 LINE",
"544 686 OFFCURVE",
"590 626 OFFCURVE",
"507 533 CURVE SMOOTH",
"473 495 LINE SMOOTH",
"399 412 OFFCURVE",
"354 378 OFFCURVE",
"296 376 CURVE",
"296 355 LINE",
"319 353 OFFCURVE",
"328 345 OFFCURVE",
"349 310 CURVE SMOOTH",
"494 65 LINE SMOOTH",
"514 31 OFFCURVE",
"509 23 OFFCURVE",
"447 20 CURVE",
"447 0 LINE",
"516 3 OFFCURVE",
"559 3 OFFCURVE",
"590 3 CURVE SMOOTH",
"647 3 OFFCURVE",
"714 2 OFFCURVE",
"770 0 CURVE",
"770 20 LINE",
"740 36 OFFCURVE",
"726 53 OFFCURVE",
"709 81 CURVE SMOOTH",
"472 476 LINE",
"391 370 LINE",
"575 579 LINE SMOOTH",
"638 650 OFFCURVE",
"694 677 OFFCURVE",
"739 689 CURVE",
"739 708 LINE"
);
},
{
closed = 1;
nodes = (
"334 706 OFFCURVE",
"268 705 OFFCURVE",
"206 705 CURVE SMOOTH",
"134 705 OFFCURVE",
"66 706 OFFCURVE",
"28 708 CURVE",
"28 688 LINE",
"88 685 OFFCURVE",
"99 675 OFFCURVE",
"99 602 CURVE SMOOTH",
"99 106 LINE SMOOTH",
"99 33 OFFCURVE",
"89 23 OFFCURVE",
"28 20 CURVE",
"28 0 LINE",
"66 2 OFFCURVE",
"134 3 OFFCURVE",
"206 3 CURVE SMOOTH",
"268 3 OFFCURVE",
"334 2 OFFCURVE",
"373 0 CURVE",
"373 20 LINE",
"313 23 OFFCURVE",
"302 33 OFFCURVE",
"302 106 CURVE SMOOTH",
"302 602 LINE SMOOTH",
"302 675 OFFCURVE",
"312 685 OFFCURVE",
"373 688 CURVE",
"373 708 LINE"
);
}
);
width = 754;
}
);
leftKerningGroup = I;
rightKerningGroup = K;
unicode = 004B;
},
{
glyphname = L;
lastChange = "2012-10-16 16:54:01 +0100";
layers = (
{
anchors = (
{
name = bottom;
position = "{332, 0}";
},
{
name = right;
position = "{297, 708}";
},
{
name = top;
position = "{170, 708}";
}
);
layerId = UUID0;
name = Regular;
paths = (
{
closed = 1;
nodes = (
"266 706 OFFCURVE",
"216 705 OFFCURVE",
"170 705 CURVE SMOOTH",
"118 705 OFFCURVE",
"70 706 OFFCURVE",
"42 708 CURVE",
"42 688 LINE",
"110 685 OFFCURVE",
"123 675 OFFCURVE",
"123 602 CURVE SMOOTH",
"123 106 LINE SMOOTH",
"123 33 OFFCURVE",
"110 23 OFFCURVE",
"42 20 CURVE",
"42 0 LINE",
"140 3 OFFCURVE",
"272 3 OFFCURVE",
"332 3 CURVE SMOOTH",
"399 3 OFFCURVE",
"493 3 OFFCURVE",
"561 0 CURVE",
"556 51 OFFCURVE",
"554 103 OFFCURVE",
"554 128 CURVE SMOOTH",
"554 160 OFFCURVE",
"555 189 OFFCURVE",
"557 210 CURVE",
"534 210 LINE",
"520 71 OFFCURVE",
"495 23 OFFCURVE",
"370 23 CURVE SMOOTH",
"297 23 LINE SMOOTH",
"229 23 OFFCURVE",
"216 33 OFFCURVE",
"216 106 CURVE SMOOTH",
"216 602 LINE SMOOTH",
"216 675 OFFCURVE",
"229 685 OFFCURVE",
"297 688 CURVE",
"297 708 LINE"
);
}
);
width = 588;
},
{
anchors = (
{
name = bottom;
position = "{368, 0}";
},
{
name = right;
position = "{333, 708}";
},
{
name = top;
position = "{206, 708}";
}
);
layerId = "39933D6F-F4A7-4C4E-8677-28C34DBED807";
name = Bold;
paths = (
{
closed = 1;
nodes = (
"342 706 OFFCURVE",
"272 705 OFFCURVE",
"206 705 CURVE SMOOTH",
"134 705 OFFCURVE",
"66 706 OFFCURVE",
"28 708 CURVE",
"28 688 LINE",
"88 685 OFFCURVE",
"99 675 OFFCURVE",
"99 602 CURVE SMOOTH",
"99 106 LINE SMOOTH",
"99 33 OFFCURVE",
"89 23 OFFCURVE",
"28 20 CURVE",
"28 0 LINE",
"144 3 OFFCURVE",
"306 3 OFFCURVE",
"378 3 CURVE SMOOTH",
"445 3 OFFCURVE",
"539 3 OFFCURVE",
"607 0 CURVE",
"600 70 OFFCURVE",
"600 143 OFFCURVE",
"600 178 CURVE SMOOTH",
"600 214 OFFCURVE",
"601 246 OFFCURVE",
"603 270 CURVE",
"580 270 LINE",
"557 141 OFFCURVE",
"456 23 OFFCURVE",
"386 23 CURVE SMOOTH",
"353 23 LINE SMOOTH",
"310 23 OFFCURVE",
"302 31 OFFCURVE",
"302 86 CURVE SMOOTH",
"302 602 LINE SMOOTH",
"302 675 OFFCURVE",
"315 685 OFFCURVE",
"383 688 CURVE",
"383 708 LINE"
);
}
);
width = 626;
}
);
leftKerningGroup = I;
rightKerningGroup = L;
unicode = 004C;
},
{
glyphname = Lslash;
lastChange = "2012-08-07 07:59:26 +0100";
layers = (
{
components = (
{
name = L;
transform = "{1, 0, 0, 1, 0, 0}";
}
);
layerId = UUID0;
name = Regular;
paths = (
{
closed = 1;
nodes = (
"189 308 LINE",
"189 285 LINE",
"473 450 LINE",
"473 473 LINE"
);
},
{
closed = 1;
nodes = (
"42 233 LINE",
"42 210 LINE",
"189 295 LINE",
"189 318 LINE"
);
}
);
width = 588;
},
{
components = (
{
name = L;
transform = "{1, 0, 0, 1, 0, 0}";
}
);
layerId = "39933D6F-F4A7-4C4E-8677-28C34DBED807";
name = Bold;
paths = (
{
closed = 1;
nodes = (
"189 308 LINE",
"189 285 LINE",
"473 450 LINE",
"473 473 LINE"
);
},
{
closed = 1;
nodes = (
"28 225 LINE",
"28 202 LINE",
"189 295 LINE",
"189 318 LINE"
);
}
);
width = 626;
}
);
leftKerningGroup = I;
rightKerningGroup = L;
unicode = 0141;
},
{
glyphname = M;
lastChange = "2012-08-07 08:02:20 +0100";
layers = (
{
layerId = UUID0;
name = Regular;
paths = (
{
closed = 1;
nodes = (
"798 706 OFFCURVE",
"748 705 OFFCURVE",
"702 705 CURVE SMOOTH",
"686 705 OFFCURVE",
"671 705 OFFCURVE",
"655 705 CURVE",
"430 102 LINE",
"447 110 LINE",
"220 708 LINE",
"198 706 OFFCURVE",
"164 705 OFFCURVE",
"135 705 CURVE SMOOTH",
"101 705 OFFCURVE",
"64 706 OFFCURVE",
"42 708 CURVE",
"42 688 LINE",
"110 685 OFFCURVE",
"123 675 OFFCURVE",
"123 602 CURVE SMOOTH",
"123 116 LINE SMOOTH",
"123 43 OFFCURVE",
"110 23 OFFCURVE",
"42 20 CURVE",
"42 0 LINE",
"64 2 OFFCURVE",
"101 3 OFFCURVE",
"135 3 CURVE SMOOTH",
"169 3 OFFCURVE",
"213 2 OFFCURVE",
"237 0 CURVE",
"237 20 LINE",
"159 23 OFFCURVE",
"146 43 OFFCURVE",
"146 116 CURVE SMOOTH",
"146 644 LINE",
"398 -5 LINE",
"414 -5 LINE",
"659 653 LINE",
"655 656 LINE",
"655 106 LINE SMOOTH",
"655 33 OFFCURVE",
"642 23 OFFCURVE",
"574 20 CURVE",
"574 0 LINE",
"602 2 OFFCURVE",
"650 3 OFFCURVE",
"702 3 CURVE SMOOTH",
"748 3 OFFCURVE",
"798 2 OFFCURVE",
"829 0 CURVE",
"829 20 LINE",
"761 23 OFFCURVE",
"748 33 OFFCURVE",
"748 106 CURVE SMOOTH",
"748 602 LINE SMOOTH",
"748 675 OFFCURVE",
"761 685 OFFCURVE",
"829 688 CURVE",
"829 708 LINE"
);
}
);
width = 871;
},
{
layerId = "39933D6F-F4A7-4C4E-8677-28C34DBED807";
name = Bold;
paths = (
{
closed = 1;
nodes = (
"896 706 OFFCURVE",
"826 705 OFFCURVE",
"760 705 CURVE SMOOTH",
"732 705 OFFCURVE",
"700 705 OFFCURVE",
"673 705 CURVE",
"488 229 LINE",
"518 262 LINE",
"320 708 LINE",
"262 706 OFFCURVE",
"190 705 OFFCURVE",
"113 705 CURVE SMOOTH",
"83 705 OFFCURVE",
"50 706 OFFCURVE",
"30 708 CURVE",
"30 688 LINE",
"90 685 OFFCURVE",
"101 675 OFFCURVE",
"101 602 CURVE SMOOTH",
"101 176 LINE SMOOTH",
"101 63 OFFCURVE",
"91 33 OFFCURVE",
"30 20 CURVE",
"30 0 LINE",
"50 2 OFFCURVE",
"83 3 OFFCURVE",
"113 3 CURVE SMOOTH",
"150 3 OFFCURVE",
"198 2 OFFCURVE",
"225 0 CURVE",
"225 20 LINE",
"130 33 OFFCURVE",
"124 62 OFFCURVE",
"124 196 CURVE SMOOTH",
"124 643 LINE",
"406 1 LINE",
"422 1 LINE",
"673 643 LINE",
"663 641 LINE",
"663 106 LINE SMOOTH",
"663 33 OFFCURVE",
"650 23 OFFCURVE",
"582 20 CURVE",
"582 0 LINE",
"620 2 OFFCURVE",
"688 3 OFFCURVE",
"760 3 CURVE SMOOTH",
"826 3 OFFCURVE",
"896 2 OFFCURVE",
"937 0 CURVE",
"937 20 LINE",
"877 23 OFFCURVE",
"866 33 OFFCURVE",
"866 106 CURVE SMOOTH",
"866 602 LINE SMOOTH",
"866 675 OFFCURVE",
"876 685 OFFCURVE",
"937 688 CURVE",
"937 708 LINE"
);
}
);
width = 965;
}
);
leftKerningGroup = I;
rightKerningGroup = I;
unicode = 004D;
},
{
glyphname = N;
lastChange = "2012-10-25 12:01:53 +0100";
layers = (
{
anchors = (
{
name = bottom;
position = "{367, 0}";
},
{
name = top;
position = "{374, 708}";
}
);
layerId = UUID0;
name = Regular;
paths = (
{
closed = 1;
nodes = (
"648 706 OFFCURVE",
"611 705 OFFCURVE",
"577 705 CURVE SMOOTH",
"543 705 OFFCURVE",
"499 706 OFFCURVE",
"475 708 CURVE",
"475 688 LINE",
"553 685 OFFCURVE",
"566 665 OFFCURVE",
"566 592 CURVE SMOOTH",
"566 164 LINE",
"213 708 LINE",
"191 706 OFFCURVE",
"164 705 OFFCURVE",
"135 705 CURVE SMOOTH",
"101 705 OFFCURVE",
"64 706 OFFCURVE",
"42 708 CURVE",
"42 688 LINE",
"110 685 OFFCURVE",
"123 675 OFFCURVE",
"123 602 CURVE SMOOTH",
"123 116 LINE SMOOTH",
"123 43 OFFCURVE",
"110 23 OFFCURVE",
"42 20 CURVE",
"42 0 LINE",
"64 2 OFFCURVE",
"101 3 OFFCURVE",
"135 3 CURVE SMOOTH",
"169 3 OFFCURVE",
"213 2 OFFCURVE",
"237 0 CURVE",
"237 20 LINE",
"159 23 OFFCURVE",
"146 43 OFFCURVE",
"146 116 CURVE SMOOTH",
"146 644 LINE",
"566 -5 LINE",
"574 -5 OFFCURVE",
"581 -5 OFFCURVE",
"589 -5 CURVE",
"589 592 LINE SMOOTH",
"589 665 OFFCURVE",
"602 685 OFFCURVE",
"670 688 CURVE",
"670 708 LINE"
);
}
);
width = 706;
},
{
anchors = (
{
name = bottom;
position = "{375, 0}";
},
{
name = top;
position = "{382, 708}";
}
);
layerId = "39933D6F-F4A7-4C4E-8677-28C34DBED807";
name = Bold;
paths = (
{
closed = 1;
nodes = (
"688 706 OFFCURVE",
"655 705 OFFCURVE",
"625 705 CURVE SMOOTH",
"588 705 OFFCURVE",
"540 706 OFFCURVE",
"513 708 CURVE",
"513 688 LINE",
"608 675 OFFCURVE",
"614 646 OFFCURVE",
"614 512 CURVE SMOOTH",
"614 276 LINE",
"205 708 LINE",
"180 706 OFFCURVE",
"146 705 OFFCURVE",
"113 705 CURVE SMOOTH",
"83 705 OFFCURVE",
"50 706 OFFCURVE",
"30 708 CURVE",
"30 688 LINE",
"90 685 OFFCURVE",
"101 675 OFFCURVE",
"101 602 CURVE SMOOTH",
"101 176 LINE SMOOTH",
"101 63 OFFCURVE",
"91 33 OFFCURVE",
"30 20 CURVE",
"30 0 LINE",
"50 2 OFFCURVE",
"83 3 OFFCURVE",
"113 3 CURVE SMOOTH",
"150 3 OFFCURVE",
"198 2 OFFCURVE",
"225 0 CURVE",
"225 20 LINE",
"130 33 OFFCURVE",
"124 62 OFFCURVE",
"124 196 CURVE SMOOTH",
"124 484 LINE",
"567 0 LINE",
"593 2 OFFCURVE",
"617 2 OFFCURVE",
"637 0 CURVE",
"637 532 LINE SMOOTH",
"637 645 OFFCURVE",
"647 675 OFFCURVE",
"708 688 CURVE",
"708 708 LINE"
);
}
);
width = 732;
}
);
leftKerningGroup = I;
rightKerningGroup = N;
unicode = 004E;
},
{
glyphname = Eng;
lastChange = "2012-10-25 12:01:53 +0100";
layers = (
{
layerId = UUID0;
name = Regular;
paths = (
{
closed = 1;
nodes = (
"648 706 OFFCURVE",
"611 705 OFFCURVE",
"577 705 CURVE SMOOTH",
"543 705 OFFCURVE",
"509 706 OFFCURVE",
"485 708 CURVE",
"485 688 LINE",
"553 685 OFFCURVE",
"566 675 OFFCURVE",
"566 602 CURVE SMOOTH",
"566 184 LINE",
"227 708 LINE",
"202 706 OFFCURVE",
"168 705 OFFCURVE",
"135 705 CURVE SMOOTH",
"101 705 OFFCURVE",
"64 706 OFFCURVE",
"42 708 CURVE",
"42 688 LINE",
"110 685 OFFCURVE",
"123 675 OFFCURVE",
"123 602 CURVE SMOOTH",
"123 106 LINE SMOOTH",
"123 33 OFFCURVE",
"110 23 OFFCURVE",
"42 20 CURVE",
"42 0 LINE",
"64 2 OFFCURVE",
"101 3 OFFCURVE",
"135 3 CURVE SMOOTH",
"169 3 OFFCURVE",
"203 2 OFFCURVE",
"227 0 CURVE",
"227 20 LINE",
"159 23 OFFCURVE",
"146 33 OFFCURVE",
"146 106 CURVE SMOOTH",
"146 644 LINE",
"566 -5 LINE",
"569 -5 OFFCURVE",
"571 -5 OFFCURVE",
"574 -5 CURVE",
"589 276 LINE",
"589 602 LINE SMOOTH",
"589 675 OFFCURVE",
"602 685 OFFCURVE",
"670 688 CURVE",
"670 708 LINE"
);
},
{
closed = 1;
nodes = (
"589 445 OFFCURVE",
"566 445 OFFCURVE",
"566 445 CURVE",
"566 52 LINE SMOOTH",
"566 -85 OFFCURVE",
"533 -171 OFFCURVE",
"451 -171 CURVE SMOOTH",
"443 -171 OFFCURVE",
"434 -170 OFFCURVE",
"428 -169 CURVE",
"443 -160 OFFCURVE",
"454 -141 OFFCURVE",
"454 -123 CURVE SMOOTH",
"454 -97 OFFCURVE",
"431 -76 OFFCURVE",
"404 -76 CURVE SMOOTH",
"378 -76 OFFCURVE",
"357 -95 OFFCURVE",
"357 -126 CURVE SMOOTH",
"357 -171 OFFCURVE",
"400 -188 OFFCURVE",
"447 -188 CURVE SMOOTH",
"526 -188 OFFCURVE",
"589 -139 OFFCURVE",
"589 91 CURVE SMOOTH",
"589 445 LINE"
);
}
);
width = 705;
},
{
layerId = "39933D6F-F4A7-4C4E-8677-28C34DBED807";
name = Bold;
paths = (
{
closed = 1;
nodes = (
"686 706 OFFCURVE",
"653 705 OFFCURVE",
"623 705 CURVE SMOOTH",
"589 705 OFFCURVE",
"555 706 OFFCURVE",
"531 708 CURVE",
"531 688 LINE",
"599 685 OFFCURVE",
"612 675 OFFCURVE",
"612 602 CURVE SMOOTH",
"612 276 LINE",
"203 708 LINE",
"178 706 OFFCURVE",
"144 705 OFFCURVE",
"111 705 CURVE SMOOTH",
"81 705 OFFCURVE",
"48 706 OFFCURVE",
"28 708 CURVE",
"28 688 LINE",
"88 685 OFFCURVE",
"99 675 OFFCURVE",
"99 602 CURVE SMOOTH",
"99 106 LINE SMOOTH",
"99 33 OFFCURVE",
"88 23 OFFCURVE",
"28 20 CURVE",
"28 0 LINE",
"48 2 OFFCURVE",
"81 3 OFFCURVE",
"111 3 CURVE SMOOTH",
"145 3 OFFCURVE",
"179 2 OFFCURVE",
"203 0 CURVE",
"203 20 LINE",
"135 23 OFFCURVE",
"122 33 OFFCURVE",
"122 106 CURVE SMOOTH",
"122 484 LINE",
"565 0 LINE",
"585 2 OFFCURVE",
"603 2 OFFCURVE",
"619 1 CURVE",
"635 256 LINE",
"635 602 LINE",
"635 675 OFFCURVE",
"646 685 OFFCURVE",
"706 688 CURVE",
"706 708 LINE"
);
},
{
closed = 1;
nodes = (
"635 445 OFFCURVE",
"612 445 OFFCURVE",
"612 445 CURVE",
"612 29 LINE SMOOTH",
"612 -108 OFFCURVE",
"579 -168 OFFCURVE",
"503 -168 CURVE SMOOTH",
"497 -168 OFFCURVE",
"491 -168 OFFCURVE",
"485 -167 CURVE",
"526 -152 OFFCURVE",
"543 -121 OFFCURVE",
"543 -89 CURVE SMOOTH",
"543 -43 OFFCURVE",
"508 -17 OFFCURVE",
"453 -17 CURVE SMOOTH",
"394 -17 OFFCURVE",
"355 -46 OFFCURVE",
"355 -96 CURVE SMOOTH",
"355 -160 OFFCURVE",
"412 -188 OFFCURVE",
"488 -188 CURVE SMOOTH",
"583 -188 OFFCURVE",
"635 -145 OFFCURVE",
"635 46 CURVE SMOOTH",
"635 445 LINE"
);
}
);
width = 729;
}
);
leftKerningGroup = I;
rightKerningGroup = N;
unicode = 014A;
},
{
glyphname = O;
lastChange = "2012-10-19 11:51:06 +0100";
layers = (
{
anchors = (
{
name = bottom;
position = "{372, 0}";
},
{
name = top;
position = "{369, 708}";
}
);
layerId = UUID0;
name = Regular;
paths = (
{
closed = 1;
nodes = (
"185 722 OFFCURVE",
"53 572 OFFCURVE",
"53 348 CURVE SMOOTH",
"53 119 OFFCURVE",
"180 -14 OFFCURVE",
"370 -14 CURVE SMOOTH",
"556 -14 OFFCURVE",
"688 136 OFFCURVE",
"688 360 CURVE SMOOTH",
"688 589 OFFCURVE",
"561 722 OFFCURVE",
"371 722 CURVE SMOOTH"
);
},
{
closed = 1;
nodes = (
"490 704 OFFCURVE",
"588 569 OFFCURVE",
"588 356 CURVE SMOOTH",
"588 149 OFFCURVE",
"504 4 OFFCURVE",
"374 4 CURVE SMOOTH",
"251 4 OFFCURVE",
"153 139 OFFCURVE",
"153 352 CURVE SMOOTH",
"153 559 OFFCURVE",
"237 704 OFFCURVE",
"367 704 CURVE SMOOTH"
);
}
);
width = 741;
},
{
anchors = (
{
name = bottom;
position = "{415, 0}";
},
{
name = top;
position = "{412, 708}";
}
);
layerId = "39933D6F-F4A7-4C4E-8677-28C34DBED807";
name = Bold;
paths = (
{
closed = 1;
nodes = (
"192 722 OFFCURVE",
"36 572 OFFCURVE",
"36 348 CURVE SMOOTH",
"36 119 OFFCURVE",
"187 -14 OFFCURVE",
"413 -14 CURVE SMOOTH",
"635 -14 OFFCURVE",
"791 136 OFFCURVE",
"791 360 CURVE SMOOTH",
"791 589 OFFCURVE",
"640 722 OFFCURVE",
"414 722 CURVE SMOOTH"
);
},
{
closed = 1;
nodes = (
"504 704 OFFCURVE",
"581 569 OFFCURVE",
"581 356 CURVE SMOOTH",
"581 149 OFFCURVE",
"517 4 OFFCURVE",
"417 4 CURVE SMOOTH",
"323 4 OFFCURVE",
"246 139 OFFCURVE",
"246 352 CURVE SMOOTH",
"246 559 OFFCURVE",
"310 704 OFFCURVE",
"410 704 CURVE SMOOTH"
);
}
);
width = 827;
}
);
leftKerningGroup = O;
rightKerningGroup = O;
unicode = 004F;
},
{
glyphname = Oslash;
lastChange = "2012-08-07 07:59:26 +0100";
layers = (
{
anchors = (
{
name = top;
position = "{377, 708}";
}
);
components = (
{
name = O;
transform = "{1, 0, 0, 1, 0, 0}";
}
);
layerId = UUID0;
name = Regular;
paths = (
{
closed = 1;
nodes = (
"186 95 LINE",
"204 77 LINE",
"554 612 LINE",
"539 632 LINE"
);
},
{
closed = 1;
nodes = (
"73 -59 LINE",
"94 -73 LINE",
"196 77 LINE",
"178 95 LINE"
);
},
{
closed = 1;
nodes = (
"546 632 LINE",
"561 612 LINE",
"662 760 LINE",
"643 773 LINE"
);
}
);
width = 741;
},
{
anchors = (
{
name = top;
position = "{372, 708}";
}
);
components = (
{
name = O;
transform = "{1, 0, 0, 1, 0, 0}";
}
);
layerId = "39933D6F-F4A7-4C4E-8677-28C34DBED807";
name = Bold;
paths = (
{
closed = 1;
nodes = (
"231 93 LINE",
"249 75 LINE",
"587 620 LINE",
"572 640 LINE"
);
},
{
closed = 1;
nodes = (
"99 -69 LINE",
"120 -83 LINE",
"234 75 LINE",
"216 93 LINE"
);
},
{
closed = 1;
nodes = (
"579 640 LINE",
"594 620 LINE",
"695 770 LINE",
"676 783 LINE"
);
}
);
width = 827;
}
);
leftKerningGroup = O;
rightKerningGroup = O;
unicode = 00D8;
},
{
glyphname = OE;
lastChange = "2012-08-07 07:59:26 +0100";
layers = (
{
anchors = (
{
name = top;
position = "{464, 708}";
}
);
layerId = UUID0;
name = Regular;
paths = (
{
closed = 1;
nodes = (
"185 722 OFFCURVE",
"53 572 OFFCURVE",
"53 348 CURVE SMOOTH",
"53 119 OFFCURVE",
"180 -14 OFFCURVE",
"370 -14 CURVE SMOOTH",
"399 -14 OFFCURVE",
"426 -9 OFFCURVE",
"452 1 CURVE",
"531 3 OFFCURVE",
"625 3 OFFCURVE",
"671 3 CURVE SMOOTH",
"732 3 OFFCURVE",
"818 3 OFFCURVE",
"880 0 CURVE",
"875 51 OFFCURVE",
"873 103 OFFCURVE",
"873 128 CURVE SMOOTH",
"873 156 OFFCURVE",
"874 182 OFFCURVE",
"876 200 CURVE",
"853 200 LINE",
"839 68 OFFCURVE",
"814 23 OFFCURVE",
"689 23 CURVE SMOOTH",
"666 23 LINE",
"598 23 OFFCURVE",
"585 33 OFFCURVE",
"585 106 CURVE SMOOTH",
"585 602 LINE SMOOTH",
"585 675 OFFCURVE",
"598 685 OFFCURVE",
"666 685 CURVE SMOOTH",
"699 685 LINE SMOOTH",
"805 685 OFFCURVE",
"820 646 OFFCURVE",
"833 528 CURVE",
"856 528 LINE",
"854 543 OFFCURVE",
"853 566 OFFCURVE",
"853 590 CURVE SMOOTH",
"853 613 OFFCURVE",
"855 661 OFFCURVE",
"860 708 CURVE",
"804 705 OFFCURVE",
"726 705 OFFCURVE",
"671 705 CURVE SMOOTH",
"626 705 OFFCURVE",
"539 705 OFFCURVE",
"459 707 CURVE",
"432 717 OFFCURVE",
"403 722 OFFCURVE",
"371 722 CURVE SMOOTH"
);
},
{
closed = 1;
nodes = (
"435 704 OFFCURVE",
"492 675 OFFCURVE",
"492 602 CURVE SMOOTH",
"492 106 LINE SMOOTH",
"492 33 OFFCURVE",
"426 4 OFFCURVE",
"374 4 CURVE SMOOTH",
"251 4 OFFCURVE",
"153 139 OFFCURVE",
"153 352 CURVE SMOOTH",
"153 559 OFFCURVE",
"237 704 OFFCURVE",
"367 704 CURVE SMOOTH"
);
},
{
closed = 1;
nodes = (
"555 366 LINE",
"555 366 OFFCURVE",
"555 346 OFFCURVE",
"555 346 CURVE",
"725 346 LINE",
"725 346 OFFCURVE",
"725 366 OFFCURVE",
"725 366 CURVE"
);
},
{
closed = 1;
nodes = (
"721 478 LINE",
"713 438 OFFCURVE",
"715 366 OFFCURVE",
"628 366 CURVE",
"628 346 LINE",
"715 346 OFFCURVE",
"716 288 OFFCURVE",
"724 234 CURVE",
"747 234 LINE",
"742 300 OFFCURVE",
"741 327 OFFCURVE",
"741 356 CURVE SMOOTH",
"741 385 OFFCURVE",
"739 412 OFFCURVE",
"744 478 CURVE"
);
}
);
width = 928;
},
{
anchors = (
{
name = top;
position = "{520, 708}";
}
);
layerId = "39933D6F-F4A7-4C4E-8677-28C34DBED807";
name = Bold;
paths = (
{
closed = 1;
nodes = (
"188 722 OFFCURVE",
"36 572 OFFCURVE",
"36 348 CURVE SMOOTH",
"36 119 OFFCURVE",
"183 -14 OFFCURVE",
"403 -14 CURVE SMOOTH",
"434 -14 OFFCURVE",
"466 -7 OFFCURVE",
"491 2 CURVE",
"597 3 OFFCURVE",
"710 3 OFFCURVE",
"768 3 CURVE SMOOTH",
"835 3 OFFCURVE",
"929 3 OFFCURVE",
"997 0 CURVE",
"990 58 OFFCURVE",
"990 119 OFFCURVE",
"990 148 CURVE SMOOTH",
"990 184 OFFCURVE",
"991 216 OFFCURVE",
"993 240 CURVE",
"970 240 LINE",
"952 75 OFFCURVE",
"876 23 OFFCURVE",
"826 23 CURVE SMOOTH",
"793 23 LINE SMOOTH",
"734 23 OFFCURVE",
"722 33 OFFCURVE",
"722 106 CURVE SMOOTH",
"722 602 LINE SMOOTH",
"722 675 OFFCURVE",
"734 685 OFFCURVE",
"793 685 CURVE SMOOTH",
"806 685 LINE SMOOTH",
"868 685 OFFCURVE",
"929 638 OFFCURVE",
"950 488 CURVE",
"973 488 LINE",
"971 505 OFFCURVE",
"970 532 OFFCURVE",
"970 560 CURVE SMOOTH",
"970 589 OFFCURVE",
"972 649 OFFCURVE",
"977 708 CURVE",
"915 705 OFFCURVE",
"829 705 OFFCURVE",
"768 705 CURVE SMOOTH",
"710 705 OFFCURVE",
"598 705 OFFCURVE",
"491 706 CURVE",
"464 716 OFFCURVE",
"434 722 OFFCURVE",
"404 722 CURVE SMOOTH"
);
},
{
closed = 1;
nodes = (
"442 704 OFFCURVE",
"519 689 OFFCURVE",
"519 612 CURVE SMOOTH",
"519 86 LINE SMOOTH",
"519 28 OFFCURVE",
"452 4 OFFCURVE",
"407 4 CURVE SMOOTH",
"318 4 OFFCURVE",
"246 139 OFFCURVE",
"246 352 CURVE SMOOTH",
"246 559 OFFCURVE",
"306 704 OFFCURVE",
"400 704 CURVE SMOOTH"
);
},
{
closed = 1;
nodes = (
"692 366 LINE",
"692 366 OFFCURVE",
"692 346 OFFCURVE",
"692 346 CURVE",
"852 346 LINE",
"852 346 OFFCURVE",
"852 366 OFFCURVE",
"852 366 CURVE"
);
},
{
closed = 1;
nodes = (
"858 488 LINE",
"847 444 OFFCURVE",
"831 366 OFFCURVE",
"762 366 CURVE",
"762 346 LINE",
"831 346 OFFCURVE",
"850 283 OFFCURVE",
"861 224 CURVE",
"884 224 LINE",
"879 295 OFFCURVE",
"878 325 OFFCURVE",
"878 356 CURVE SMOOTH",
"878 387 OFFCURVE",
"876 417 OFFCURVE",
"881 488 CURVE"
);
}
);
width = 1040;
}
);
leftKerningGroup = O;
rightKerningGroup = E;
unicode = 0152;
},
{
glyphname = P;
lastChange = "2012-08-07 07:59:26 +0100";
layers = (
{
anchors = (
{
name = bottom;
position = "{170, 0}";
},
{
name = top;
position = "{309, 708}";
}
);
layerId = UUID0;
name = Regular;
paths = (
{
closed = 1;
nodes = (
"42 688 LINE",
"110 685 OFFCURVE",
"123 675 OFFCURVE",
"123 602 CURVE SMOOTH",
"123 106 LINE SMOOTH",
"123 33 OFFCURVE",
"110 23 OFFCURVE",
"42 20 CURVE",
"42 0 LINE",
"70 2 OFFCURVE",
"118 3 OFFCURVE",
"170 3 CURVE SMOOTH",
"224 3 OFFCURVE",
"282 2 OFFCURVE",
"317 0 CURVE",
"317 20 LINE",
"233 23 OFFCURVE",
"216 33 OFFCURVE",
"216 106 CURVE SMOOTH",
"216 602 LINE SMOOTH",
"216 671 OFFCURVE",
"229 688 OFFCURVE",
"290 688 CURVE SMOOTH",
"411 688 OFFCURVE",
"456 625 OFFCURVE",
"456 499 CURVE SMOOTH",
"456 397 OFFCURVE",
"425 306 OFFCURVE",
"283 306 CURVE SMOOTH",
"197 306 LINE",
"197 306 OFFCURVE",
"197 286 OFFCURVE",
"197 286 CURVE",
"293 286 LINE SMOOTH",
"500 286 OFFCURVE",
"556 413 OFFCURVE",
"556 510 CURVE SMOOTH",
"556 626 OFFCURVE",
"476 707 OFFCURVE",
"315 707 CURVE SMOOTH",
"291 707 OFFCURVE",
"227 705 OFFCURVE",
"164 705 CURVE SMOOTH",
"120 705 OFFCURVE",
"70 706 OFFCURVE",
"42 708 CURVE"
);
}
);
width = 585;
},
{
anchors = (
{
name = bottom;
position = "{206, 0}";
},
{
name = top;
position = "{355, 708}";
}
);
layerId = "39933D6F-F4A7-4C4E-8677-28C34DBED807";
name = Bold;
paths = (
{
closed = 1;
nodes = (
"28 688 LINE",
"88 685 OFFCURVE",
"99 675 OFFCURVE",
"99 602 CURVE SMOOTH",
"99 106 LINE SMOOTH",
"99 33 OFFCURVE",
"89 23 OFFCURVE",
"28 20 CURVE",
"28 0 LINE",
"82 1 OFFCURVE",
"146 3 OFFCURVE",
"207 3 CURVE SMOOTH",
"290 3 OFFCURVE",
"368 1 OFFCURVE",
"413 0 CURVE",
"413 23 LINE",
"321 23 OFFCURVE",
"302 34 OFFCURVE",
"302 116 CURVE SMOOTH",
"302 602 LINE SMOOTH",
"302 671 OFFCURVE",
"311 688 OFFCURVE",
"356 688 CURVE SMOOTH",
"427 688 OFFCURVE",
"452 625 OFFCURVE",
"452 499 CURVE SMOOTH",
"452 397 OFFCURVE",
"431 306 OFFCURVE",
"329 306 CURVE SMOOTH",
"233 306 LINE",
"233 306 OFFCURVE",
"233 286 OFFCURVE",
"233 286 CURVE",
"339 286 LINE SMOOTH",
"594 286 OFFCURVE",
"662 413 OFFCURVE",
"662 510 CURVE SMOOTH",
"662 626 OFFCURVE",
"564 707 OFFCURVE",
"361 707 CURVE SMOOTH",
"335 707 OFFCURVE",
"267 705 OFFCURVE",
"200 705 CURVE SMOOTH",
"136 705 OFFCURVE",
"66 706 OFFCURVE",
"28 708 CURVE"
);
}
);
width = 678;
}
);
leftKerningGroup = I;
unicode = 0050;
},
{
glyphname = Thorn;
lastChange = "2012-08-07 07:59:26 +0100";
layers = (
{
components = (
{
name = I;
transform = "{1, 0, 0, 1, 0, 0}";
}
);
layerId = UUID0;
name = Regular;
paths = (
{
closed = 1;
nodes = (
"284 559 OFFCURVE",
"220 557 OFFCURVE",
"157 557 CURVE",
"159 538 LINE",
"181 538 OFFCURVE",
"241 540 OFFCURVE",
"283 540 CURVE SMOOTH",
"404 540 OFFCURVE",
"449 477 OFFCURVE",
"449 358 CURVE SMOOTH",
"449 251 OFFCURVE",
"418 158 OFFCURVE",
"276 158 CURVE SMOOTH",
"190 158 LINE",
"190 158 OFFCURVE",
"190 138 OFFCURVE",
"190 138 CURVE",
"286 138 LINE SMOOTH",
"493 138 OFFCURVE",
"549 263 OFFCURVE",
"549 364 CURVE SMOOTH",
"549 474 OFFCURVE",
"469 559 OFFCURVE",
"308 559 CURVE SMOOTH"
);
}
);
width = 580;
},
{
components = (
{
name = I;
transform = "{1, 0, 0, 1, 0, 0}";
}
);
layerId = "39933D6F-F4A7-4C4E-8677-28C34DBED807";
name = Bold;
paths = (
{
closed = 1;
nodes = (
"310 573 OFFCURVE",
"246 571 OFFCURVE",
"183 571 CURVE",
"185 552 LINE",
"207 552 OFFCURVE",
"267 554 OFFCURVE",
"309 554 CURVE SMOOTH",
"395 554 OFFCURVE",
"425 491 OFFCURVE",
"425 372 CURVE SMOOTH",
"425 265 OFFCURVE",
"404 172 OFFCURVE",
"302 172 CURVE SMOOTH",
"216 172 LINE",
"216 172 OFFCURVE",
"216 152 OFFCURVE",
"216 152 CURVE",
"312 152 LINE SMOOTH",
"567 152 OFFCURVE",
"635 262 OFFCURVE",
"635 383 CURVE SMOOTH",
"635 513 OFFCURVE",
"537 573 OFFCURVE",
"334 573 CURVE SMOOTH"
);
}
);
width = 648;
}
);
leftKerningGroup = I;
unicode = 00DE;
},
{
glyphname = Q;
lastChange = "2012-08-07 08:04:43 +0100";
layers = (
{
anchors = (
{
name = top;
position = "{379, 708}";
}
);
components = (
{
name = O;
transform = "{1, 0, 0, 1, 0, 0}";
}
);
layerId = UUID0;
name = Regular;
paths = (
{
closed = 1;
nodes = (
"718 -83 OFFCURVE",
"667 -110 OFFCURVE",
"571 -110 CURVE SMOOTH",
"493 -110 OFFCURVE",
"354 -82 OFFCURVE",
"254 -62 CURVE",
"313 -45 OFFCURVE",
"342 -20 OFFCURVE",
"402 -13 CURVE",
"401 3 LINE",
"322 -4 OFFCURVE",
"290 -38 OFFCURVE",
"219 -57 CURVE",
"194 -52 OFFCURVE",
"166 -49 OFFCURVE",
"144 -49 CURVE SMOOTH",
"107 -49 OFFCURVE",
"90 -57 OFFCURVE",
"90 -70 CURVE SMOOTH",
"90 -84 OFFCURVE",
"109 -90 OFFCURVE",
"136 -90 CURVE SMOOTH",
"162 -90 OFFCURVE",
"193 -84 OFFCURVE",
"219 -75 CURVE",
"225 -77 OFFCURVE",
"234 -79 OFFCURVE",
"243 -82 CURVE SMOOTH",
"371 -125 OFFCURVE",
"459 -188 OFFCURVE",
"565 -188 CURVE SMOOTH",
"633 -188 OFFCURVE",
"675 -166 OFFCURVE",
"700 -143 CURVE SMOOTH",
"726 -119 OFFCURVE",
"747 -84 OFFCURVE",
"763 -29 CURVE",
"748 -23 LINE"
);
}
);
width = 741;
},
{
anchors = (
{
name = top;
position = "{410, 708}";
}
);
components = (
{
name = O;
transform = "{1, 0, 0, 1, 0, 0}";
}
);
layerId = "39933D6F-F4A7-4C4E-8677-28C34DBED807";
name = Bold;
paths = (
{
closed = 1;
nodes = (
"741 -15 OFFCURVE",
"703 -36 OFFCURVE",
"630 -52 CURVE SMOOTH",
"539 -71 OFFCURVE",
"446 -67 OFFCURVE",
"275 -62 CURVE",
"338 -45 OFFCURVE",
"369 -20 OFFCURVE",
"433 -13 CURVE",
"432 3 LINE",
"349 -4 OFFCURVE",
"315 -38 OFFCURVE",
"240 -57 CURVE",
"215 -46 OFFCURVE",
"186 -39 OFFCURVE",
"164 -39 CURVE SMOOTH",
"127 -39 OFFCURVE",
"109 -51 OFFCURVE",
"109 -70 CURVE SMOOTH",
"109 -91 OFFCURVE",
"129 -100 OFFCURVE",
"156 -100 CURVE SMOOTH",
"182 -100 OFFCURVE",
"214 -90 OFFCURVE",
"240 -75 CURVE",
"245 -75 OFFCURVE",
"256 -79 OFFCURVE",
"264 -82 CURVE SMOOTH",
"379 -130 OFFCURVE",
"483 -188 OFFCURVE",
"596 -188 CURVE SMOOTH",
"643 -188 OFFCURVE",
"691 -176 OFFCURVE",
"721 -153 CURVE SMOOTH",
"763 -121 OFFCURVE",
"787 -55 OFFCURVE",
"794 31 CURVE",
"775 36 LINE"
);
}
);
width = 827;
}
);
leftKerningGroup = O;
rightKerningGroup = O;
unicode = 0051;
},
{
glyphname = R;
lastChange = "2012-08-07 07:59:26 +0100";
layers = (
{
anchors = (
{
name = bottom;
position = "{337, 0}";
},
{
name = top;
position = "{296, 708}";
}
);
layerId = UUID0;
name = Regular;
paths = (
{
closed = 1;
nodes = (
"42 688 LINE",
"110 685 OFFCURVE",
"123 675 OFFCURVE",
"123 602 CURVE SMOOTH",
"123 106 LINE SMOOTH",
"123 33 OFFCURVE",
"110 23 OFFCURVE",
"42 20 CURVE",
"42 0 LINE",
"70 2 OFFCURVE",
"118 3 OFFCURVE",
"170 3 CURVE SMOOTH",
"216 3 OFFCURVE",
"266 2 OFFCURVE",
"297 0 CURVE",
"297 20 LINE",
"229 23 OFFCURVE",
"216 33 OFFCURVE",
"216 106 CURVE SMOOTH",
"216 602 LINE SMOOTH",
"216 671 OFFCURVE",
"229 688 OFFCURVE",
"290 688 CURVE SMOOTH",
"411 688 OFFCURVE",
"456 627 OFFCURVE",
"456 522 CURVE SMOOTH",
"456 430 OFFCURVE",
"425 356 OFFCURVE",
"283 356 CURVE SMOOTH",
"197 356 LINE",
"197 356 OFFCURVE",
"197 336 OFFCURVE",
"197 336 CURVE",
"293 336 LINE SMOOTH",
"500 336 OFFCURVE",
"556 454 OFFCURVE",
"556 533 CURVE SMOOTH",
"556 631 OFFCURVE",
"476 707 OFFCURVE",
"315 707 CURVE SMOOTH",
"291 707 OFFCURVE",
"227 705 OFFCURVE",
"164 705 CURVE SMOOTH",
"120 705 OFFCURVE",
"70 706 OFFCURVE",
"42 708 CURVE"
);
},
{
closed = 1;
nodes = (
"203 336 LINE",
"311 336 LINE SMOOTH",
"390 336 OFFCURVE",
"405 279 OFFCURVE",
"424 194 CURVE SMOOTH",
"446 94 LINE SMOOTH",
"465 9 OFFCURVE",
"503 -14 OFFCURVE",
"553 -14 CURVE SMOOTH",
"607 -14 OFFCURVE",
"632 9 OFFCURVE",
"660 50 CURVE",
"645 61 LINE",
"627 38 OFFCURVE",
"615 24 OFFCURVE",
"592 23 CURVE SMOOTH",
"563 22 OFFCURVE",
"552 46 OFFCURVE",
"539 105 CURVE SMOOTH",
"514 207 LINE SMOOTH",
"495 290 OFFCURVE",
"463 324 OFFCURVE",
"374 339 CURVE SMOOTH",
"337 345 OFFCURVE",
"308 348 OFFCURVE",
"201 353 CURVE"
);
}
);
width = 648;
},
{
anchors = (
{
name = bottom;
position = "{383, 0}";
},
{
name = top;
position = "{342, 708}";
}
);
layerId = "39933D6F-F4A7-4C4E-8677-28C34DBED807";
name = Bold;
paths = (
{
closed = 1;
nodes = (
"28 688 LINE",
"88 685 OFFCURVE",
"99 675 OFFCURVE",
"99 602 CURVE SMOOTH",
"99 106 LINE SMOOTH",
"99 33 OFFCURVE",
"89 23 OFFCURVE",
"28 20 CURVE",
"28 0 LINE",
"66 2 OFFCURVE",
"134 3 OFFCURVE",
"206 3 CURVE SMOOTH",
"268 3 OFFCURVE",
"334 2 OFFCURVE",
"373 0 CURVE",
"373 20 LINE",
"313 23 OFFCURVE",
"302 33 OFFCURVE",
"302 106 CURVE SMOOTH",
"302 602 LINE SMOOTH",
"302 671 OFFCURVE",
"311 688 OFFCURVE",
"356 688 CURVE SMOOTH",
"427 688 OFFCURVE",
"452 627 OFFCURVE",
"452 522 CURVE SMOOTH",
"452 430 OFFCURVE",
"431 356 OFFCURVE",
"329 356 CURVE SMOOTH",
"243 356 LINE",
"243 356 OFFCURVE",
"243 336 OFFCURVE",
"243 336 CURVE",
"339 336 LINE SMOOTH",
"594 336 OFFCURVE",
"662 434 OFFCURVE",
"662 533 CURVE SMOOTH",
"662 651 OFFCURVE",
"564 707 OFFCURVE",
"361 707 CURVE SMOOTH",
"335 707 OFFCURVE",
"267 705 OFFCURVE",
"200 705 CURVE SMOOTH",
"136 705 OFFCURVE",
"66 706 OFFCURVE",
"28 708 CURVE"
);
},
{
closed = 1;
nodes = (
"239 336 LINE",
"347 336 LINE SMOOTH",
"398 336 OFFCURVE",
"415 276 OFFCURVE",
"427 194 CURVE SMOOTH",
"442 94 LINE SMOOTH",
"454 12 OFFCURVE",
"509 -14 OFFCURVE",
"596 -14 CURVE SMOOTH",
"657 -14 OFFCURVE",
"705 -1 OFFCURVE",
"746 40 CURVE",
"733 53 LINE",
"724 44 OFFCURVE",
"715 40 OFFCURVE",
"702 40 CURVE SMOOTH",
"679 40 OFFCURVE",
"667 55 OFFCURVE",
"657 105 CURVE SMOOTH",
"636 209 LINE SMOOTH",
"620 292 OFFCURVE",
"552 333 OFFCURVE",
"410 340 CURVE SMOOTH",
"371 342 OFFCURVE",
"308 350 OFFCURVE",
"237 353 CURVE"
);
}
);
width = 721;
}
);
leftKerningGroup = I;
rightKerningGroup = R;
unicode = 0052;
},
{
glyphname = S;
lastChange = "2012-08-15 10:25:04 +0100";
layers = (
{
anchors = (
{
name = bottom;
position = "{286, 0}";
},
{
name = top;
position = "{275, 708}";
}
);
layerId = UUID0;
name = Regular;
paths = (
{
closed = 1;
nodes = (
"157 719 OFFCURVE",
"68 664 OFFCURVE",
"68 546 CURVE SMOOTH",
"68 433 OFFCURVE",
"151 379 OFFCURVE",
"246 322 CURVE SMOOTH",
"339 266 OFFCURVE",
"402 220 OFFCURVE",
"402 139 CURVE SMOOTH",
"402 45 OFFCURVE",
"337 6 OFFCURVE",
"272 6 CURVE SMOOTH",
"144 6 OFFCURVE",
"98 112 OFFCURVE",
"90 233 CURVE",
"67 233 LINE",
"67 92 OFFCURVE",
"66 34 OFFCURVE",
"63 -7 CURVE",
"86 -7 LINE",
"90 22 OFFCURVE",
"95 37 OFFCURVE",
"108 37 CURVE SMOOTH",
"116 37 OFFCURVE",
"126 33 OFFCURVE",
"142 23 CURVE SMOOTH",
"171 5 OFFCURVE",
"208 -14 OFFCURVE",
"279 -14 CURVE SMOOTH",
"395 -14 OFFCURVE",
"491 49 OFFCURVE",
"491 176 CURVE SMOOTH",
"491 283 OFFCURVE",
"415 336 OFFCURVE",
"311 401 CURVE SMOOTH",
"221 457 OFFCURVE",
"143 493 OFFCURVE",
"143 584 CURVE SMOOTH",
"143 653 OFFCURVE",
"194 700 OFFCURVE",
"265 700 CURVE SMOOTH",
"376 700 OFFCURVE",
"422 603 OFFCURVE",
"429 508 CURVE",
"452 508 LINE",
"452 634 OFFCURVE",
"454 677 OFFCURVE",
"457 712 CURVE",
"434 712 LINE",
"430 683 OFFCURVE",
"425 668 OFFCURVE",
"412 668 CURVE SMOOTH",
"403 668 OFFCURVE",
"394 672 OFFCURVE",
"378 682 CURVE SMOOTH",
"351 700 OFFCURVE",
"322 719 OFFCURVE",
"256 719 CURVE SMOOTH"
);
}
);
width = 540;
},
{
anchors = (
{
name = bottom;
position = "{312, 0}";
},
{
name = top;
position = "{313, 708}";
}
);
layerId = "39933D6F-F4A7-4C4E-8677-28C34DBED807";
name = Bold;
paths = (
{
closed = 1;
nodes = (
"173 722 OFFCURVE",
"54 664 OFFCURVE",
"54 533 CURVE SMOOTH",
"54 423 OFFCURVE",
"137 365 OFFCURVE",
"232 302 CURVE SMOOTH",
"317 245 OFFCURVE",
"378 197 OFFCURVE",
"378 114 CURVE SMOOTH",
"378 52 OFFCURVE",
"331 16 OFFCURVE",
"258 16 CURVE SMOOTH",
"130 16 OFFCURVE",
"84 142 OFFCURVE",
"76 283 CURVE",
"53 283 LINE",
"53 112 OFFCURVE",
"52 44 OFFCURVE",
"49 -7 CURVE",
"72 -7 LINE",
"76 22 OFFCURVE",
"81 37 OFFCURVE",
"94 37 CURVE SMOOTH",
"102 37 OFFCURVE",
"112 33 OFFCURVE",
"128 23 CURVE SMOOTH",
"165 5 OFFCURVE",
"214 -14 OFFCURVE",
"305 -14 CURVE SMOOTH",
"451 -14 OFFCURVE",
"577 49 OFFCURVE",
"577 184 CURVE SMOOTH",
"577 293 OFFCURVE",
"504 348 OFFCURVE",
"415 410 CURVE SMOOTH",
"289 498 OFFCURVE",
"239 528 OFFCURVE",
"239 602 CURVE SMOOTH",
"239 662 OFFCURVE",
"282 695 OFFCURVE",
"341 695 CURVE SMOOTH",
"445 695 OFFCURVE",
"508 578 OFFCURVE",
"515 468 CURVE",
"538 468 LINE",
"538 618 OFFCURVE",
"540 669 OFFCURVE",
"543 712 CURVE",
"520 712 LINE",
"516 683 OFFCURVE",
"511 668 OFFCURVE",
"498 668 CURVE SMOOTH",
"489 668 OFFCURVE",
"480 673 OFFCURVE",
"464 682 CURVE SMOOTH",
"430 701 OFFCURVE",
"388 722 OFFCURVE",
"302 722 CURVE SMOOTH"
);
}
);
width = 613;
}
);
leftKerningGroup = S;
rightKerningGroup = S;
unicode = 0053;
},
{
glyphname = Germandbls;
lastChange = "2012-10-24 11:47:21 +0100";
layers = (
{
layerId = UUID0;
name = Regular;
paths = (
{
closed = 1;
nodes = (
"196 722 OFFCURVE",
"97 618 OFFCURVE",
"97 383 CURVE SMOOTH",
"97 106 LINE SMOOTH",
"97 33 OFFCURVE",
"84 23 OFFCURVE",
"16 20 CURVE",
"16 0 LINE",
"44 2 OFFCURVE",
"96 3 OFFCURVE",
"131 3 CURVE SMOOTH",
"192 3 OFFCURVE",
"215 0 OFFCURVE",
"245 0 CURVE",
"245 20 LINE",
"199 21 OFFCURVE",
"190 39 OFFCURVE",
"190 106 CURVE SMOOTH",
"190 444 LINE SMOOTH",
"190 649 OFFCURVE",
"281 704 OFFCURVE",
"379 704 CURVE SMOOTH",
"419 704 OFFCURVE",
"467 695 OFFCURVE",
"493 675 CURVE",
"336 419 LINE",
"458 401 OFFCURVE",
"542 324 OFFCURVE",
"542 197 CURVE SMOOTH",
"542 99 OFFCURVE",
"492 5 OFFCURVE",
"389 5 CURVE SMOOTH",
"370 5 OFFCURVE",
"331 8 OFFCURVE",
"316 21 CURVE",
"341 26 OFFCURVE",
"358 43 OFFCURVE",
"358 72 CURVE SMOOTH",
"358 106 OFFCURVE",
"334 126 OFFCURVE",
"303 126 CURVE SMOOTH",
"272 126 OFFCURVE",
"250 104 OFFCURVE",
"250 73 CURVE SMOOTH",
"250 47 OFFCURVE",
"264 21 OFFCURVE",
"299 4 CURVE SMOOTH",
"318 -5 OFFCURVE",
"347 -14 OFFCURVE",
"394 -14 CURVE SMOOTH",
"548 -14 OFFCURVE",
"642 81 OFFCURVE",
"642 194 CURVE SMOOTH",
"642 307 OFFCURVE",
"548 386 OFFCURVE",
"426 412 CURVE",
"577 651 LINE",
"518 697 OFFCURVE",
"452 722 OFFCURVE",
"368 722 CURVE SMOOTH"
);
}
);
width = 681;
},
{
layerId = "39933D6F-F4A7-4C4E-8677-28C34DBED807";
name = Bold;
paths = (
{
closed = 1;
nodes = (
"213 722 OFFCURVE",
"75 612 OFFCURVE",
"75 363 CURVE SMOOTH",
"75 106 LINE SMOOTH",
"75 33 OFFCURVE",
"64 23 OFFCURVE",
"4 20 CURVE",
"4 0 LINE",
"42 2 OFFCURVE",
"120 3 OFFCURVE",
"166 3 CURVE SMOOTH",
"247 3 OFFCURVE",
"273 0 OFFCURVE",
"313 0 CURVE",
"313 20 LINE",
"283 21 OFFCURVE",
"278 39 OFFCURVE",
"278 106 CURVE SMOOTH",
"278 424 LINE SMOOTH",
"278 648 OFFCURVE",
"354 704 OFFCURVE",
"468 704 CURVE SMOOTH",
"489 704 OFFCURVE",
"521 701 OFFCURVE",
"540 694 CURVE",
"354 439 LINE",
"509 385 OFFCURVE",
"580 304 OFFCURVE",
"580 173 CURVE SMOOTH",
"580 51 OFFCURVE",
"516 9 OFFCURVE",
"458 9 CURVE SMOOTH",
"449 9 OFFCURVE",
"438 11 OFFCURVE",
"430 15 CURVE",
"467 34 OFFCURVE",
"502 71 OFFCURVE",
"502 127 CURVE SMOOTH",
"502 183 OFFCURVE",
"468 223 OFFCURVE",
"417 223 CURVE SMOOTH",
"366 223 OFFCURVE",
"325 183 OFFCURVE",
"325 117 CURVE SMOOTH",
"325 67 OFFCURVE",
"346 26 OFFCURVE",
"389 6 CURVE SMOOTH",
"419 -8 OFFCURVE",
"451 -14 OFFCURVE",
"505 -14 CURVE SMOOTH",
"660 -14 OFFCURVE",
"790 64 OFFCURVE",
"790 196 CURVE SMOOTH",
"790 289 OFFCURVE",
"723 363 OFFCURVE",
"556 402 CURVE",
"745 641 LINE",
"674 685 OFFCURVE",
"569 722 OFFCURVE",
"443 722 CURVE SMOOTH"
);
}
);
width = 806;
}
);
leftKerningGroup = f;
unicode = 1E9E;
},
{
glyphname = T;
lastChange = "2012-10-16 17:03:29 +0100";
layers = (
{
anchors = (
{
name = bottom;
position = "{311, 0}";
},
{
name = center;
position = "{311, 354}";
},
{
name = top;
position = "{311, 708}";
}
);
layerId = UUID0;
name = Regular;
paths = (
{
closed = 1;
nodes = (
"509 705 OFFCURVE",
"393 705 OFFCURVE",
"311 705 CURVE SMOOTH",
"229 705 OFFCURVE",
"112 705 OFFCURVE",
"29 708 CURVE",
"34 657 OFFCURVE",
"36 605 OFFCURVE",
"36 580 CURVE SMOOTH",
"36 548 OFFCURVE",
"35 519 OFFCURVE",
"33 498 CURVE",
"56 498 LINE",
"70 637 OFFCURVE",
"85 685 OFFCURVE",
"210 685 CURVE SMOOTH",
"264 685 LINE",
"264 116 LINE SMOOTH",
"264 35 OFFCURVE",
"247 23 OFFCURVE",
"163 20 CURVE",
"163 0 LINE",
"195 2 OFFCURVE",
"251 3 OFFCURVE",
"311 3 CURVE SMOOTH",
"365 3 OFFCURVE",
"423 2 OFFCURVE",
"458 0 CURVE",
"458 20 LINE",
"374 23 OFFCURVE",
"357 35 OFFCURVE",
"357 116 CURVE SMOOTH",
"357 685 LINE",
"411 685 LINE SMOOTH",
"536 685 OFFCURVE",
"551 637 OFFCURVE",
"565 498 CURVE",
"588 498 LINE",
"586 519 OFFCURVE",
"585 548 OFFCURVE",
"585 580 CURVE SMOOTH",
"585 605 OFFCURVE",
"587 657 OFFCURVE",
"592 708 CURVE"
);
}
);
width = 621;
},
{
anchors = (
{
name = bottom;
position = "{346, 0}";
},
{
name = center;
position = "{350, 354}";
},
{
name = top;
position = "{350, 708}";
}
);
layerId = "39933D6F-F4A7-4C4E-8677-28C34DBED807";
name = Bold;
paths = (
{
closed = 1;
nodes = (
"581 705 OFFCURVE",
"444 705 OFFCURVE",
"350 705 CURVE SMOOTH",
"256 705 OFFCURVE",
"118 705 OFFCURVE",
"23 708 CURVE",
"28 629 OFFCURVE",
"30 549 OFFCURVE",
"30 510 CURVE SMOOTH",
"30 482 OFFCURVE",
"29 455 OFFCURVE",
"27 438 CURVE",
"50 438 LINE",
"97 627 OFFCURVE",
"174 685 OFFCURVE",
"247 685 CURVE SMOOTH",
"248 685 LINE",
"248 113 LINE SMOOTH",
"248 31 OFFCURVE",
"229 20 OFFCURVE",
"137 20 CURVE",
"137 0 LINE",
"182 1 OFFCURVE",
"260 3 OFFCURVE",
"343 3 CURVE SMOOTH",
"430 3 OFFCURVE",
"515 1 OFFCURVE",
"562 0 CURVE",
"562 20 LINE",
"470 20 OFFCURVE",
"451 31 OFFCURVE",
"451 113 CURVE SMOOTH",
"451 685 LINE",
"452 685 LINE SMOOTH",
"524 685 OFFCURVE",
"602 626 OFFCURVE",
"649 438 CURVE",
"672 438 LINE",
"670 455 OFFCURVE",
"669 482 OFFCURVE",
"669 510 CURVE SMOOTH",
"669 549 OFFCURVE",
"671 629 OFFCURVE",
"676 708 CURVE"
);
}
);
width = 699;
}
);
leftKerningGroup = T;
rightKerningGroup = T;
unicode = 0054;
},
{
glyphname = Tbar;
lastChange = "2012-08-13 08:22:39 +0100";
layers = (
{
components = (
{
name = T;
transform = "{1, 0, 0, 1, 2, 0}";
}
);
layerId = UUID0;
name = Regular;
paths = (
{
closed = 1;
nodes = (
"105 366 LINE",
"105 346 LINE",
"519 346 LINE",
"519 366 LINE"
);
}
);
width = 627;
},
{
components = (
{
name = T;
transform = "{1, 0, 0, 1, 0, 0}";
}
);
layerId = "39933D6F-F4A7-4C4E-8677-28C34DBED807";
name = Bold;
paths = (
{
closed = 1;
nodes = (
"121 366 LINE",
"121 346 LINE",
"565 346 LINE",
"565 366 LINE"
);
}
);
width = 699;
}
);
leftKerningGroup = T;
rightKerningGroup = T;
unicode = 0166;
},
{
glyphname = U;
lastChange = "2012-09-30 10:12:52 +0100";
layers = (
{
anchors = (
{
name = bottom;
position = "{360, 0}";
},
{
name = ogonek;
position = "{440, 0}";
},
{
name = top;
position = "{352, 708}";
}
);
layerId = UUID0;
name = Regular;
paths = (
{
closed = 1;
nodes = (
"633 706 OFFCURVE",
"596 705 OFFCURVE",
"562 705 CURVE SMOOTH",
"528 705 OFFCURVE",
"484 706 OFFCURVE",
"460 708 CURVE",
"460 688 LINE",
"528 685 OFFCURVE",
"551 665 OFFCURVE",
"551 592 CURVE SMOOTH",
"551 280 LINE SMOOTH",
"551 131 OFFCURVE",
"510 21 OFFCURVE",
"359 21 CURVE SMOOTH",
"217 21 OFFCURVE",
"201 134 OFFCURVE",
"201 271 CURVE SMOOTH",
"201 602 LINE SMOOTH",
"201 675 OFFCURVE",
"214 685 OFFCURVE",
"282 688 CURVE",
"282 708 LINE",
"251 706 OFFCURVE",
"201 705 OFFCURVE",
"155 705 CURVE SMOOTH",
"103 705 OFFCURVE",
"55 706 OFFCURVE",
"27 708 CURVE",
"27 688 LINE",
"95 685 OFFCURVE",
"108 675 OFFCURVE",
"108 602 CURVE SMOOTH",
"108 288 LINE SMOOTH",
"108 152 OFFCURVE",
"123 95 OFFCURVE",
"182 40 CURVE SMOOTH",
"226 -1 OFFCURVE",
"286 -14 OFFCURVE",
"350 -14 CURVE SMOOTH",
"432 -14 OFFCURVE",
"500 23 OFFCURVE",
"533 79 CURVE SMOOTH",
"563 130 OFFCURVE",
"574 198 OFFCURVE",
"574 291 CURVE SMOOTH",
"574 592 LINE SMOOTH",
"574 665 OFFCURVE",
"587 685 OFFCURVE",
"655 688 CURVE",
"655 708 LINE"
);
}
);
width = 682;
},
{
anchors = (
{
name = bottom;
position = "{396, 0}";
},
{
name = ogonek;
position = "{467, 0}";
},
{
name = top;
position = "{361, 708}";
}
);
layerId = "39933D6F-F4A7-4C4E-8677-28C34DBED807";
name = Bold;
paths = (
{
closed = 1;
nodes = (
"661 706 OFFCURVE",
"628 705 OFFCURVE",
"598 705 CURVE SMOOTH",
"561 705 OFFCURVE",
"513 706 OFFCURVE",
"486 708 CURVE",
"486 688 LINE",
"581 675 OFFCURVE",
"587 646 OFFCURVE",
"587 512 CURVE SMOOTH",
"587 280 LINE SMOOTH",
"587 126 OFFCURVE",
"546 21 OFFCURVE",
"412 21 CURVE SMOOTH",
"329 21 OFFCURVE",
"287 62 OFFCURVE",
"287 194 CURVE SMOOTH",
"287 602 LINE SMOOTH",
"287 675 OFFCURVE",
"300 685 OFFCURVE",
"368 688 CURVE",
"368 708 LINE",
"327 706 OFFCURVE",
"258 705 OFFCURVE",
"189 705 CURVE SMOOTH",
"120 705 OFFCURVE",
"51 706 OFFCURVE",
"13 708 CURVE",
"13 688 LINE",
"74 685 OFFCURVE",
"84 675 OFFCURVE",
"84 602 CURVE SMOOTH",
"84 288 LINE SMOOTH",
"84 165 OFFCURVE",
"97 84 OFFCURVE",
"166 34 CURVE SMOOTH",
"219 -4 OFFCURVE",
"293 -14 OFFCURVE",
"354 -14 CURVE SMOOTH",
"469 -14 OFFCURVE",
"534 21 OFFCURVE",
"569 79 CURVE SMOOTH",
"601 132 OFFCURVE",
"610 208 OFFCURVE",
"610 291 CURVE SMOOTH",
"610 532 LINE SMOOTH",
"610 645 OFFCURVE",
"620 675 OFFCURVE",
"681 688 CURVE",
"681 708 LINE"
);
}
);
width = 693;
}
);
leftKerningGroup = U;
rightKerningGroup = U;
unicode = 0055;
},
{
glyphname = V;
lastChange = "2012-10-16 17:03:35 +0100";
layers = (
{
layerId = UUID0;
name = Regular;
paths = (
{
closed = 1;
nodes = (
"617 706 OFFCURVE",
"596 705 OFFCURVE",
"562 705 CURVE SMOOTH",
"527 705 OFFCURVE",
"485 706 OFFCURVE",
"447 708 CURVE",
"447 688 LINE",
"531 686 OFFCURVE",
"556 654 OFFCURVE",
"514 546 CURVE SMOOTH",
"340 94 LINE",
"356 111 LINE",
"170 604 LINE SMOOTH",
"144 672 OFFCURVE",
"161 685 OFFCURVE",
"229 688 CURVE",
"229 708 LINE",
"201 706 OFFCURVE",
"153 705 OFFCURVE",
"101 705 CURVE SMOOTH",
"63 705 OFFCURVE",
"21 706 OFFCURVE",
"-6 708 CURVE",
"-6 688 LINE",
"15 687 OFFCURVE",
"43 675 OFFCURVE",
"63 624 CURVE SMOOTH",
"307 -5 LINE",
"310 -5 OFFCURVE",
"312 -5 OFFCURVE",
"315 -5 CURVE",
"318 -5 OFFCURVE",
"320 -5 OFFCURVE",
"323 -5 CURVE",
"558 601 LINE SMOOTH",
"581 661 OFFCURVE",
"611 682 OFFCURVE",
"637 688 CURVE",
"637 708 LINE"
);
}
);
width = 630;
},
{
layerId = "39933D6F-F4A7-4C4E-8677-28C34DBED807";
name = Bold;
paths = (
{
closed = 1;
nodes = (
"685 706 OFFCURVE",
"654 705 OFFCURVE",
"628 705 CURVE SMOOTH",
"582 705 OFFCURVE",
"547 706 OFFCURVE",
"497 708 CURVE",
"497 688 LINE",
"577 685 OFFCURVE",
"608 625 OFFCURVE",
"546 450 CURVE SMOOTH",
"432 130 LINE",
"456 161 LINE",
"276 604 LINE SMOOTH",
"247 676 OFFCURVE",
"271 685 OFFCURVE",
"334 688 CURVE",
"334 708 LINE",
"298 706 OFFCURVE",
"234 705 OFFCURVE",
"166 705 CURVE SMOOTH",
"100 705 OFFCURVE",
"32 706 OFFCURVE",
"-16 708 CURVE",
"-16 688 LINE",
"2 687 OFFCURVE",
"24 670 OFFCURVE",
"43 624 CURVE SMOOTH",
"305 0 LINE",
"321 1 OFFCURVE",
"339 2 OFFCURVE",
"357 2 CURVE SMOOTH",
"375 2 OFFCURVE",
"394 1 OFFCURVE",
"410 0 CURVE",
"605 548 LINE SMOOTH",
"635 633 OFFCURVE",
"674 673 OFFCURVE",
"705 688 CURVE",
"705 708 LINE"
);
}
);
width = 693;
}
);
unicode = 0056;
},
{
glyphname = W;
lastChange = "2012-10-19 09:21:35 +0100";
layers = (
{
anchors = (
{
name = top;
position = "{464, 708}";
}
);
layerId = UUID0;
name = Regular;
paths = (
{
closed = 1;
nodes = (
"887 706 OFFCURVE",
"866 705 OFFCURVE",
"832 705 CURVE SMOOTH",
"797 705 OFFCURVE",
"755 706 OFFCURVE",
"717 708 CURVE",
"717 688 LINE",
"801 686 OFFCURVE",
"821 656 OFFCURVE",
"786 546 CURVE SMOOTH",
"654 131 LINE",
"668 143 LINE",
"519 604 LINE SMOOTH",
"494 681 OFFCURVE",
"516 685 OFFCURVE",
"577 688 CURVE",
"577 708 LINE",
"549 706 OFFCURVE",
"501 705 OFFCURVE",
"449 705 CURVE SMOOTH",
"415 705 OFFCURVE",
"376 706 OFFCURVE",
"352 708 CURVE",
"352 688 LINE",
"370 687 OFFCURVE",
"394 676 OFFCURVE",
"411 624 CURVE SMOOTH",
"623 -5 LINE",
"626 -5 OFFCURVE",
"628 -5 OFFCURVE",
"631 -5 CURVE",
"634 -5 OFFCURVE",
"636 -5 OFFCURVE",
"639 -5 CURVE",
"828 601 LINE SMOOTH",
"847 662 OFFCURVE",
"881 682 OFFCURVE",
"907 688 CURVE",
"907 708 LINE"
);
},
{
closed = 1;
nodes = (
"184 706 OFFCURVE",
"144 705 OFFCURVE",
"100 705 CURVE SMOOTH",
"62 705 OFFCURVE",
"20 706 OFFCURVE",
"-7 708 CURVE",
"-7 688 LINE",
"14 687 OFFCURVE",
"44 676 OFFCURVE",
"62 624 CURVE SMOOTH",
"274 -5 LINE",
"277 -5 OFFCURVE",
"279 -5 OFFCURVE",
"282 -5 CURVE",
"285 -5 OFFCURVE",
"287 -5 OFFCURVE",
"290 -5 CURVE",
"455 529 LINE",
"440 553 LINE",
"300 106 LINE",
"325 131 LINE",
"170 604 LINE SMOOTH",
"150 665 OFFCURVE",
"155 684 OFFCURVE",
"208 688 CURVE",
"208 708 LINE"
);
}
);
width = 905;
},
{
anchors = (
{
name = top;
position = "{525, 708}";
}
);
layerId = "39933D6F-F4A7-4C4E-8677-28C34DBED807";
name = Bold;
paths = (
{
closed = 1;
nodes = (
"998 706 OFFCURVE",
"967 705 OFFCURVE",
"941 705 CURVE SMOOTH",
"895 705 OFFCURVE",
"860 706 OFFCURVE",
"810 708 CURVE",
"810 688 LINE",
"890 685 OFFCURVE",
"925 627 OFFCURVE",
"870 450 CURVE SMOOTH",
"769 127 LINE",
"798 188 LINE",
"661 604 LINE SMOOTH",
"637 674 OFFCURVE",
"656 686 OFFCURVE",
"719 688 CURVE",
"719 708 LINE",
"685 706 OFFCURVE",
"627 705 OFFCURVE",
"564 705 CURVE SMOOTH",
"501 705 OFFCURVE",
"436 706 OFFCURVE",
"391 708 CURVE",
"391 688 LINE",
"414 686 OFFCURVE",
"431 676 OFFCURVE",
"442 641 CURVE SMOOTH",
"652 0 LINE",
"668 1 OFFCURVE",
"686 2 OFFCURVE",
"704 2 CURVE SMOOTH",
"722 2 OFFCURVE",
"741 1 OFFCURVE",
"757 0 CURVE",
"925 548 LINE SMOOTH",
"951 634 OFFCURVE",
"987 673 OFFCURVE",
"1018 688 CURVE",
"1018 708 LINE"
);
},
{
closed = 1;
nodes = (
"267 706 OFFCURVE",
"221 705 OFFCURVE",
"162 705 CURVE SMOOTH",
"103 705 OFFCURVE",
"33 706 OFFCURVE",
"-15 708 CURVE",
"-15 688 LINE",
"3 687 OFFCURVE",
"27 670 OFFCURVE",
"44 624 CURVE SMOOTH",
"276 0 LINE",
"292 1 OFFCURVE",
"310 2 OFFCURVE",
"328 2 CURVE SMOOTH",
"346 2 OFFCURVE",
"365 1 OFFCURVE",
"381 0 CURVE",
"534 432 LINE",
"520 461 LINE",
"400 136 LINE",
"428 179 LINE",
"277 604 LINE SMOOTH",
"266 634 OFFCURVE",
"260 681 OFFCURVE",
"295 688 CURVE",
"295 708 LINE"
);
}
);
width = 1010;
}
);
leftKerningGroup = W;
rightKerningGroup = W;
unicode = 0057;
},
{
glyphname = X;
lastChange = "2012-08-07 08:07:56 +0100";
layers = (
{
layerId = UUID0;
name = Regular;
paths = (
{
closed = 1;
nodes = (
"207 706 OFFCURVE",
"157 704 OFFCURVE",
"103 704 CURVE SMOOTH",
"69 704 OFFCURVE",
"34 707 OFFCURVE",
"17 708 CURVE",
"17 687 LINE",
"47 685 OFFCURVE",
"59 676 OFFCURVE",
"84 637 CURVE SMOOTH",
"464 55 LINE SMOOTH",
"483 26 OFFCURVE",
"466 21 OFFCURVE",
"400 21 CURVE",
"400 0 LINE",
"427 1 OFFCURVE",
"487 4 OFFCURVE",
"541 4 CURVE SMOOTH",
"575 4 OFFCURVE",
"610 1 OFFCURVE",
"627 0 CURVE",
"627 21 LINE",
"597 23 OFFCURVE",
"585 32 OFFCURVE",
"560 71 CURVE SMOOTH",
"186 643 LINE SMOOTH",
"167 673 OFFCURVE",
"177 687 OFFCURVE",
"244 687 CURVE",
"244 708 LINE"
);
},
{
closed = 1;
nodes = (
"129 112 LINE SMOOTH",
"92 57 OFFCURVE",
"57 26 OFFCURVE",
"16 20 CURVE",
"16 0 LINE",
"36 2 OFFCURVE",
"67 3 OFFCURVE",
"101 3 CURVE SMOOTH",
"136 3 OFFCURVE",
"198 2 OFFCURVE",
"236 0 CURVE",
"236 20 LINE",
"152 22 OFFCURVE",
"113 48 OFFCURVE",
"185 156 CURVE SMOOTH",
"308 339 LINE",
"308 339 OFFCURVE",
"299 365 OFFCURVE",
"299 365 CURVE"
);
},
{
closed = 1;
nodes = (
"586 706 OFFCURVE",
"555 705 OFFCURVE",
"521 705 CURVE SMOOTH",
"486 705 OFFCURVE",
"444 706 OFFCURVE",
"406 708 CURVE",
"406 688 LINE",
"490 686 OFFCURVE",
"512 660 OFFCURVE",
"440 552 CURVE SMOOTH",
"326 382 LINE",
"326 382 OFFCURVE",
"332 356 OFFCURVE",
"332 356 CURVE",
"493 596 LINE SMOOTH",
"530 651 OFFCURVE",
"565 682 OFFCURVE",
"606 688 CURVE",
"606 708 LINE"
);
}
);
width = 634;
},
{
layerId = "39933D6F-F4A7-4C4E-8677-28C34DBED807";
name = Bold;
paths = (
{
closed = 1;
nodes = (
"305 708 OFFCURVE",
"237 705 OFFCURVE",
"175 705 CURVE SMOOTH",
"105 705 OFFCURVE",
"29 708 OFFCURVE",
"-6 709 CURVE",
"-6 688 LINE",
"20 686 OFFCURVE",
"29 676 OFFCURVE",
"56 638 CURVE SMOOTH",
"464 55 LINE SMOOTH",
"483 28 OFFCURVE",
"465 21 OFFCURVE",
"409 21 CURVE",
"409 0 LINE",
"442 1 OFFCURVE",
"517 4 OFFCURVE",
"583 4 CURVE SMOOTH",
"649 4 OFFCURVE",
"721 1 OFFCURVE",
"754 0 CURVE",
"754 21 LINE",
"728 23 OFFCURVE",
"719 33 OFFCURVE",
"692 71 CURVE SMOOTH",
"281 654 LINE SMOOTH",
"262 681 OFFCURVE",
"280 688 OFFCURVE",
"336 688 CURVE",
"336 709 LINE"
);
},
{
closed = 1;
nodes = (
"164 162 LINE SMOOTH",
"105 89 OFFCURVE",
"48 41 OFFCURVE",
"-2 20 CURVE",
"-2 0 LINE",
"20 2 OFFCURVE",
"54 3 OFFCURVE",
"95 3 CURVE SMOOTH",
"127 3 OFFCURVE",
"230 2 OFFCURVE",
"268 0 CURVE",
"268 20 LINE",
"178 27 OFFCURVE",
"151 111 OFFCURVE",
"236 217 CURVE SMOOTH",
"322 324 LINE",
"322 324 OFFCURVE",
"314 350 OFFCURVE",
"314 350 CURVE"
);
},
{
closed = 1;
nodes = (
"671 706 OFFCURVE",
"637 705 OFFCURVE",
"596 705 CURVE SMOOTH",
"564 705 OFFCURVE",
"501 706 OFFCURVE",
"463 708 CURVE",
"463 688 LINE",
"543 681 OFFCURVE",
"561 608 OFFCURVE",
"483 518 CURVE SMOOTH",
"387 400 LINE",
"387 400 OFFCURVE",
"395 375 OFFCURVE",
"395 375 CURVE",
"558 575 LINE SMOOTH",
"595 621 OFFCURVE",
"647 671 OFFCURVE",
"693 688 CURVE",
"693 708 LINE"
);
}
);
width = 729;
}
);
unicode = 0058;
},
{
glyphname = Y;
lastChange = "2012-10-19 09:21:28 +0100";
layers = (
{
anchors = (
{
name = top;
position = "{304, 708}";
}
);
layerId = UUID0;
name = Regular;
paths = (
{
closed = 1;
nodes = (
"568 706 OFFCURVE",
"547 705 OFFCURVE",
"513 705 CURVE SMOOTH",
"478 705 OFFCURVE",
"436 706 OFFCURVE",
"398 708 CURVE",
"398 688 LINE",
"482 686 OFFCURVE",
"514 659 OFFCURVE",
"459 549 CURVE SMOOTH",
"326 284 LINE",
"334 290 LINE",
"165 614 LINE SMOOTH",
"135 672 OFFCURVE",
"175 687 OFFCURVE",
"225 687 CURVE",
"225 708 LINE",
"182 705 OFFCURVE",
"129 705 OFFCURVE",
"85 705 CURVE SMOOTH",
"51 705 OFFCURVE",
"23 706 OFFCURVE",
"-3 708 CURVE",
"-3 687 LINE",
"11 687 OFFCURVE",
"28 680 OFFCURVE",
"55 631 CURVE SMOOTH",
"289 199 LINE",
"306 199 LINE",
"508 599 LINE SMOOTH",
"538 658 OFFCURVE",
"562 682 OFFCURVE",
"588 688 CURVE",
"588 708 LINE"
);
},
{
closed = 1;
nodes = (
"312 249 LINE",
"258 311 LINE",
"258 106 LINE SMOOTH",
"258 33 OFFCURVE",
"245 23 OFFCURVE",
"177 20 CURVE",
"177 0 LINE",
"205 2 OFFCURVE",
"253 3 OFFCURVE",
"305 3 CURVE SMOOTH",
"351 3 OFFCURVE",
"401 2 OFFCURVE",
"432 0 CURVE",
"432 20 LINE",
"364 23 OFFCURVE",
"351 33 OFFCURVE",
"351 106 CURVE SMOOTH",
"351 304 LINE"
);
}
);
width = 591;
},
{
anchors = (
{
name = top;
position = "{348, 708}";
}
);
layerId = "39933D6F-F4A7-4C4E-8677-28C34DBED807";
name = Bold;
paths = (
{
closed = 1;
nodes = (
"616 707 OFFCURVE",
"585 706 OFFCURVE",
"559 706 CURVE SMOOTH",
"513 706 OFFCURVE",
"478 707 OFFCURVE",
"428 709 CURVE",
"428 689 LINE",
"508 686 OFFCURVE",
"544 632 OFFCURVE",
"461 466 CURVE SMOOTH",
"377 298 LINE",
"424 360 LINE",
"273 650 LINE SMOOTH",
"254 687 OFFCURVE",
"299 688 OFFCURVE",
"349 688 CURVE",
"349 709 LINE",
"282 706 OFFCURVE",
"197 703 OFFCURVE",
"129 703 CURVE SMOOTH",
"75 703 OFFCURVE",
"32 705 OFFCURVE",
"-9 709 CURVE",
"-9 688 LINE",
"5 688 OFFCURVE",
"26 674 OFFCURVE",
"49 632 CURVE SMOOTH",
"283 199 LINE",
"350 199 LINE",
"530 556 LINE SMOOTH",
"571 637 OFFCURVE",
"605 674 OFFCURVE",
"636 689 CURVE",
"636 709 LINE"
);
},
{
closed = 1;
nodes = (
"343 249 LINE",
"234 311 LINE",
"234 106 LINE SMOOTH",
"234 33 OFFCURVE",
"224 23 OFFCURVE",
"163 20 CURVE",
"163 0 LINE",
"199 2 OFFCURVE",
"268 3 OFFCURVE",
"336 3 CURVE SMOOTH",
"398 3 OFFCURVE",
"469 2 OFFCURVE",
"508 0 CURVE",
"508 20 LINE",
"448 23 OFFCURVE",
"437 33 OFFCURVE",
"437 106 CURVE SMOOTH",
"437 393 LINE"
);
}
);
width = 644;
}
);
leftKerningGroup = Y;
rightKerningGroup = Y;
unicode = 0059;
},
{
glyphname = Z;
lastChange = "2012-08-07 07:59:26 +0100";
layers = (
{
anchors = (
{
name = bottom;
position = "{299, 0}";
},
{
name = top;
position = "{295, 708}";
}
);
layerId = UUID0;
name = Regular;
paths = (
{
closed = 1;
nodes = (
"477 705 OFFCURVE",
"383 705 OFFCURVE",
"307 705 CURVE SMOOTH",
"234 705 OFFCURVE",
"132 705 OFFCURVE",
"58 708 CURVE",
"63 657 OFFCURVE",
"65 605 OFFCURVE",
"65 580 CURVE SMOOTH",
"65 548 OFFCURVE",
"64 519 OFFCURVE",
"62 498 CURVE",
"85 498 LINE",
"99 637 OFFCURVE",
"124 685 OFFCURVE",
"249 685 CURVE SMOOTH",
"459 685 LINE",
"42 20 LINE",
"42 0 LINE",
"118 3 OFFCURVE",
"210 3 OFFCURVE",
"289 3 CURVE SMOOTH",
"362 3 OFFCURVE",
"464 3 OFFCURVE",
"538 0 CURVE",
"533 51 OFFCURVE",
"531 103 OFFCURVE",
"531 128 CURVE SMOOTH",
"531 160 OFFCURVE",
"532 189 OFFCURVE",
"534 210 CURVE",
"511 210 LINE",
"497 71 OFFCURVE",
"472 23 OFFCURVE",
"347 23 CURVE SMOOTH",
"136 23 LINE",
"550 688 LINE",
"550 708 LINE"
);
}
);
width = 594;
},
{
anchors = (
{
name = bottom;
position = "{310, 0}";
},
{
name = top;
position = "{306, 708}";
}
);
layerId = "39933D6F-F4A7-4C4E-8677-28C34DBED807";
name = Bold;
paths = (
{
closed = 1;
nodes = (
"464 705 OFFCURVE",
"348 705 OFFCURVE",
"248 705 CURVE SMOOTH",
"187 705 OFFCURVE",
"101 705 OFFCURVE",
"39 708 CURVE",
"44 641 OFFCURVE",
"46 573 OFFCURVE",
"46 540 CURVE SMOOTH",
"46 512 OFFCURVE",
"45 485 OFFCURVE",
"43 468 CURVE",
"66 468 LINE",
"89 638 OFFCURVE",
"208 685 OFFCURVE",
"290 685 CURVE SMOOTH",
"340 685 LINE",
"37 20 LINE",
"37 0 LINE",
"125 3 OFFCURVE",
"229 3 OFFCURVE",
"320 3 CURVE SMOOTH",
"393 3 OFFCURVE",
"495 3 OFFCURVE",
"569 0 CURVE",
"562 66 OFFCURVE",
"562 135 OFFCURVE",
"562 168 CURVE SMOOTH",
"562 204 OFFCURVE",
"563 236 OFFCURVE",
"565 260 CURVE",
"542 260 LINE",
"522 79 OFFCURVE",
"368 23 OFFCURVE",
"300 23 CURVE SMOOTH",
"258 23 LINE",
"561 688 LINE",
"561 708 LINE"
);
}
);
width = 607;
}
);
leftKerningGroup = Z;
rightKerningGroup = Z;
unicode = 005A;
},
{
glyphname = a;
lastChange = "2012-10-25 11:16:38 +0100";
layers = (
{
anchors = (
{
name = ogonek;
position = "{455, 0}";
},
{
name = top;
position = "{246, 514}";
}
);
layerId = UUID0;
name = Regular;
paths = (
{
closed = 1;
nodes = (
"185 529 OFFCURVE",
"137 510 OFFCURVE",
"109 491 CURVE SMOOTH",
"81 472 OFFCURVE",
"62 449 OFFCURVE",
"62 420 CURVE SMOOTH",
"62 384 OFFCURVE",
"82 358 OFFCURVE",
"116 358 CURVE SMOOTH",
"152 358 OFFCURVE",
"175 378 OFFCURVE",
"175 412 CURVE SMOOTH",
"175 445 OFFCURVE",
"153 467 OFFCURVE",
"128 473 CURVE",
"151 502 OFFCURVE",
"193 509 OFFCURVE",
"227 509 CURVE SMOOTH",
"279 509 OFFCURVE",
"320 492 OFFCURVE",
"320 408 CURVE SMOOTH",
"320 346 LINE SMOOTH",
"320 306 OFFCURVE",
"267 289 OFFCURVE",
"200 261 CURVE SMOOTH",
"100 219 OFFCURVE",
"39 184 OFFCURVE",
"39 105 CURVE SMOOTH",
"39 27 OFFCURVE",
"99 -7 OFFCURVE",
"166 -7 CURVE SMOOTH",
"214 -7 OFFCURVE",
"277 11 OFFCURVE",
"320 82 CURVE",
"320 35 OFFCURVE",
"336 -7 OFFCURVE",
"406 -7 CURVE SMOOTH",
"448 -7 OFFCURVE",
"469 9 OFFCURVE",
"497 30 CURVE",
"486 47 LINE",
"472 35 OFFCURVE",
"459 26 OFFCURVE",
"441 26 CURVE SMOOTH",
"418 26 OFFCURVE",
"410 41 OFFCURVE",
"410 73 CURVE SMOOTH",
"410 351 LINE SMOOTH",
"410 422 OFFCURVE",
"402 459 OFFCURVE",
"370 491 CURVE SMOOTH",
"347 514 OFFCURVE",
"305 529 OFFCURVE",
"249 529 CURVE SMOOTH"
);
},
{
closed = 1;
nodes = (
"320 109 LINE",
"286 54 OFFCURVE",
"247 33 OFFCURVE",
"207 33 CURVE SMOOTH",
"161 33 OFFCURVE",
"127 61 OFFCURVE",
"127 121 CURVE SMOOTH",
"127 198 OFFCURVE",
"180 227 OFFCURVE",
"224 248 CURVE SMOOTH",
"287 279 OFFCURVE",
"309 289 OFFCURVE",
"320 305 CURVE"
);
}
);
width = 498;
},
{
anchors = (
{
name = ogonek;
position = "{471, 0}";
},
{
name = top;
position = "{269, 514}";
}
);
layerId = "39933D6F-F4A7-4C4E-8677-28C34DBED807";
name = Bold;
paths = (
{
closed = 1;
nodes = (
"202 533 OFFCURVE",
"153 522 OFFCURVE",
"112 501 CURVE SMOOTH",
"76 482 OFFCURVE",
"50 451 OFFCURVE",
"50 409 CURVE SMOOTH",
"50 360 OFFCURVE",
"82 322 OFFCURVE",
"132 322 CURVE SMOOTH",
"190 322 OFFCURVE",
"228 359 OFFCURVE",
"228 406 CURVE SMOOTH",
"228 451 OFFCURVE",
"204 480 OFFCURVE",
"161 496 CURVE",
"176 506 OFFCURVE",
"197 513 OFFCURVE",
"214 513 CURVE SMOOTH",
"278 513 OFFCURVE",
"288 462 OFFCURVE",
"288 431 CURVE SMOOTH",
"288 342 LINE SMOOTH",
"288 297 OFFCURVE",
"227 277 OFFCURVE",
"149 249 CURVE SMOOTH",
"61 220 OFFCURVE",
"22 176 OFFCURVE",
"22 108 CURVE SMOOTH",
"22 39 OFFCURVE",
"68 -7 OFFCURVE",
"148 -7 CURVE SMOOTH",
"210 -7 OFFCURVE",
"263 23 OFFCURVE",
"291 69 CURVE",
"292 29 OFFCURVE",
"319 -7 OFFCURVE",
"394 -7 CURVE SMOOTH",
"451 -7 OFFCURVE",
"492 3 OFFCURVE",
"524 30 CURVE",
"514 47 LINE",
"505 40 OFFCURVE",
"495 32 OFFCURVE",
"483 32 CURVE SMOOTH",
"472 32 OFFCURVE",
"468 43 OFFCURVE",
"468 75 CURVE SMOOTH",
"468 343 LINE SMOOTH",
"468 412 OFFCURVE",
"463 454 OFFCURVE",
"435 483 CURVE SMOOTH",
"397 523 OFFCURVE",
"342 533 OFFCURVE",
"272 533 CURVE SMOOTH"
);
},
{
closed = 1;
nodes = (
"288 90 LINE",
"276 77 OFFCURVE",
"265 73 OFFCURVE",
"251 73 CURVE SMOOTH",
"222 73 OFFCURVE",
"200 92 OFFCURVE",
"200 144 CURVE SMOOTH",
"200 193 OFFCURVE",
"219 228 OFFCURVE",
"249 257 CURVE SMOOTH",
"263 271 OFFCURVE",
"280 287 OFFCURVE",
"288 301 CURVE"
);
}
);
width = 531;
}
);
leftKerningGroup = a;
rightKerningGroup = a;
unicode = 0061;
},
{
glyphname = ae;
lastChange = "2012-08-16 13:05:19 +0100";
layers = (
{
anchors = (
{
name = top;
position = "{371, 514}";
}
);
layerId = UUID0;
name = Regular;
paths = (
{
closed = 1;
nodes = (
"175 529 OFFCURVE",
"132 512 OFFCURVE",
"104 493 CURVE SMOOTH",
"76 474 OFFCURVE",
"57 449 OFFCURVE",
"57 421 CURVE SMOOTH",
"57 390 OFFCURVE",
"79 368 OFFCURVE",
"110 368 CURVE SMOOTH",
"140 368 OFFCURVE",
"165 388 OFFCURVE",
"165 422 CURVE SMOOTH",
"165 450 OFFCURVE",
"148 468 OFFCURVE",
"123 473 CURVE",
"146 502 OFFCURVE",
"189 509 OFFCURVE",
"219 509 CURVE SMOOTH",
"267 509 OFFCURVE",
"317 492 OFFCURVE",
"317 408 CURVE SMOOTH",
"317 346 LINE SMOOTH",
"317 308 OFFCURVE",
"268 291 OFFCURVE",
"197 260 CURVE SMOOTH",
"103 219 OFFCURVE",
"41 181 OFFCURVE",
"41 96 CURVE SMOOTH",
"41 16 OFFCURVE",
"106 -14 OFFCURVE",
"169 -14 CURVE SMOOTH",
"240 -14 OFFCURVE",
"303 23 OFFCURVE",
"344 123 CURVE",
"405 181 LINE",
"405 237 OFFCURVE",
"405 294 OFFCURVE",
"405 350 CURVE SMOOTH",
"405 493 OFFCURVE",
"337 529 OFFCURVE",
"241 529 CURVE SMOOTH"
);
},
{
closed = 1;
nodes = (
"317 109 LINE",
"285 44 OFFCURVE",
"243 26 OFFCURVE",
"207 26 CURVE SMOOTH",
"169 26 OFFCURVE",
"129 46 OFFCURVE",
"129 113 CURVE SMOOTH",
"129 185 OFFCURVE",
"173 223 OFFCURVE",
"236 254 CURVE SMOOTH",
"263 267 OFFCURVE",
"301 286 OFFCURVE",
"317 305 CURVE"
);
},
{
closed = 1;
nodes = (
"397 529 OFFCURVE",
"320 431 OFFCURVE",
"320 245 CURVE SMOOTH",
"320 82 OFFCURVE",
"393 -14 OFFCURVE",
"526 -14 CURVE SMOOTH",
"615 -14 OFFCURVE",
"673 53 OFFCURVE",
"693 120 CURVE",
"673 128 LINE",
"642 53 OFFCURVE",
"598 28 OFFCURVE",
"546 28 CURVE SMOOTH",
"474 28 OFFCURVE",
"405 108 OFFCURVE",
"405 245 CURVE SMOOTH",
"405 269 OFFCURVE",
"406 294 OFFCURVE",
"409 314 CURVE",
"406 318 LINE",
"414 451 OFFCURVE",
"462 510 OFFCURVE",
"518 510 CURVE SMOOTH",
"578 510 OFFCURVE",
"606 426 OFFCURVE",
"603 328 CURVE",
"375 328 LINE",
"375 328 OFFCURVE",
"376 309 OFFCURVE",
"376 309 CURVE",
"699 309 LINE",
"699 460 OFFCURVE",
"633 529 OFFCURVE",
"522 529 CURVE SMOOTH"
);
}
);
width = 742;
},
{
anchors = (
{
name = top;
position = "{366, 514}";
}
);
layerId = "39933D6F-F4A7-4C4E-8677-28C34DBED807";
name = Bold;
paths = (
{
closed = 1;
nodes = (
"189 533 OFFCURVE",
"143 521 OFFCURVE",
"105 501 CURVE SMOOTH",
"69 482 OFFCURVE",
"43 451 OFFCURVE",
"43 409 CURVE SMOOTH",
"43 360 OFFCURVE",
"75 322 OFFCURVE",
"125 322 CURVE SMOOTH",
"183 322 OFFCURVE",
"221 359 OFFCURVE",
"221 406 CURVE SMOOTH",
"221 451 OFFCURVE",
"197 480 OFFCURVE",
"154 496 CURVE",
"169 506 OFFCURVE",
"190 513 OFFCURVE",
"207 513 CURVE SMOOTH",
"271 513 OFFCURVE",
"281 462 OFFCURVE",
"281 431 CURVE SMOOTH",
"281 342 LINE SMOOTH",
"281 297 OFFCURVE",
"224 276 OFFCURVE",
"152 249 CURVE SMOOTH",
"64 219 OFFCURVE",
"25 176 OFFCURVE",
"25 108 CURVE SMOOTH",
"25 39 OFFCURVE",
"71 -7 OFFCURVE",
"151 -7 CURVE SMOOTH",
"242 -7 OFFCURVE",
"289 38 OFFCURVE",
"327 107 CURVE",
"461 293 LINE",
"447 359 OFFCURVE",
"424 430 OFFCURVE",
"388 473 CURVE SMOOTH",
"351 517 OFFCURVE",
"314 533 OFFCURVE",
"241 533 CURVE SMOOTH"
);
},
{
closed = 1;
nodes = (
"317 115 LINE",
"297 94 OFFCURVE",
"279 89 OFFCURVE",
"254 89 CURVE SMOOTH",
"216 89 OFFCURVE",
"203 115 OFFCURVE",
"203 151 CURVE SMOOTH",
"203 197 OFFCURVE",
"227 228 OFFCURVE",
"252 257 CURVE SMOOTH",
"264 271 OFFCURVE",
"275 287 OFFCURVE",
"281 301 CURVE"
);
},
{
closed = 1;
nodes = (
"364 533 OFFCURVE",
"279 412 OFFCURVE",
"279 259 CURVE SMOOTH",
"279 57 OFFCURVE",
"378 -14 OFFCURVE",
"500 -14 CURVE SMOOTH",
"613 -14 OFFCURVE",
"675 75 OFFCURVE",
"699 156 CURVE",
"682 162 LINE",
"642 101 OFFCURVE",
"596 95 OFFCURVE",
"571 95 CURVE SMOOTH",
"522 95 OFFCURVE",
"466 132 OFFCURVE",
"466 273 CURVE SMOOTH",
"466 287 OFFCURVE",
"466 301 OFFCURVE",
"467 314 CURVE",
"463 322 LINE",
"468 459 OFFCURVE",
"488 510 OFFCURVE",
"519 510 CURVE SMOOTH",
"549 510 OFFCURVE",
"560 426 OFFCURVE",
"559 328 CURVE",
"410 328 LINE",
"410 328 OFFCURVE",
"412 309 OFFCURVE",
"412 309 CURVE",
"705 309 LINE",
"705 470 OFFCURVE",
"637 533 OFFCURVE",
"526 533 CURVE SMOOTH"
);
}
);
width = 731;
}
);
leftKerningGroup = a;
rightKerningGroup = e;
unicode = 00E6;
},
{
glyphname = b;
lastChange = "2012-10-25 11:42:15 +0100";
layers = (
{
layerId = UUID0;
name = Regular;
paths = (
{
closed = 1;
nodes = (
"237 529 OFFCURVE",
"165 463 OFFCURVE",
"151 350 CURVE",
"163 336 LINE",
"175 443 OFFCURVE",
"236 499 OFFCURVE",
"297 499 CURVE SMOOTH",
"380 499 OFFCURVE",
"419 419 OFFCURVE",
"419 257 CURVE SMOOTH",
"419 87 OFFCURVE",
"374 9 OFFCURVE",
"285 9 CURVE SMOOTH",
"233 9 OFFCURVE",
"180 35 OFFCURVE",
"147 88 CURVE",
"127 99 LINE",
"158 24 OFFCURVE",
"226 -14 OFFCURVE",
"293 -14 CURVE SMOOTH",
"413 -14 OFFCURVE",
"516 77 OFFCURVE",
"516 257 CURVE SMOOTH",
"516 439 OFFCURVE",
"435 529 OFFCURVE",
"326 529 CURVE SMOOTH"
);
},
{
closed = 1;
nodes = (
"141 773 OFFCURVE",
"105 769 OFFCURVE",
"66 769 CURVE SMOOTH",
"46 769 OFFCURVE",
"25 770 OFFCURVE",
"4 772 CURVE",
"4 751 LINE",
"62 751 OFFCURVE",
"80 723 OFFCURVE",
"80 663 CURVE SMOOTH",
"80 49 LINE SMOOTH",
"80 29 OFFCURVE",
"78 9 OFFCURVE",
"73 -9 CURVE",
"90 -16 LINE",
"117 7 OFFCURVE",
"143 29 OFFCURVE",
"170 52 CURVE",
"170 783 LINE"
);
}
);
width = 563;
},
{
layerId = "39933D6F-F4A7-4C4E-8677-28C34DBED807";
name = Bold;
paths = (
{
closed = 1;
nodes = (
"327 533 OFFCURVE",
"274 509 OFFCURVE",
"243 458 CURVE",
"243 409 LINE SMOOTH",
"243 451 OFFCURVE",
"278 481 OFFCURVE",
"315 481 CURVE SMOOTH",
"352 481 OFFCURVE",
"382 436 OFFCURVE",
"382 259 CURVE SMOOTH",
"382 90 OFFCURVE",
"352 6 OFFCURVE",
"290 6 CURVE SMOOTH",
"271 6 OFFCURVE",
"248 12 OFFCURVE",
"231 26 CURVE",
"220 10 LINE",
"254 -12 OFFCURVE",
"290 -14 OFFCURVE",
"336 -14 CURVE SMOOTH",
"461 -14 OFFCURVE",
"569 55 OFFCURVE",
"569 282 CURVE SMOOTH",
"569 452 OFFCURVE",
"494 533 OFFCURVE",
"395 533 CURVE SMOOTH"
);
},
{
closed = 1;
nodes = (
"193 772 OFFCURVE",
"136 768 OFFCURVE",
"69 768 CURVE SMOOTH",
"49 768 OFFCURVE",
"28 769 OFFCURVE",
"7 771 CURVE",
"7 750 LINE",
"49 750 OFFCURVE",
"63 722 OFFCURVE",
"63 662 CURVE SMOOTH",
"63 49 LINE SMOOTH",
"63 30 OFFCURVE",
"62 12 OFFCURVE",
"56 -6 CURVE",
"70 -16 LINE",
"99 11 OFFCURVE",
"177 25 OFFCURVE",
"243 -2 CURVE",
"243 782 LINE"
);
}
);
width = 601;
}
);
rightKerningGroup = o;
unicode = 0062;
},
{
glyphname = c;
lastChange = "2012-10-25 11:45:37 +0100";
layers = (
{
anchors = (
{
name = bottom;
position = "{268, 0}";
},
{
name = top;
position = "{263, 514}";
}
);
layerId = UUID0;
name = Regular;
paths = (
{
closed = 1;
nodes = (
"142 529 OFFCURVE",
"46 415 OFFCURVE",
"46 251 CURVE SMOOTH",
"46 86 OFFCURVE",
"143 -14 OFFCURVE",
"267 -14 CURVE SMOOTH",
"374 -14 OFFCURVE",
"431 60 OFFCURVE",
"451 125 CURVE",
"432 132 LINE",
"397 56 OFFCURVE",
"339 29 OFFCURVE",
"287 29 CURVE SMOOTH",
"210 29 OFFCURVE",
"143 89 OFFCURVE",
"143 266 CURVE SMOOTH",
"143 455 OFFCURVE",
"220 511 OFFCURVE",
"286 511 CURVE SMOOTH",
"324 511 OFFCURVE",
"363 493 OFFCURVE",
"376 469 CURVE",
"353 463 OFFCURVE",
"334 444 OFFCURVE",
"334 414 CURVE SMOOTH",
"334 382 OFFCURVE",
"359 364 OFFCURVE",
"389 364 CURVE SMOOTH",
"419 364 OFFCURVE",
"442 384 OFFCURVE",
"442 420 CURVE SMOOTH",
"442 450 OFFCURVE",
"425 477 OFFCURVE",
"395 497 CURVE SMOOTH",
"363 518 OFFCURVE",
"321 529 OFFCURVE",
"279 529 CURVE SMOOTH"
);
}
);
width = 486;
},
{
anchors = (
{
name = bottom;
position = "{275, 0}";
},
{
name = top;
position = "{271, 514}";
}
);
layerId = "39933D6F-F4A7-4C4E-8677-28C34DBED807";
name = Bold;
paths = (
{
closed = 1;
nodes = (
"142 533 OFFCURVE",
"30 451 OFFCURVE",
"30 259 CURVE SMOOTH",
"30 57 OFFCURVE",
"137 -14 OFFCURVE",
"271 -14 CURVE SMOOTH",
"390 -14 OFFCURVE",
"455 75 OFFCURVE",
"480 156 CURVE",
"463 162 LINE",
"419 101 OFFCURVE",
"369 95 OFFCURVE",
"342 95 CURVE SMOOTH",
"283 95 OFFCURVE",
"217 132 OFFCURVE",
"217 273 CURVE SMOOTH",
"217 373 OFFCURVE",
"238 504 OFFCURVE",
"333 504 CURVE SMOOTH",
"351 504 OFFCURVE",
"364 499 OFFCURVE",
"373 492 CURVE",
"329 480 OFFCURVE",
"291 442 OFFCURVE",
"291 392 CURVE SMOOTH",
"291 339 OFFCURVE",
"324 302 OFFCURVE",
"383 302 CURVE SMOOTH",
"439 302 OFFCURVE",
"479 344 OFFCURVE",
"479 399 CURVE SMOOTH",
"479 445 OFFCURVE",
"455 482 OFFCURVE",
"419 503 CURVE SMOOTH",
"392 519 OFFCURVE",
"345 533 OFFCURVE",
"287 533 CURVE SMOOTH"
);
}
);
width = 503;
}
);
leftKerningGroup = o;
rightKerningGroup = c;
unicode = 0063;
},
{
glyphname = d;
lastChange = "2012-08-08 13:40:54 +0100";
layers = (
{
anchors = (
{
name = "bar-right";
position = "{560, 608}";
},
{
name = center;
position = "{291, 257}";
}
);
layerId = UUID0;
name = Regular;
paths = (
{
closed = 1;
nodes = (
"455 774 OFFCURVE",
"419 770 OFFCURVE",
"380 770 CURVE SMOOTH",
"360 770 OFFCURVE",
"339 771 OFFCURVE",
"318 773 CURVE",
"318 752 LINE",
"376 752 OFFCURVE",
"394 724 OFFCURVE",
"394 664 CURVE SMOOTH",
"394 -11 LINE",
"423 -1 OFFCURVE",
"459 3 OFFCURVE",
"498 3 CURVE SMOOTH",
"518 3 OFFCURVE",
"539 2 OFFCURVE",
"560 0 CURVE",
"560 21 LINE",
"502 21 OFFCURVE",
"484 49 OFFCURVE",
"484 109 CURVE SMOOTH",
"484 784 LINE"
);
},
{
closed = 1;
nodes = (
"154 529 OFFCURVE",
"47 439 OFFCURVE",
"48 257 CURVE SMOOTH",
"47 75 OFFCURVE",
"127 -14 OFFCURVE",
"252 -14 CURVE SMOOTH",
"344 -14 OFFCURVE",
"399 43 OFFCURVE",
"410 144 CURVE",
"398 158 LINE",
"389 65 OFFCURVE",
"337 16 OFFCURVE",
"281 16 CURVE SMOOTH",
"192 16 OFFCURVE",
"144 95 OFFCURVE",
"145 257 CURVE SMOOTH",
"144 426 OFFCURVE",
"203 506 OFFCURVE",
"282 506 CURVE SMOOTH",
"335 506 OFFCURVE",
"376 482 OFFCURVE",
"395 426 CURVE",
"408 436 LINE",
"390 504 OFFCURVE",
"332 529 OFFCURVE",
"274 529 CURVE SMOOTH"
);
}
);
width = 581;
},
{
anchors = (
{
name = "bar-right";
position = "{575, 608}";
},
{
name = center;
position = "{305, 257}";
}
);
layerId = "39933D6F-F4A7-4C4E-8677-28C34DBED807";
name = Bold;
paths = (
{
closed = 1;
nodes = (
"487 772 OFFCURVE",
"430 768 OFFCURVE",
"363 768 CURVE SMOOTH",
"343 768 OFFCURVE",
"322 769 OFFCURVE",
"301 771 CURVE",
"301 750 LINE",
"343 750 OFFCURVE",
"357 722 OFFCURVE",
"357 662 CURVE SMOOTH",
"357 -10 LINE",
"407 0 OFFCURVE",
"464 4 OFFCURVE",
"531 4 CURVE SMOOTH",
"551 4 OFFCURVE",
"572 3 OFFCURVE",
"593 1 CURVE",
"593 22 LINE",
"551 22 OFFCURVE",
"537 50 OFFCURVE",
"537 110 CURVE",
"537 782 LINE"
);
},
{
closed = 1;
nodes = (
"119 533 OFFCURVE",
"31 444 OFFCURVE",
"31 263 CURVE SMOOTH",
"31 67 OFFCURVE",
"120 -14 OFFCURVE",
"235 -14 CURVE SMOOTH",
"294 -14 OFFCURVE",
"330 10 OFFCURVE",
"357 61 CURVE",
"357 110 LINE SMOOTH",
"357 68 OFFCURVE",
"322 38 OFFCURVE",
"285 38 CURVE SMOOTH",
"248 38 OFFCURVE",
"218 83 OFFCURVE",
"218 260 CURVE SMOOTH",
"218 422 OFFCURVE",
"248 500 OFFCURVE",
"310 500 CURVE SMOOTH",
"329 500 OFFCURVE",
"352 493 OFFCURVE",
"369 478 CURVE",
"380 489 LINE",
"349 520 OFFCURVE",
"311 533 OFFCURVE",
"253 533 CURVE SMOOTH"
);
}
);
width = 609;
}
);
leftKerningGroup = o;
rightKerningGroup = d;
unicode = 0064;
},
{
glyphname = eth;
lastChange = "2012-08-08 13:40:54 +0100";
layers = (
{
layerId = UUID0;
name = Regular;
paths = (
{
closed = 1;
nodes = (
"130 765 LINE",
"267 701 OFFCURVE",
"403 608 OFFCURVE",
"403 302 CURVE SMOOTH",
"403 72 OFFCURVE",
"335 6 OFFCURVE",
"265 6 CURVE SMOOTH",
"200 6 OFFCURVE",
"143 73 OFFCURVE",
"143 253 CURVE SMOOTH",
"143 443 OFFCURVE",
"200 508 OFFCURVE",
"271 508 CURVE SMOOTH",
"326 508 OFFCURVE",
"394 485 OFFCURVE",
"403 342 CURVE",
"424 346 LINE",
"414 471 OFFCURVE",
"365 529 OFFCURVE",
"264 529 CURVE SMOOTH",
"120 529 OFFCURVE",
"46 387 OFFCURVE",
"46 255 CURVE SMOOTH",
"46 76 OFFCURVE",
"139 -14 OFFCURVE",
"270 -14 CURVE SMOOTH",
"387 -14 OFFCURVE",
"498 87 OFFCURVE",
"498 302 CURVE SMOOTH",
"498 569 OFFCURVE",
"331 706 OFFCURVE",
"138 782 CURVE"
);
},
{
closed = 1;
nodes = (
"88 600 LINE",
"97 582 LINE",
"296 679 LINE",
"279 693 LINE"
);
},
{
closed = 1;
nodes = (
"279 693 LINE",
"296 679 LINE",
"444 751 LINE",
"435 769 LINE"
);
}
);
width = 554;
},
{
layerId = "39933D6F-F4A7-4C4E-8677-28C34DBED807";
name = Bold;
paths = (
{
closed = 1;
nodes = (
"128 765 LINE",
"326 669 OFFCURVE",
"359 503 OFFCURVE",
"359 298 CURVE SMOOTH",
"359 78 OFFCURVE",
"329 4 OFFCURVE",
"289 4 CURVE SMOOTH",
"249 4 OFFCURVE",
"219 81 OFFCURVE",
"219 260 CURVE SMOOTH",
"219 429 OFFCURVE",
"249 508 OFFCURVE",
"311 508 CURVE SMOOTH",
"330 508 OFFCURVE",
"353 501 OFFCURVE",
"370 486 CURVE",
"381 489 LINE",
"350 520 OFFCURVE",
"312 533 OFFCURVE",
"265 533 CURVE SMOOTH",
"142 533 OFFCURVE",
"31 463 OFFCURVE",
"32 244 CURVE SMOOTH",
"33 50 OFFCURVE",
"137 -16 OFFCURVE",
"289 -16 CURVE SMOOTH",
"444 -16 OFFCURVE",
"543 83 OFFCURVE",
"543 306 CURVE SMOOTH",
"543 549 OFFCURVE",
"360 713 OFFCURVE",
"136 782 CURVE"
);
},
{
closed = 1;
nodes = (
"111 602 LINE",
"120 584 LINE",
"319 681 LINE",
"302 695 LINE"
);
},
{
closed = 1;
nodes = (
"302 695 LINE",
"319 681 LINE",
"467 753 LINE",
"458 771 LINE"
);
}
);
width = 575;
}
);
leftKerningGroup = o;
unicode = 00F0;
},
{
glyphname = dcroat;
lastChange = "2012-08-08 13:40:54 +0100";
layers = (
{
components = (
{
name = d;
transform = "{1, 0, 0, 1, 0, 0}";
}
);
layerId = UUID0;
name = Regular;
paths = (
{
closed = 1;
nodes = (
"216 628 LINE",
"216 608 LINE",
"570 608 LINE",
"570 628 LINE"
);
}
);
width = 581;
},
{
components = (
{
name = d;
transform = "{1, 0, 0, 1, 0, 0}";
}
);
layerId = "39933D6F-F4A7-4C4E-8677-28C34DBED807";
name = Bold;
paths = (
{
closed = 1;
nodes = (
"199 628 LINE",
"199 608 LINE",
"603 608 LINE",
"603 628 LINE"
);
}
);
width = 609;
}
);
leftKerningGroup = o;
rightKerningGroup = d;
unicode = 0111;
},
{
glyphname = e;
lastChange = "2012-10-25 11:45:05 +0100";
layers = (
{
anchors = (
{
name = bottom;
position = "{279, 0}";
},
{
name = ogonek;
position = "{356, 0}";
},
{
name = top;
position = "{271, 514}";
}
);
layerId = UUID0;
name = Regular;
paths = (
{
closed = 1;
nodes = (
"135 529 OFFCURVE",
"46 421 OFFCURVE",
"46 245 CURVE SMOOTH",
"46 92 OFFCURVE",
"131 -14 OFFCURVE",
"276 -14 CURVE SMOOTH",
"375 -14 OFFCURVE",
"441 53 OFFCURVE",
"463 120 CURVE",
"443 128 LINE",
"408 53 OFFCURVE",
"356 28 OFFCURVE",
"296 28 CURVE SMOOTH",
"219 28 OFFCURVE",
"143 108 OFFCURVE",
"143 245 CURVE SMOOTH",
"143 269 OFFCURVE",
"144 294 OFFCURVE",
"147 314 CURVE",
"144 318 LINE",
"153 451 OFFCURVE",
"207 510 OFFCURVE",
"268 510 CURVE SMOOTH",
"335 510 OFFCURVE",
"366 426 OFFCURVE",
"363 328 CURVE",
"105 328 LINE",
"105 328 OFFCURVE",
"106 309 OFFCURVE",
"106 309 CURVE",
"459 309 LINE",
"459 460 OFFCURVE",
"389 529 OFFCURVE",
"272 529 CURVE SMOOTH"
);
}
);
width = 506;
},
{
anchors = (
{
name = bottom;
position = "{262, 0}";
},
{
name = ogonek;
position = "{341, 0}";
},
{
name = top;
position = "{279, 514}";
}
);
layerId = "39933D6F-F4A7-4C4E-8677-28C34DBED807";
name = Bold;
paths = (
{
closed = 1;
nodes = (
"143 533 OFFCURVE",
"31 451 OFFCURVE",
"31 259 CURVE SMOOTH",
"31 57 OFFCURVE",
"134 -14 OFFCURVE",
"262 -14 CURVE SMOOTH",
"381 -14 OFFCURVE",
"446 75 OFFCURVE",
"471 156 CURVE",
"454 162 LINE",
"410 101 OFFCURVE",
"360 95 OFFCURVE",
"333 95 CURVE SMOOTH",
"279 95 OFFCURVE",
"218 132 OFFCURVE",
"218 273 CURVE SMOOTH",
"218 287 OFFCURVE",
"218 301 OFFCURVE",
"219 314 CURVE",
"215 322 LINE",
"221 459 OFFCURVE",
"245 510 OFFCURVE",
"281 510 CURVE SMOOTH",
"318 510 OFFCURVE",
"332 426 OFFCURVE",
"331 328 CURVE",
"162 328 LINE",
"162 328 OFFCURVE",
"164 309 OFFCURVE",
"164 309 CURVE",
"477 309 LINE",
"477 470 OFFCURVE",
"405 533 OFFCURVE",
"288 533 CURVE SMOOTH"
);
}
);
width = 503;
}
);
leftKerningGroup = o;
rightKerningGroup = e;
unicode = 0065;
},
{
glyphname = f;
lastChange = "2012-08-07 07:59:26 +0100";
layers = (
{
layerId = UUID0;
name = Regular;
paths = (
{
closed = 1;
nodes = (
"227 782 OFFCURVE",
"183 763 OFFCURVE",
"157 732 CURVE SMOOTH",
"119 687 OFFCURVE",
"106 632 OFFCURVE",
"106 514 CURVE",
"26 514 LINE",
"26 494 LINE",
"106 494 LINE",
"106 93 LINE SMOOTH",
"106 37 OFFCURVE",
"85 21 OFFCURVE",
"30 21 CURVE",
"30 0 LINE",
"53 1 OFFCURVE",
"102 4 OFFCURVE",
"148 4 CURVE SMOOTH",
"210 4 OFFCURVE",
"271 1 OFFCURVE",
"302 0 CURVE",
"302 21 LINE",
"236 21 OFFCURVE",
"196 38 OFFCURVE",
"196 103 CURVE SMOOTH",
"196 494 LINE",
"303 494 LINE",
"303 514 LINE",
"196 514 LINE",
"196 540 LINE SMOOTH",
"196 654 OFFCURVE",
"198 702 OFFCURVE",
"214 730 CURVE SMOOTH",
"226 752 OFFCURVE",
"248 767 OFFCURVE",
"279 767 CURVE SMOOTH",
"307 767 OFFCURVE",
"324 757 OFFCURVE",
"328 745 CURVE",
"303 740 OFFCURVE",
"286 722 OFFCURVE",
"286 694 CURVE SMOOTH",
"286 660 OFFCURVE",
"311 640 OFFCURVE",
"341 640 CURVE SMOOTH",
"372 640 OFFCURVE",
"394 662 OFFCURVE",
"394 693 CURVE SMOOTH",
"394 717 OFFCURVE",
"383 739 OFFCURVE",
"363 755 CURVE SMOOTH",
"342 771 OFFCURVE",
"313 782 OFFCURVE",
"276 782 CURVE SMOOTH"
);
}
);
width = 332;
},
{
hints = (
{
horizontal = 1;
place = "{941.000000, 21.000000}";
}
);
layerId = "39933D6F-F4A7-4C4E-8677-28C34DBED807";
name = Bold;
paths = (
{
closed = 1;
nodes = (
"235 782 OFFCURVE",
"178 759 OFFCURVE",
"147 732 CURVE SMOOTH",
"95 687 OFFCURVE",
"76 636 OFFCURVE",
"76 518 CURVE",
"16 518 LINE",
"16 498 LINE",
"76 498 LINE",
"76 93 LINE SMOOTH",
"76 37 OFFCURVE",
"61 21 OFFCURVE",
"20 21 CURVE",
"20 0 LINE",
"47 1 OFFCURVE",
"104 4 OFFCURVE",
"158 4 CURVE SMOOTH",
"232 4 OFFCURVE",
"305 1 OFFCURVE",
"342 0 CURVE",
"342 21 LINE",
"288 21 OFFCURVE",
"256 38 OFFCURVE",
"256 103 CURVE SMOOTH",
"256 498 LINE",
"363 498 LINE",
"363 518 LINE",
"256 518 LINE",
"256 652 LINE SMOOTH",
"256 705 OFFCURVE",
"263 728 OFFCURVE",
"275 743 CURVE SMOOTH",
"285 755 OFFCURVE",
"299 762 OFFCURVE",
"322 762 CURVE SMOOTH",
"336 762 OFFCURVE",
"345 758 OFFCURVE",
"349 753 CURVE",
"302 738 OFFCURVE",
"280 702 OFFCURVE",
"280 664 CURVE SMOOTH",
"280 612 OFFCURVE",
"315 581 OFFCURVE",
"370 581 CURVE SMOOTH",
"419 581 OFFCURVE",
"453 621 OFFCURVE",
"453 662 CURVE SMOOTH",
"453 701 OFFCURVE",
"435 730 OFFCURVE",
"416 745 CURVE SMOOTH",
"386 768 OFFCURVE",
"349 782 OFFCURVE",
"296 782 CURVE SMOOTH"
);
}
);
width = 365;
}
);
leftKerningGroup = f;
rightKerningGroup = f;
unicode = 0066;
},
{
glyphname = g;
lastChange = "2012-10-25 10:45:13 +0100";
layers = (
{
anchors = (
{
name = top;
position = "{252, 514}";
}
);
layerId = UUID0;
name = Regular;
paths = (
{
closed = 1;
nodes = (
"72 187 OFFCURVE",
"41 146 OFFCURVE",
"41 102 CURVE SMOOTH",
"41 35 OFFCURVE",
"106 26 OFFCURVE",
"141 26 CURVE SMOOTH",
"355 26 LINE SMOOTH",
"416 26 OFFCURVE",
"431 7 OFFCURVE",
"431 -30 CURVE SMOOTH",
"431 -126 OFFCURVE",
"331 -171 OFFCURVE",
"247 -171 CURVE SMOOTH",
"180 -171 OFFCURVE",
"101 -143 OFFCURVE",
"101 -75 CURVE SMOOTH",
"101 -35 OFFCURVE",
"129 10 OFFCURVE",
"179 31 CURVE",
"169 36 LINE",
"98 9 OFFCURVE",
"19 -41 OFFCURVE",
"19 -96 CURVE SMOOTH",
"19 -157 OFFCURVE",
"119 -188 OFFCURVE",
"220 -188 CURVE SMOOTH",
"414 -188 OFFCURVE",
"500 -72 OFFCURVE",
"500 17 CURVE SMOOTH",
"500 87 OFFCURVE",
"446 110 OFFCURVE",
"383 110 CURVE SMOOTH",
"148 110 LINE SMOOTH",
"114 110 OFFCURVE",
"100 121 OFFCURVE",
"100 143 CURVE SMOOTH",
"100 174 OFFCURVE",
"139 198 OFFCURVE",
"184 222 CURVE",
"172 231 LINE"
);
},
{
closed = 1;
nodes = (
"314 511 OFFCURVE",
"349 478 OFFCURVE",
"349 371 CURVE SMOOTH",
"349 264 OFFCURVE",
"314 231 OFFCURVE",
"258 231 CURVE SMOOTH",
"202 231 OFFCURVE",
"167 264 OFFCURVE",
"167 371 CURVE SMOOTH",
"167 478 OFFCURVE",
"202 511 OFFCURVE",
"258 511 CURVE SMOOTH"
);
},
{
closed = 1;
nodes = (
"153 529 OFFCURVE",
"73 481 OFFCURVE",
"73 371 CURVE SMOOTH",
"73 261 OFFCURVE",
"153 213 OFFCURVE",
"258 213 CURVE SMOOTH",
"363 213 OFFCURVE",
"443 261 OFFCURVE",
"443 371 CURVE SMOOTH",
"443 481 OFFCURVE",
"363 529 OFFCURVE",
"258 529 CURVE SMOOTH"
);
},
{
closed = 1;
nodes = (
"403 642 OFFCURVE",
"380 629 OFFCURVE",
"364 609 CURVE SMOOTH",
"347 587 OFFCURVE",
"333 552 OFFCURVE",
"327 510 CURVE",
"344 495 LINE",
"346 520 OFFCURVE",
"352 541 OFFCURVE",
"357 556 CURVE SMOOTH",
"365 580 OFFCURVE",
"374 596 OFFCURVE",
"384 605 CURVE",
"390 566 OFFCURVE",
"401 542 OFFCURVE",
"437 542 CURVE SMOOTH",
"465 542 OFFCURVE",
"485 563 OFFCURVE",
"485 590 CURVE SMOOTH",
"485 619 OFFCURVE",
"467 642 OFFCURVE",
"432 642 CURVE SMOOTH"
);
}
);
width = 518;
},
{
anchors = (
{
name = top;
position = "{275, 514}";
}
);
layerId = "39933D6F-F4A7-4C4E-8677-28C34DBED807";
name = Bold;
paths = (
{
closed = 1;
nodes = (
"71 187 OFFCURVE",
"32 148 OFFCURVE",
"32 78 CURVE SMOOTH",
"32 -10 OFFCURVE",
"112 -26 OFFCURVE",
"152 -26 CURVE SMOOTH",
"366 -26 LINE SMOOTH",
"401 -26 OFFCURVE",
"412 -38 OFFCURVE",
"412 -58 CURVE SMOOTH",
"412 -125 OFFCURVE",
"360 -171 OFFCURVE",
"282 -171 CURVE SMOOTH",
"222 -171 OFFCURVE",
"192 -141 OFFCURVE",
"192 -91 CURVE SMOOTH",
"192 -78 OFFCURVE",
"195 -43 OFFCURVE",
"207 -21 CURVE",
"188 -21 LINE",
"152 -78 OFFCURVE",
"20 -30 OFFCURVE",
"20 -105 CURVE SMOOTH",
"20 -144 OFFCURVE",
"71 -188 OFFCURVE",
"255 -188 CURVE SMOOTH",
"457 -188 OFFCURVE",
"551 -78 OFFCURVE",
"551 23 CURVE SMOOTH",
"551 112 OFFCURVE",
"483 140 OFFCURVE",
"404 140 CURVE SMOOTH",
"177 140 LINE SMOOTH",
"155 140 OFFCURVE",
"141 150 OFFCURVE",
"141 173 CURVE SMOOTH",
"141 197 OFFCURVE",
"159 209 OFFCURVE",
"190 229 CURVE",
"181 237 LINE"
);
},
{
closed = 1;
nodes = (
"307 515 OFFCURVE",
"326 480 OFFCURVE",
"326 373 CURVE SMOOTH",
"326 266 OFFCURVE",
"307 231 OFFCURVE",
"275 231 CURVE SMOOTH",
"243 231 OFFCURVE",
"224 266 OFFCURVE",
"224 373 CURVE SMOOTH",
"224 480 OFFCURVE",
"243 515 OFFCURVE",
"275 515 CURVE SMOOTH"
);
},
{
closed = 1;
nodes = (
"140 533 OFFCURVE",
"40 483 OFFCURVE",
"40 373 CURVE SMOOTH",
"40 263 OFFCURVE",
"140 213 OFFCURVE",
"275 213 CURVE SMOOTH",
"410 213 OFFCURVE",
"510 263 OFFCURVE",
"510 373 CURVE SMOOTH",
"510 483 OFFCURVE",
"410 533 OFFCURVE",
"275 533 CURVE SMOOTH"
);
},
{
closed = 1;
nodes = (
"367 682 OFFCURVE",
"334 624 OFFCURVE",
"334 550 CURVE SMOOTH",
"334 508 OFFCURVE",
"347 469 OFFCURVE",
"374 436 CURVE",
"388 449 LINE",
"364 477 OFFCURVE",
"355 516 OFFCURVE",
"355 550 CURVE SMOOTH",
"355 570 OFFCURVE",
"357 588 OFFCURVE",
"362 602 CURVE",
"379 569 OFFCURVE",
"404 550 OFFCURVE",
"451 550 CURVE SMOOTH",
"497 550 OFFCURVE",
"533 577 OFFCURVE",
"533 615 CURVE SMOOTH",
"533 658 OFFCURVE",
"494 682 OFFCURVE",
"447 682 CURVE SMOOTH"
);
}
);
width = 560;
}
);
leftKerningGroup = g;
rightKerningGroup = g;
unicode = 0067;
},
{
glyphname = gbreve;
lastChange = "2012-08-07 07:59:26 +0100";
layers = (
{
components = (
{
name = breve;
transform = "{1, 0, 0, 1, 27, 0}";
}
);
layerId = UUID0;
name = Regular;
paths = (
{
closed = 1;
nodes = (
"82 187 OFFCURVE",
"49 148 OFFCURVE",
"49 101 CURVE SMOOTH",
"49 35 OFFCURVE",
"115 24 OFFCURVE",
"149 24 CURVE SMOOTH",
"353 24 LINE SMOOTH",
"412 24 OFFCURVE",
"429 7 OFFCURVE",
"429 -28 CURVE SMOOTH",
"429 -120 OFFCURVE",
"324 -171 OFFCURVE",
"237 -171 CURVE SMOOTH",
"177 -171 OFFCURVE",
"109 -142 OFFCURVE",
"109 -78 CURVE SMOOTH",
"109 -34 OFFCURVE",
"138 7 OFFCURVE",
"189 29 CURVE",
"177 34 LINE",
"103 5 OFFCURVE",
"27 -39 OFFCURVE",
"27 -100 CURVE SMOOTH",
"27 -155 OFFCURVE",
"115 -188 OFFCURVE",
"212 -188 CURVE SMOOTH",
"400 -188 OFFCURVE",
"488 -78 OFFCURVE",
"488 14 CURVE SMOOTH",
"488 88 OFFCURVE",
"435 110 OFFCURVE",
"371 110 CURVE SMOOTH",
"164 110 LINE SMOOTH",
"130 110 OFFCURVE",
"108 113 OFFCURVE",
"108 143 CURVE SMOOTH",
"108 179 OFFCURVE",
"141 197 OFFCURVE",
"190 228 CURVE",
"178 237 LINE"
);
},
{
closed = 1;
nodes = (
"298 511 OFFCURVE",
"333 478 OFFCURVE",
"333 371 CURVE SMOOTH",
"333 264 OFFCURVE",
"298 231 OFFCURVE",
"242 231 CURVE SMOOTH",
"186 231 OFFCURVE",
"151 264 OFFCURVE",
"151 371 CURVE SMOOTH",
"151 478 OFFCURVE",
"186 511 OFFCURVE",
"242 511 CURVE SMOOTH"
);
},
{
closed = 1;
nodes = (
"137 529 OFFCURVE",
"57 481 OFFCURVE",
"57 371 CURVE SMOOTH",
"57 261 OFFCURVE",
"137 213 OFFCURVE",
"242 213 CURVE SMOOTH",
"347 213 OFFCURVE",
"427 261 OFFCURVE",
"427 371 CURVE SMOOTH",
"427 481 OFFCURVE",
"347 529 OFFCURVE",
"242 529 CURVE SMOOTH"
);
},
{
closed = 1;
nodes = (
"384 646 OFFCURVE",
"359 622 OFFCURVE",
"344 599 CURVE SMOOTH",
"330 578 OFFCURVE",
"317 549 OFFCURVE",
"311 510 CURVE",
"328 495 LINE",
"330 520 OFFCURVE",
"337 541 OFFCURVE",
"343 556 CURVE SMOOTH",
"349 570 OFFCURVE",
"356 582 OFFCURVE",
"364 585 CURVE",
"367 555 OFFCURVE",
"387 538 OFFCURVE",
"415 538 CURVE SMOOTH",
"449 538 OFFCURVE",
"469 563 OFFCURVE",
"469 593 CURVE SMOOTH",
"469 624 OFFCURVE",
"447 646 OFFCURVE",
"416 646 CURVE SMOOTH"
);
}
);
width = 505;
},
{
components = (
{
name = breve;
transform = "{1, 0, 0, 1, 80, 0}";
}
);
layerId = "39933D6F-F4A7-4C4E-8677-28C34DBED807";
name = Bold;
paths = (
{
closed = 1;
nodes = (
"71 187 OFFCURVE",
"32 148 OFFCURVE",
"32 78 CURVE SMOOTH",
"32 -10 OFFCURVE",
"112 -26 OFFCURVE",
"152 -26 CURVE SMOOTH",
"366 -26 LINE SMOOTH",
"401 -26 OFFCURVE",
"412 -38 OFFCURVE",
"412 -58 CURVE SMOOTH",
"412 -125 OFFCURVE",
"360 -171 OFFCURVE",
"282 -171 CURVE SMOOTH",
"222 -171 OFFCURVE",
"192 -141 OFFCURVE",
"192 -91 CURVE SMOOTH",
"192 -78 OFFCURVE",
"195 -43 OFFCURVE",
"207 -21 CURVE",
"188 -21 LINE",
"152 -78 OFFCURVE",
"20 -30 OFFCURVE",
"20 -105 CURVE SMOOTH",
"20 -144 OFFCURVE",
"71 -188 OFFCURVE",
"255 -188 CURVE SMOOTH",
"457 -188 OFFCURVE",
"551 -78 OFFCURVE",
"551 23 CURVE SMOOTH",
"551 112 OFFCURVE",
"483 140 OFFCURVE",
"404 140 CURVE SMOOTH",
"177 140 LINE SMOOTH",
"155 140 OFFCURVE",
"141 150 OFFCURVE",
"141 173 CURVE SMOOTH",
"141 197 OFFCURVE",
"159 209 OFFCURVE",
"190 229 CURVE",
"181 237 LINE"
);
},
{
closed = 1;
nodes = (
"307 515 OFFCURVE",
"326 480 OFFCURVE",
"326 373 CURVE SMOOTH",
"326 266 OFFCURVE",
"307 231 OFFCURVE",
"275 231 CURVE SMOOTH",
"243 231 OFFCURVE",
"224 266 OFFCURVE",
"224 373 CURVE SMOOTH",
"224 480 OFFCURVE",
"243 515 OFFCURVE",
"275 515 CURVE SMOOTH"
);
},
{
closed = 1;
nodes = (
"140 533 OFFCURVE",
"40 483 OFFCURVE",
"40 373 CURVE SMOOTH",
"40 263 OFFCURVE",
"140 213 OFFCURVE",
"275 213 CURVE SMOOTH",
"410 213 OFFCURVE",
"510 263 OFFCURVE",
"510 373 CURVE SMOOTH",
"510 483 OFFCURVE",
"410 533 OFFCURVE",
"275 533 CURVE SMOOTH"
);
},
{
closed = 1;
nodes = (
"447 659 OFFCURVE",
"404 605 OFFCURVE",
"404 537 CURVE SMOOTH",
"404 510 OFFCURVE",
"413 486 OFFCURVE",
"423 463 CURVE",
"441 473 LINE",
"431 494 OFFCURVE",
"425 516 OFFCURVE",
"425 537 CURVE SMOOTH",
"425 558 OFFCURVE",
"429 571 OFFCURVE",
"438 584 CURVE",
"447 557 OFFCURVE",
"469 527 OFFCURVE",
"511 527 CURVE SMOOTH",
"551 527 OFFCURVE",
"583 554 OFFCURVE",
"583 592 CURVE SMOOTH",
"583 637 OFFCURVE",
"548 659 OFFCURVE",
"507 659 CURVE SMOOTH"
);
}
);
width = 560;
}
);
leftKerningGroup = g;
rightKerningGroup = g;
unicode = 011F;
},
{
glyphname = gcircumflex;
lastChange = "2012-08-07 07:59:26 +0100";
layers = (
{
layerId = UUID0;
name = Regular;
paths = (
{
closed = 1;
nodes = (
"82 187 OFFCURVE",
"49 148 OFFCURVE",
"49 101 CURVE SMOOTH",
"49 35 OFFCURVE",
"115 24 OFFCURVE",
"149 24 CURVE SMOOTH",
"353 24 LINE SMOOTH",
"412 24 OFFCURVE",
"429 7 OFFCURVE",
"429 -28 CURVE SMOOTH",
"429 -120 OFFCURVE",
"324 -171 OFFCURVE",
"237 -171 CURVE SMOOTH",
"177 -171 OFFCURVE",
"109 -142 OFFCURVE",
"109 -78 CURVE SMOOTH",
"109 -34 OFFCURVE",
"138 7 OFFCURVE",
"189 29 CURVE",
"177 34 LINE",
"103 5 OFFCURVE",
"27 -39 OFFCURVE",
"27 -100 CURVE SMOOTH",
"27 -155 OFFCURVE",
"115 -188 OFFCURVE",
"212 -188 CURVE SMOOTH",
"400 -188 OFFCURVE",
"488 -78 OFFCURVE",
"488 14 CURVE SMOOTH",
"488 88 OFFCURVE",
"435 110 OFFCURVE",
"371 110 CURVE SMOOTH",
"164 110 LINE SMOOTH",
"130 110 OFFCURVE",
"108 113 OFFCURVE",
"108 143 CURVE SMOOTH",
"108 179 OFFCURVE",
"141 197 OFFCURVE",
"190 228 CURVE",
"178 237 LINE"
);
},
{
closed = 1;
nodes = (
"298 511 OFFCURVE",
"333 478 OFFCURVE",
"333 371 CURVE SMOOTH",
"333 264 OFFCURVE",
"298 231 OFFCURVE",
"242 231 CURVE SMOOTH",
"186 231 OFFCURVE",
"151 264 OFFCURVE",
"151 371 CURVE SMOOTH",
"151 478 OFFCURVE",
"186 511 OFFCURVE",
"242 511 CURVE SMOOTH"
);
},
{
closed = 1;
nodes = (
"137 529 OFFCURVE",
"57 481 OFFCURVE",
"57 371 CURVE SMOOTH",
"57 261 OFFCURVE",
"137 213 OFFCURVE",
"242 213 CURVE SMOOTH",
"347 213 OFFCURVE",
"427 261 OFFCURVE",
"427 371 CURVE SMOOTH",
"427 481 OFFCURVE",
"347 529 OFFCURVE",
"242 529 CURVE SMOOTH"
);
},
{
closed = 1;
nodes = (
"233 802 LINE",
"206 735 OFFCURVE",
"143 668 OFFCURVE",
"66 630 CURVE",
"74 616 LINE",
"130 641 OFFCURVE",
"188 680 OFFCURVE",
"222 716 CURVE",
"250 691 OFFCURVE",
"296 663 OFFCURVE",
"340 646 CURVE",
"350 660 LINE",
"306 692 OFFCURVE",
"266 747 OFFCURVE",
"251 802 CURVE"
);
},
{
closed = 1;
nodes = (
"384 646 OFFCURVE",
"359 622 OFFCURVE",
"344 599 CURVE SMOOTH",
"330 578 OFFCURVE",
"317 549 OFFCURVE",
"311 510 CURVE",
"328 495 LINE",
"330 520 OFFCURVE",
"337 541 OFFCURVE",
"343 556 CURVE SMOOTH",
"349 570 OFFCURVE",
"356 582 OFFCURVE",
"364 585 CURVE",
"367 555 OFFCURVE",
"387 538 OFFCURVE",
"415 538 CURVE SMOOTH",
"449 538 OFFCURVE",
"469 563 OFFCURVE",
"469 593 CURVE SMOOTH",
"469 624 OFFCURVE",
"447 646 OFFCURVE",
"416 646 CURVE SMOOTH"
);
}
);
width = 505;
},
{
layerId = "39933D6F-F4A7-4C4E-8677-28C34DBED807";
name = Bold;
paths = (
{
closed = 1;
nodes = (
"71 187 OFFCURVE",
"32 148 OFFCURVE",
"32 78 CURVE SMOOTH",
"32 -10 OFFCURVE",
"112 -26 OFFCURVE",
"152 -26 CURVE SMOOTH",
"366 -26 LINE SMOOTH",
"401 -26 OFFCURVE",
"412 -38 OFFCURVE",
"412 -58 CURVE SMOOTH",
"412 -125 OFFCURVE",
"360 -171 OFFCURVE",
"282 -171 CURVE SMOOTH",
"222 -171 OFFCURVE",
"192 -141 OFFCURVE",
"192 -91 CURVE SMOOTH",
"192 -78 OFFCURVE",
"195 -43 OFFCURVE",
"207 -21 CURVE",
"188 -21 LINE",
"152 -78 OFFCURVE",
"20 -30 OFFCURVE",
"20 -105 CURVE SMOOTH",
"20 -144 OFFCURVE",
"71 -188 OFFCURVE",
"255 -188 CURVE SMOOTH",
"457 -188 OFFCURVE",
"551 -78 OFFCURVE",
"551 23 CURVE SMOOTH",
"551 112 OFFCURVE",
"483 140 OFFCURVE",
"404 140 CURVE SMOOTH",
"177 140 LINE SMOOTH",
"155 140 OFFCURVE",
"141 150 OFFCURVE",
"141 173 CURVE SMOOTH",
"141 197 OFFCURVE",
"159 209 OFFCURVE",
"190 229 CURVE",
"181 237 LINE"
);
},
{
closed = 1;
nodes = (
"307 515 OFFCURVE",
"326 480 OFFCURVE",
"326 373 CURVE SMOOTH",
"326 266 OFFCURVE",
"307 231 OFFCURVE",
"275 231 CURVE SMOOTH",
"243 231 OFFCURVE",
"224 266 OFFCURVE",
"224 373 CURVE SMOOTH",
"224 480 OFFCURVE",
"243 515 OFFCURVE",
"275 515 CURVE SMOOTH"
);
},
{
closed = 1;
nodes = (
"140 533 OFFCURVE",
"40 483 OFFCURVE",
"40 373 CURVE SMOOTH",
"40 263 OFFCURVE",
"140 213 OFFCURVE",
"275 213 CURVE SMOOTH",
"410 213 OFFCURVE",
"510 263 OFFCURVE",
"510 373 CURVE SMOOTH",
"510 483 OFFCURVE",
"410 533 OFFCURVE",
"275 533 CURVE SMOOTH"
);
},
{
closed = 1;
nodes = (
"286 832 LINE",
"243 752 OFFCURVE",
"174 669 OFFCURVE",
"99 620 CURVE",
"107 606 LINE",
"171 620 OFFCURVE",
"237 644 OFFCURVE",
"275 666 CURVE",
"309 649 OFFCURVE",
"362 631 OFFCURVE",
"419 617 CURVE",
"429 631 LINE",
"374 687 OFFCURVE",
"334 760 OFFCURVE",
"304 832 CURVE"
);
},
{
closed = 1;
nodes = (
"439 629 OFFCURVE",
"404 575 OFFCURVE",
"404 507 CURVE SMOOTH",
"404 487 OFFCURVE",
"409 469 OFFCURVE",
"416 451 CURVE",
"435 457 LINE",
"429 474 OFFCURVE",
"425 491 OFFCURVE",
"425 507 CURVE SMOOTH",
"425 533 OFFCURVE",
"429 548 OFFCURVE",
"438 564 CURVE",
"447 542 OFFCURVE",
"469 517 OFFCURVE",
"511 517 CURVE SMOOTH",
"551 517 OFFCURVE",
"583 540 OFFCURVE",
"583 572 CURVE SMOOTH",
"583 610 OFFCURVE",
"548 629 OFFCURVE",
"507 629 CURVE SMOOTH"
);
}
);
width = 560;
}
);
leftKerningGroup = g;
rightKerningGroup = g;
unicode = 011D;
},
{
glyphname = gcommaaccent;
lastChange = "2012-08-07 07:59:26 +0100";
layers = (
{
components = (
{
name = commaaccent;
transform = "{-1, 0, 0, -1, 345, 575}";
}
);
layerId = UUID0;
name = Regular;
paths = (
{
closed = 1;
nodes = (
"82 187 OFFCURVE",
"49 148 OFFCURVE",
"49 101 CURVE SMOOTH",
"49 35 OFFCURVE",
"115 24 OFFCURVE",
"149 24 CURVE SMOOTH",
"353 24 LINE SMOOTH",
"412 24 OFFCURVE",
"429 7 OFFCURVE",
"429 -28 CURVE SMOOTH",
"429 -120 OFFCURVE",
"324 -171 OFFCURVE",
"237 -171 CURVE SMOOTH",
"177 -171 OFFCURVE",
"109 -142 OFFCURVE",
"109 -78 CURVE SMOOTH",
"109 -34 OFFCURVE",
"138 7 OFFCURVE",
"189 29 CURVE",
"177 34 LINE",
"103 5 OFFCURVE",
"27 -39 OFFCURVE",
"27 -100 CURVE SMOOTH",
"27 -155 OFFCURVE",
"115 -188 OFFCURVE",
"212 -188 CURVE SMOOTH",
"400 -188 OFFCURVE",
"488 -78 OFFCURVE",
"488 14 CURVE SMOOTH",
"488 88 OFFCURVE",
"435 110 OFFCURVE",
"371 110 CURVE SMOOTH",
"164 110 LINE SMOOTH",
"130 110 OFFCURVE",
"108 113 OFFCURVE",
"108 143 CURVE SMOOTH",
"108 179 OFFCURVE",
"141 197 OFFCURVE",
"190 228 CURVE",
"178 237 LINE"
);
},
{
closed = 1;
nodes = (
"298 511 OFFCURVE",
"333 478 OFFCURVE",
"333 371 CURVE SMOOTH",
"333 264 OFFCURVE",
"298 231 OFFCURVE",
"242 231 CURVE SMOOTH",
"186 231 OFFCURVE",
"151 264 OFFCURVE",
"151 371 CURVE SMOOTH",
"151 478 OFFCURVE",
"186 511 OFFCURVE",
"242 511 CURVE SMOOTH"
);
},
{
closed = 1;
nodes = (
"137 529 OFFCURVE",
"57 481 OFFCURVE",
"57 371 CURVE SMOOTH",
"57 261 OFFCURVE",
"137 213 OFFCURVE",
"242 213 CURVE SMOOTH",
"347 213 OFFCURVE",
"427 261 OFFCURVE",
"427 371 CURVE SMOOTH",
"427 481 OFFCURVE",
"347 529 OFFCURVE",
"242 529 CURVE SMOOTH"
);
},
{
closed = 1;
nodes = (
"384 646 OFFCURVE",
"359 622 OFFCURVE",
"344 599 CURVE SMOOTH",
"330 578 OFFCURVE",
"317 549 OFFCURVE",
"311 510 CURVE",
"328 495 LINE",
"330 520 OFFCURVE",
"337 541 OFFCURVE",
"343 556 CURVE SMOOTH",
"349 570 OFFCURVE",
"356 582 OFFCURVE",
"364 585 CURVE",
"367 555 OFFCURVE",
"387 538 OFFCURVE",
"415 538 CURVE SMOOTH",
"449 538 OFFCURVE",
"469 563 OFFCURVE",
"469 593 CURVE SMOOTH",
"469 624 OFFCURVE",
"447 646 OFFCURVE",
"416 646 CURVE SMOOTH"
);
}
);
width = 505;
},
{
components = (
{
name = commaaccent;
transform = "{-1, 0, 0, -1, 388, 575}";
}
);
layerId = "39933D6F-F4A7-4C4E-8677-28C34DBED807";
name = Bold;
paths = (
{
closed = 1;
nodes = (
"71 187 OFFCURVE",
"32 148 OFFCURVE",
"32 78 CURVE SMOOTH",
"32 -10 OFFCURVE",
"112 -26 OFFCURVE",
"152 -26 CURVE SMOOTH",
"366 -26 LINE SMOOTH",
"401 -26 OFFCURVE",
"412 -38 OFFCURVE",
"412 -58 CURVE SMOOTH",
"412 -125 OFFCURVE",
"360 -171 OFFCURVE",
"282 -171 CURVE SMOOTH",
"222 -171 OFFCURVE",
"192 -141 OFFCURVE",
"192 -91 CURVE SMOOTH",
"192 -78 OFFCURVE",
"195 -43 OFFCURVE",
"207 -21 CURVE",
"188 -21 LINE",
"152 -78 OFFCURVE",
"20 -30 OFFCURVE",
"20 -105 CURVE SMOOTH",
"20 -144 OFFCURVE",
"71 -188 OFFCURVE",
"255 -188 CURVE SMOOTH",
"457 -188 OFFCURVE",
"551 -78 OFFCURVE",
"551 23 CURVE SMOOTH",
"551 112 OFFCURVE",
"483 140 OFFCURVE",
"404 140 CURVE SMOOTH",
"177 140 LINE SMOOTH",
"155 140 OFFCURVE",
"141 150 OFFCURVE",
"141 173 CURVE SMOOTH",
"141 197 OFFCURVE",
"159 209 OFFCURVE",
"190 229 CURVE",
"181 237 LINE"
);
},
{
closed = 1;
nodes = (
"307 515 OFFCURVE",
"326 480 OFFCURVE",
"326 373 CURVE SMOOTH",
"326 266 OFFCURVE",
"307 231 OFFCURVE",
"275 231 CURVE SMOOTH",
"243 231 OFFCURVE",
"224 266 OFFCURVE",
"224 373 CURVE SMOOTH",
"224 480 OFFCURVE",
"243 515 OFFCURVE",
"275 515 CURVE SMOOTH"
);
},
{
closed = 1;
nodes = (
"140 533 OFFCURVE",
"40 483 OFFCURVE",
"40 373 CURVE SMOOTH",
"40 263 OFFCURVE",
"140 213 OFFCURVE",
"275 213 CURVE SMOOTH",
"410 213 OFFCURVE",
"510 263 OFFCURVE",
"510 373 CURVE SMOOTH",
"510 483 OFFCURVE",
"410 533 OFFCURVE",
"275 533 CURVE SMOOTH"
);
},
{
closed = 1;
nodes = (
"405 670 OFFCURVE",
"372 612 OFFCURVE",
"372 538 CURVE SMOOTH",
"372 496 OFFCURVE",
"385 457 OFFCURVE",
"412 424 CURVE",
"426 437 LINE",
"402 465 OFFCURVE",
"393 504 OFFCURVE",
"393 538 CURVE SMOOTH",
"393 558 OFFCURVE",
"395 576 OFFCURVE",
"400 590 CURVE",
"417 557 OFFCURVE",
"442 538 OFFCURVE",
"489 538 CURVE SMOOTH",
"535 538 OFFCURVE",
"571 565 OFFCURVE",
"571 603 CURVE SMOOTH",
"571 646 OFFCURVE",
"532 670 OFFCURVE",
"485 670 CURVE SMOOTH"
);
}
);
width = 560;
}
);
leftKerningGroup = g;
rightKerningGroup = g;
unicode = 0123;
},
{
glyphname = gdotaccent;
lastChange = "2012-08-07 07:59:26 +0100";
layers = (
{
components = (
{
name = dotaccent;
transform = "{1, 0, 0, 1, 143, 0}";
}
);
layerId = UUID0;
name = Regular;
paths = (
{
closed = 1;
nodes = (
"82 187 OFFCURVE",
"49 148 OFFCURVE",
"49 101 CURVE SMOOTH",
"49 35 OFFCURVE",
"115 24 OFFCURVE",
"149 24 CURVE SMOOTH",
"353 24 LINE SMOOTH",
"412 24 OFFCURVE",
"429 7 OFFCURVE",
"429 -28 CURVE SMOOTH",
"429 -120 OFFCURVE",
"324 -171 OFFCURVE",
"237 -171 CURVE SMOOTH",
"177 -171 OFFCURVE",
"109 -142 OFFCURVE",
"109 -78 CURVE SMOOTH",
"109 -34 OFFCURVE",
"138 7 OFFCURVE",
"189 29 CURVE",
"177 34 LINE",
"103 5 OFFCURVE",
"27 -39 OFFCURVE",
"27 -100 CURVE SMOOTH",
"27 -155 OFFCURVE",
"115 -188 OFFCURVE",
"212 -188 CURVE SMOOTH",
"400 -188 OFFCURVE",
"488 -78 OFFCURVE",
"488 14 CURVE SMOOTH",
"488 88 OFFCURVE",
"435 110 OFFCURVE",
"371 110 CURVE SMOOTH",
"164 110 LINE SMOOTH",
"130 110 OFFCURVE",
"108 113 OFFCURVE",
"108 143 CURVE SMOOTH",
"108 179 OFFCURVE",
"141 197 OFFCURVE",
"190 228 CURVE",
"178 237 LINE"
);
},
{
closed = 1;
nodes = (
"298 511 OFFCURVE",
"333 478 OFFCURVE",
"333 371 CURVE SMOOTH",
"333 264 OFFCURVE",
"298 231 OFFCURVE",
"242 231 CURVE SMOOTH",
"186 231 OFFCURVE",
"151 264 OFFCURVE",
"151 371 CURVE SMOOTH",
"151 478 OFFCURVE",
"186 511 OFFCURVE",
"242 511 CURVE SMOOTH"
);
},
{
closed = 1;
nodes = (
"137 529 OFFCURVE",
"57 481 OFFCURVE",
"57 371 CURVE SMOOTH",
"57 261 OFFCURVE",
"137 213 OFFCURVE",
"242 213 CURVE SMOOTH",
"347 213 OFFCURVE",
"427 261 OFFCURVE",
"427 371 CURVE SMOOTH",
"427 481 OFFCURVE",
"347 529 OFFCURVE",
"242 529 CURVE SMOOTH"
);
},
{
closed = 1;
nodes = (
"384 646 OFFCURVE",
"359 622 OFFCURVE",
"344 599 CURVE SMOOTH",
"330 578 OFFCURVE",
"317 549 OFFCURVE",
"311 510 CURVE",
"328 495 LINE",
"330 520 OFFCURVE",
"337 541 OFFCURVE",
"343 556 CURVE SMOOTH",
"349 570 OFFCURVE",
"356 582 OFFCURVE",
"364 585 CURVE",
"367 555 OFFCURVE",
"387 538 OFFCURVE",
"415 538 CURVE SMOOTH",
"449 538 OFFCURVE",
"469 563 OFFCURVE",
"469 593 CURVE SMOOTH",
"469 624 OFFCURVE",
"447 646 OFFCURVE",
"416 646 CURVE SMOOTH"
);
}
);
width = 505;
},
{
components = (
{
name = dotaccent;
transform = "{1, 0, 0, 1, 186, 0}";
}
);
layerId = "39933D6F-F4A7-4C4E-8677-28C34DBED807";
name = Bold;
paths = (
{
closed = 1;
nodes = (
"71 187 OFFCURVE",
"32 148 OFFCURVE",
"32 78 CURVE SMOOTH",
"32 -10 OFFCURVE",
"112 -26 OFFCURVE",
"152 -26 CURVE SMOOTH",
"366 -26 LINE SMOOTH",
"401 -26 OFFCURVE",
"412 -38 OFFCURVE",
"412 -58 CURVE SMOOTH",
"412 -125 OFFCURVE",
"360 -171 OFFCURVE",
"282 -171 CURVE SMOOTH",
"222 -171 OFFCURVE",
"192 -141 OFFCURVE",
"192 -91 CURVE SMOOTH",
"192 -78 OFFCURVE",
"195 -43 OFFCURVE",
"207 -21 CURVE",
"188 -21 LINE",
"152 -78 OFFCURVE",
"20 -30 OFFCURVE",
"20 -105 CURVE SMOOTH",
"20 -144 OFFCURVE",
"71 -188 OFFCURVE",
"255 -188 CURVE SMOOTH",
"457 -188 OFFCURVE",
"551 -78 OFFCURVE",
"551 23 CURVE SMOOTH",
"551 112 OFFCURVE",
"483 140 OFFCURVE",
"404 140 CURVE SMOOTH",
"177 140 LINE SMOOTH",
"155 140 OFFCURVE",
"141 150 OFFCURVE",
"141 173 CURVE SMOOTH",
"141 197 OFFCURVE",
"159 209 OFFCURVE",
"190 229 CURVE",
"181 237 LINE"
);
},
{
closed = 1;
nodes = (
"307 515 OFFCURVE",
"326 480 OFFCURVE",
"326 373 CURVE SMOOTH",
"326 266 OFFCURVE",
"307 231 OFFCURVE",
"275 231 CURVE SMOOTH",
"243 231 OFFCURVE",
"224 266 OFFCURVE",
"224 373 CURVE SMOOTH",
"224 480 OFFCURVE",
"243 515 OFFCURVE",
"275 515 CURVE SMOOTH"
);
},
{
closed = 1;
nodes = (
"140 533 OFFCURVE",
"40 483 OFFCURVE",
"40 373 CURVE SMOOTH",
"40 263 OFFCURVE",
"140 213 OFFCURVE",
"275 213 CURVE SMOOTH",
"410 213 OFFCURVE",
"510 263 OFFCURVE",
"510 373 CURVE SMOOTH",
"510 483 OFFCURVE",
"410 533 OFFCURVE",
"275 533 CURVE SMOOTH"
);
},
{
closed = 1;
nodes = (
"412 682 OFFCURVE",
"374 621 OFFCURVE",
"374 550 CURVE SMOOTH",
"374 528 OFFCURVE",
"378 508 OFFCURVE",
"385 488 CURVE",
"404 494 LINE",
"399 512 OFFCURVE",
"395 532 OFFCURVE",
"395 550 CURVE SMOOTH",
"395 570 OFFCURVE",
"397 583 OFFCURVE",
"402 597 CURVE",
"411 548 OFFCURVE",
"449 530 OFFCURVE",
"491 530 CURVE SMOOTH",
"537 530 OFFCURVE",
"573 561 OFFCURVE",
"573 605 CURVE SMOOTH",
"573 654 OFFCURVE",
"534 682 OFFCURVE",
"487 682 CURVE SMOOTH"
);
}
);
width = 560;
}
);
leftKerningGroup = g;
rightKerningGroup = g;
unicode = 0121;
},
{
glyphname = h;
lastChange = "2012-10-25 11:28:34 +0100";
layers = (
{
anchors = (
{
name = "bar-left";
position = "{20, 608}";
},
{
name = center;
position = "{294, 257}";
},
{
name = top;
position = "{148, 772}";
}
);
layerId = UUID0;
name = Regular;
paths = (
{
closed = 1;
nodes = (
"157 773 OFFCURVE",
"121 769 OFFCURVE",
"82 769 CURVE SMOOTH",
"62 769 OFFCURVE",
"41 770 OFFCURVE",
"20 772 CURVE",
"20 751 LINE",
"78 751 OFFCURVE",
"96 723 OFFCURVE",
"96 663 CURVE SMOOTH",
"96 93 LINE SMOOTH",
"96 37 OFFCURVE",
"75 21 OFFCURVE",
"20 21 CURVE",
"20 0 LINE",
"43 1 OFFCURVE",
"96 4 OFFCURVE",
"140 4 CURVE SMOOTH",
"184 4 OFFCURVE",
"231 1 OFFCURVE",
"252 0 CURVE",
"252 21 LINE",
"204 21 OFFCURVE",
"186 37 OFFCURVE",
"186 93 CURVE SMOOTH",
"186 316 LINE SMOOTH",
"186 422 OFFCURVE",
"244 497 OFFCURVE",
"326 497 CURVE SMOOTH",
"398 497 OFFCURVE",
"407 444 OFFCURVE",
"407 382 CURVE SMOOTH",
"407 93 LINE SMOOTH",
"407 37 OFFCURVE",
"389 21 OFFCURVE",
"341 21 CURVE",
"341 0 LINE",
"362 1 OFFCURVE",
"409 4 OFFCURVE",
"453 4 CURVE SMOOTH",
"497 4 OFFCURVE",
"550 1 OFFCURVE",
"573 0 CURVE",
"573 21 LINE",
"518 21 OFFCURVE",
"497 37 OFFCURVE",
"497 93 CURVE SMOOTH",
"497 360 LINE SMOOTH",
"497 428 OFFCURVE",
"487 464 OFFCURVE",
"462 491 CURVE SMOOTH",
"439 515 OFFCURVE",
"407 529 OFFCURVE",
"356 529 CURVE SMOOTH",
"288 529 OFFCURVE",
"221 499 OFFCURVE",
"186 409 CURVE",
"186 783 LINE"
);
}
);
width = 588;
},
{
anchors = (
{
name = "bar-left";
position = "{21, 608}";
},
{
name = center;
position = "{311, 257}";
},
{
name = top;
position = "{149, 772}";
}
);
layerId = "39933D6F-F4A7-4C4E-8677-28C34DBED807";
name = Bold;
paths = (
{
closed = 1;
nodes = (
"204 772 OFFCURVE",
"147 768 OFFCURVE",
"80 768 CURVE SMOOTH",
"60 768 OFFCURVE",
"39 769 OFFCURVE",
"18 771 CURVE",
"18 750 LINE",
"60 750 OFFCURVE",
"74 722 OFFCURVE",
"74 662 CURVE SMOOTH",
"74 93 LINE SMOOTH",
"74 37 OFFCURVE",
"59 21 OFFCURVE",
"18 21 CURVE",
"18 0 LINE",
"47 1 OFFCURVE",
"112 4 OFFCURVE",
"168 4 CURVE SMOOTH",
"220 4 OFFCURVE",
"275 1 OFFCURVE",
"300 0 CURVE",
"300 21 LINE",
"266 21 OFFCURVE",
"254 37 OFFCURVE",
"254 93 CURVE SMOOTH",
"254 409 LINE SMOOTH",
"254 451 OFFCURVE",
"289 481 OFFCURVE",
"326 481 CURVE SMOOTH",
"361 481 OFFCURVE",
"375 460 OFFCURVE",
"375 418 CURVE SMOOTH",
"375 93 LINE SMOOTH",
"375 37 OFFCURVE",
"363 21 OFFCURVE",
"329 21 CURVE",
"329 0 LINE",
"356 1 OFFCURVE",
"415 4 OFFCURVE",
"471 4 CURVE SMOOTH",
"523 4 OFFCURVE",
"584 1 OFFCURVE",
"611 0 CURVE",
"611 21 LINE",
"570 21 OFFCURVE",
"555 37 OFFCURVE",
"555 93 CURVE SMOOTH",
"555 364 LINE SMOOTH",
"555 432 OFFCURVE",
"546 469 OFFCURVE",
"526 493 CURVE SMOOTH",
"507 516 OFFCURVE",
"474 533 OFFCURVE",
"413 533 CURVE SMOOTH",
"341 533 OFFCURVE",
"286 511 OFFCURVE",
"254 458 CURVE",
"254 782 LINE"
);
}
);
width = 622;
}
);
leftKerningGroup = l;
rightKerningGroup = n;
unicode = 0068;
},
{
glyphname = hbar;
lastChange = "2012-10-25 11:27:45 +0100";
layers = (
{
components = (
{
name = h;
transform = "{1, 0, 0, 1, 0, 0}";
}
);
layerId = UUID0;
name = Regular;
paths = (
{
closed = 1;
nodes = (
"10 628 LINE",
"10 608 LINE",
"364 608 LINE",
"364 628 LINE"
);
}
);
width = 588;
},
{
components = (
{
name = h;
transform = "{1, 0, 0, 1, 0, 0}";
}
);
layerId = "39933D6F-F4A7-4C4E-8677-28C34DBED807";
name = Bold;
paths = (
{
closed = 1;
nodes = (
"8 628 LINE",
"8 608 LINE",
"395 608 LINE",
"395 628 LINE"
);
}
);
width = 622;
}
);
leftKerningGroup = l;
rightKerningGroup = n;
unicode = 0127;
},
{
glyphname = dotlessi;
lastChange = "2012-09-30 10:14:45 +0100";
layers = (
{
anchors = (
{
name = bottom;
position = "{150, 0}";
},
{
name = ogonek;
position = "{261, 0}";
},
{
name = top;
position = "{141, 514}";
}
);
layerId = UUID0;
name = Regular;
paths = (
{
closed = 1;
nodes = (
"166 516 OFFCURVE",
"130 512 OFFCURVE",
"91 512 CURVE SMOOTH",
"71 512 OFFCURVE",
"50 513 OFFCURVE",
"29 515 CURVE",
"29 494 LINE",
"87 494 OFFCURVE",
"105 466 OFFCURVE",
"105 406 CURVE SMOOTH",
"105 93 LINE SMOOTH",
"105 37 OFFCURVE",
"84 21 OFFCURVE",
"29 21 CURVE",
"29 0 LINE",
"52 1 OFFCURVE",
"104 4 OFFCURVE",
"150 4 CURVE SMOOTH",
"196 4 OFFCURVE",
"248 1 OFFCURVE",
"271 0 CURVE",
"271 21 LINE",
"216 21 OFFCURVE",
"195 37 OFFCURVE",
"195 93 CURVE SMOOTH",
"195 526 LINE"
);
}
);
width = 293;
},
{
anchors = (
{
name = bottom;
position = "{163, 0}";
},
{
name = ogonek;
position = "{291, 0}";
},
{
name = top;
position = "{168, 514}";
}
);
layerId = "39933D6F-F4A7-4C4E-8677-28C34DBED807";
name = Bold;
paths = (
{
closed = 1;
nodes = (
"207 520 OFFCURVE",
"150 516 OFFCURVE",
"83 516 CURVE SMOOTH",
"63 516 OFFCURVE",
"42 517 OFFCURVE",
"21 519 CURVE",
"21 498 LINE",
"63 498 OFFCURVE",
"77 470 OFFCURVE",
"77 410 CURVE SMOOTH",
"77 93 LINE SMOOTH",
"77 37 OFFCURVE",
"62 21 OFFCURVE",
"21 21 CURVE",
"21 0 LINE",
"50 1 OFFCURVE",
"115 4 OFFCURVE",
"171 4 CURVE SMOOTH",
"227 4 OFFCURVE",
"286 1 OFFCURVE",
"313 0 CURVE",
"313 21 LINE",
"272 21 OFFCURVE",
"257 37 OFFCURVE",
"257 93 CURVE SMOOTH",
"257 530 LINE"
);
}
);
width = 330;
}
);
leftKerningGroup = i;
rightKerningGroup = i;
unicode = 0131;
},
{
glyphname = ij;
lastChange = "2012-10-03 11:39:24 +0100";
layers = (
{
components = (
{
name = dotaccent;
transform = "{1, 0, 0, 1, 24, 0}";
},
{
name = dotaccent;
transform = "{1, 0, 0, 1, 328, 0}";
}
);
layerId = UUID0;
name = Regular;
paths = (
{
closed = 1;
nodes = (
"454 516 OFFCURVE",
"418 512 OFFCURVE",
"379 512 CURVE SMOOTH",
"359 512 OFFCURVE",
"338 513 OFFCURVE",
"317 515 CURVE",
"317 494 LINE",
"375 494 OFFCURVE",
"393 466 OFFCURVE",
"393 406 CURVE SMOOTH",
"393 199 LINE SMOOTH",
"393 97 OFFCURVE",
"341 18 OFFCURVE",
"258 18 CURVE SMOOTH",
"186 18 OFFCURVE",
"182 71 OFFCURVE",
"182 133 CURVE SMOOTH",
"182 526 LINE",
"153 516 OFFCURVE",
"117 512 OFFCURVE",
"78 512 CURVE SMOOTH",
"58 512 OFFCURVE",
"37 513 OFFCURVE",
"16 515 CURVE",
"16 494 LINE",
"74 494 OFFCURVE",
"92 466 OFFCURVE",
"92 406 CURVE SMOOTH",
"92 155 LINE SMOOTH",
"92 92 OFFCURVE",
"100 51 OFFCURVE",
"125 24 CURVE SMOOTH",
"148 0 OFFCURVE",
"182 -14 OFFCURVE",
"229 -14 CURVE SMOOTH",
"312 -14 OFFCURVE",
"369 35 OFFCURVE",
"393 113 CURVE",
"393 -46 LINE SMOOTH",
"393 -136 OFFCURVE",
"371 -173 OFFCURVE",
"314 -173 CURVE SMOOTH",
"309 -173 OFFCURVE",
"303 -173 OFFCURVE",
"297 -172 CURVE",
"321 -162 OFFCURVE",
"331 -147 OFFCURVE",
"331 -127 CURVE SMOOTH",
"331 -99 OFFCURVE",
"311 -83 OFFCURVE",
"284 -83 CURVE SMOOTH",
"253 -83 OFFCURVE",
"235 -103 OFFCURVE",
"235 -132 CURVE SMOOTH",
"235 -167 OFFCURVE",
"262 -188 OFFCURVE",
"316 -188 CURVE SMOOTH",
"454 -188 OFFCURVE",
"483 -48 OFFCURVE",
"483 115 CURVE SMOOTH",
"483 526 LINE"
);
}
);
width = 562;
},
{
components = (
{
name = dotaccent;
transform = "{1, 0, 0, 1, 52, 0}";
},
{
name = dotaccent;
transform = "{1, 0, 0, 1, 354, 0}";
}
);
layerId = "39933D6F-F4A7-4C4E-8677-28C34DBED807";
name = Bold;
paths = (
{
closed = 1;
nodes = (
"498 520 OFFCURVE",
"441 516 OFFCURVE",
"374 516 CURVE SMOOTH",
"354 516 OFFCURVE",
"333 517 OFFCURVE",
"312 519 CURVE",
"312 498 LINE",
"354 498 OFFCURVE",
"368 470 OFFCURVE",
"368 410 CURVE SMOOTH",
"368 110 LINE SMOOTH",
"368 68 OFFCURVE",
"333 38 OFFCURVE",
"296 38 CURVE SMOOTH",
"261 38 OFFCURVE",
"247 59 OFFCURVE",
"247 101 CURVE SMOOTH",
"247 530 LINE",
"197 520 OFFCURVE",
"140 516 OFFCURVE",
"73 516 CURVE SMOOTH",
"53 516 OFFCURVE",
"32 517 OFFCURVE",
"11 519 CURVE",
"11 498 LINE",
"53 498 OFFCURVE",
"67 470 OFFCURVE",
"67 410 CURVE SMOOTH",
"67 155 LINE SMOOTH",
"67 87 OFFCURVE",
"76 50 OFFCURVE",
"96 26 CURVE SMOOTH",
"115 3 OFFCURVE",
"148 -14 OFFCURVE",
"209 -14 CURVE SMOOTH",
"281 -14 OFFCURVE",
"336 8 OFFCURVE",
"368 61 CURVE",
"368 -45 LINE SMOOTH",
"368 -130 OFFCURVE",
"347 -169 OFFCURVE",
"282 -169 CURVE SMOOTH",
"277 -169 OFFCURVE",
"270 -169 OFFCURVE",
"258 -168 CURVE",
"297 -159 OFFCURVE",
"326 -136 OFFCURVE",
"326 -102 CURVE SMOOTH",
"326 -59 OFFCURVE",
"280 -37 OFFCURVE",
"222 -37 CURVE SMOOTH",
"153 -37 OFFCURVE",
"118 -70 OFFCURVE",
"118 -106 CURVE SMOOTH",
"118 -167 OFFCURVE",
"188 -188 OFFCURVE",
"273 -188 CURVE SMOOTH",
"480 -188 OFFCURVE",
"548 -102 OFFCURVE",
"548 83 CURVE SMOOTH",
"548 530 LINE"
);
}
);
width = 610;
}
);
leftKerningGroup = u;
rightKerningGroup = j;
unicode = 0133;
},
{
glyphname = imacron;
lastChange = "2012-08-07 07:59:26 +0100";
layers = (
{
components = (
{
name = dotlessi;
transform = "{1, 0, 0, 1, 0, 0}";
}
);
layerId = UUID0;
name = Regular;
paths = (
{
closed = 1;
nodes = (
"-11 712 LINE",
"-11 687 LINE",
"281 687 LINE",
"281 712 LINE"
);
}
);
width = 293;
},
{
components = (
{
name = dotlessi;
transform = "{1, 0, 0, 1, 0, 0}";
}
);
layerId = "39933D6F-F4A7-4C4E-8677-28C34DBED807";
name = Bold;
paths = (
{
closed = 1;
nodes = (
"-9 712 LINE",
"-9 687 LINE",
"323 687 LINE",
"323 712 LINE"
);
}
);
width = 330;
}
);
leftKerningGroup = i;
rightKerningGroup = i;
unicode = 012B;
},
{
glyphname = j;
lastChange = "2012-10-16 17:01:43 +0100";
layers = (
{
anchors = (
{
name = top;
position = "{134, 514}";
}
);
layerId = UUID0;
name = Regular;
paths = (
{
closed = 1;
nodes = (
"159 516 OFFCURVE",
"123 512 OFFCURVE",
"84 512 CURVE SMOOTH",
"64 512 OFFCURVE",
"43 513 OFFCURVE",
"22 515 CURVE",
"22 494 LINE",
"80 494 OFFCURVE",
"98 466 OFFCURVE",
"98 406 CURVE SMOOTH",
"98 -65 LINE SMOOTH",
"98 -106 OFFCURVE",
"89 -133 OFFCURVE",
"75 -150 CURVE SMOOTH",
"60 -166 OFFCURVE",
"41 -173 OFFCURVE",
"19 -173 CURVE SMOOTH",
"14 -173 OFFCURVE",
"8 -173 OFFCURVE",
"2 -172 CURVE",
"27 -163 OFFCURVE",
"40 -146 OFFCURVE",
"40 -124 CURVE SMOOTH",
"40 -90 OFFCURVE",
"18 -75 OFFCURVE",
"-12 -75 CURVE SMOOTH",
"-43 -75 OFFCURVE",
"-64 -96 OFFCURVE",
"-64 -127 CURVE SMOOTH",
"-64 -147 OFFCURVE",
"-56 -162 OFFCURVE",
"-42 -173 CURVE SMOOTH",
"-28 -183 OFFCURVE",
"-8 -188 OFFCURVE",
"14 -188 CURVE SMOOTH",
"56 -188 OFFCURVE",
"103 -168 OFFCURVE",
"135 -127 CURVE SMOOTH",
"180 -70 OFFCURVE",
"188 23 OFFCURVE",
"188 115 CURVE SMOOTH",
"188 526 LINE"
);
},
{
closed = 1;
nodes = (
"98 760 OFFCURVE",
"69 731 OFFCURVE",
"69 696 CURVE SMOOTH",
"69 661 OFFCURVE",
"98 632 OFFCURVE",
"133 632 CURVE SMOOTH",
"168 632 OFFCURVE",
"197 661 OFFCURVE",
"197 696 CURVE SMOOTH",
"197 731 OFFCURVE",
"168 760 OFFCURVE",
"133 760 CURVE SMOOTH"
);
}
);
width = 267;
},
{
anchors = (
{
name = top;
position = "{166, 514}";
}
);
layerId = "39933D6F-F4A7-4C4E-8677-28C34DBED807";
name = Bold;
paths = (
{
closed = 1;
nodes = (
"204 520 OFFCURVE",
"147 516 OFFCURVE",
"80 516 CURVE SMOOTH",
"60 516 OFFCURVE",
"39 517 OFFCURVE",
"18 519 CURVE",
"18 498 LINE",
"60 498 OFFCURVE",
"74 470 OFFCURVE",
"74 410 CURVE SMOOTH",
"74 80 LINE SMOOTH",
"74 -53 OFFCURVE",
"74 -106 OFFCURVE",
"56 -136 CURVE SMOOTH",
"43 -157 OFFCURVE",
"16 -168 OFFCURVE",
"-11 -168 CURVE SMOOTH",
"-19 -168 OFFCURVE",
"-29 -167 OFFCURVE",
"-38 -166 CURVE",
"3 -151 OFFCURVE",
"20 -120 OFFCURVE",
"20 -91 CURVE SMOOTH",
"20 -42 OFFCURVE",
"-15 -17 OFFCURVE",
"-70 -17 CURVE SMOOTH",
"-129 -17 OFFCURVE",
"-168 -47 OFFCURVE",
"-168 -94 CURVE SMOOTH",
"-168 -126 OFFCURVE",
"-149 -154 OFFCURVE",
"-117 -168 CURVE SMOOTH",
"-79 -185 OFFCURVE",
"-41 -188 OFFCURVE",
"-6 -188 CURVE SMOOTH",
"92 -188 OFFCURVE",
"150 -167 OFFCURVE",
"183 -138 CURVE SMOOTH",
"235 -93 OFFCURVE",
"254 -38 OFFCURVE",
"254 80 CURVE SMOOTH",
"254 530 LINE"
);
},
{
closed = 1;
nodes = (
"91 782 OFFCURVE",
"52 753 OFFCURVE",
"52 696 CURVE SMOOTH",
"52 639 OFFCURVE",
"91 610 OFFCURVE",
"161 610 CURVE SMOOTH",
"230 610 OFFCURVE",
"270 639 OFFCURVE",
"270 696 CURVE SMOOTH",
"270 753 OFFCURVE",
"230 782 OFFCURVE",
"161 782 CURVE SMOOTH"
);
}
);
width = 317;
}
);
leftKerningGroup = j;
rightKerningGroup = j;
unicode = 006A;
},
{
glyphname = dotlessj;
lastChange = "2012-08-07 07:59:26 +0100";
layers = (
{
anchors = (
{
name = top;
position = "{134, 514}";
}
);
layerId = UUID0;
name = Regular;
paths = (
{
closed = 1;
nodes = (
"159 516 OFFCURVE",
"123 512 OFFCURVE",
"84 512 CURVE SMOOTH",
"64 512 OFFCURVE",
"43 513 OFFCURVE",
"22 515 CURVE",
"22 494 LINE",
"80 494 OFFCURVE",
"98 466 OFFCURVE",
"98 406 CURVE SMOOTH",
"98 -65 LINE SMOOTH",
"98 -106 OFFCURVE",
"89 -133 OFFCURVE",
"75 -150 CURVE",
"60 -166 OFFCURVE",
"41 -173 OFFCURVE",
"19 -173 CURVE SMOOTH",
"14 -173 OFFCURVE",
"8 -173 OFFCURVE",
"2 -172 CURVE",
"27 -163 OFFCURVE",
"40 -146 OFFCURVE",
"40 -124 CURVE SMOOTH",
"40 -90 OFFCURVE",
"18 -75 OFFCURVE",
"-12 -75 CURVE SMOOTH",
"-43 -75 OFFCURVE",
"-64 -96 OFFCURVE",
"-64 -127 CURVE SMOOTH",
"-64 -147 OFFCURVE",
"-56 -162 OFFCURVE",
"-42 -173 CURVE SMOOTH",
"-28 -183 OFFCURVE",
"-8 -188 OFFCURVE",
"14 -188 CURVE SMOOTH",
"56 -188 OFFCURVE",
"103 -168 OFFCURVE",
"135 -127 CURVE SMOOTH",
"180 -70 OFFCURVE",
"188 23 OFFCURVE",
"188 115 CURVE SMOOTH",
"188 526 LINE"
);
}
);
width = 267;
},
{
anchors = (
{
name = top;
position = "{153, 514}";
}
);
layerId = "39933D6F-F4A7-4C4E-8677-28C34DBED807";
name = Bold;
paths = (
{
closed = 1;
nodes = (
"204 520 OFFCURVE",
"147 516 OFFCURVE",
"80 516 CURVE SMOOTH",
"60 516 OFFCURVE",
"39 517 OFFCURVE",
"18 519 CURVE",
"18 498 LINE",
"60 498 OFFCURVE",
"74 470 OFFCURVE",
"74 410 CURVE SMOOTH",
"74 80 LINE SMOOTH",
"74 -53 OFFCURVE",
"74 -106 OFFCURVE",
"56 -136 CURVE SMOOTH",
"43 -157 OFFCURVE",
"16 -168 OFFCURVE",
"-11 -168 CURVE SMOOTH",
"-19 -168 OFFCURVE",
"-29 -167 OFFCURVE",
"-38 -166 CURVE",
"3 -151 OFFCURVE",
"20 -120 OFFCURVE",
"20 -91 CURVE SMOOTH",
"20 -42 OFFCURVE",
"-15 -17 OFFCURVE",
"-70 -17 CURVE SMOOTH",
"-129 -17 OFFCURVE",
"-168 -47 OFFCURVE",
"-168 -94 CURVE SMOOTH",
"-168 -126 OFFCURVE",
"-149 -154 OFFCURVE",
"-117 -168 CURVE SMOOTH",
"-79 -185 OFFCURVE",
"-41 -188 OFFCURVE",
"-6 -188 CURVE SMOOTH",
"92 -188 OFFCURVE",
"150 -167 OFFCURVE",
"183 -138 CURVE SMOOTH",
"235 -93 OFFCURVE",
"254 -38 OFFCURVE",
"254 80 CURVE SMOOTH",
"254 530 LINE"
);
}
);
width = 317;
}
);
leftKerningGroup = j;
rightKerningGroup = j;
unicode = 0237;
},
{
glyphname = k;
lastChange = "2012-10-25 11:42:13 +0100";
layers = (
{
anchors = (
{
name = bottom;
position = "{281, 0}";
},
{
name = top;
position = "{147, 782}";
}
);
layerId = UUID0;
name = Regular;
paths = (
{
closed = 1;
nodes = (
"157 774 OFFCURVE",
"121 770 OFFCURVE",
"82 770 CURVE SMOOTH",
"62 770 OFFCURVE",
"41 771 OFFCURVE",
"20 773 CURVE",
"20 752 LINE",
"78 752 OFFCURVE",
"96 724 OFFCURVE",
"96 664 CURVE SMOOTH",
"96 93 LINE SMOOTH",
"96 37 OFFCURVE",
"75 21 OFFCURVE",
"20 21 CURVE",
"20 0 LINE",
"43 1 OFFCURVE",
"95 4 OFFCURVE",
"141 4 CURVE SMOOTH",
"183 4 OFFCURVE",
"231 1 OFFCURVE",
"252 0 CURVE",
"252 21 LINE",
"204 21 OFFCURVE",
"186 37 OFFCURVE",
"186 93 CURVE SMOOTH",
"186 784 LINE"
);
},
{
closed = 1;
nodes = (
"484 513 OFFCURVE",
"450 511 OFFCURVE",
"417 511 CURVE SMOOTH",
"388 511 OFFCURVE",
"339 513 OFFCURVE",
"304 515 CURVE",
"304 495 LINE",
"369 495 OFFCURVE",
"409 472 OFFCURVE",
"346 406 CURVE SMOOTH",
"272 329 LINE SMOOTH",
"248 304 OFFCURVE",
"224 292 OFFCURVE",
"182 287 CURVE",
"182 267 LINE",
"220 266 OFFCURVE",
"236 259 OFFCURVE",
"261 223 CURVE SMOOTH",
"376 55 LINE SMOOTH",
"390 36 OFFCURVE",
"378 21 OFFCURVE",
"351 21 CURVE",
"351 0 LINE",
"372 1 OFFCURVE",
"420 4 OFFCURVE",
"462 4 CURVE SMOOTH",
"492 4 OFFCURVE",
"528 1 OFFCURVE",
"543 0 CURVE",
"543 21 LINE",
"513 25 OFFCURVE",
"496 42 OFFCURVE",
"473 73 CURVE SMOOTH",
"287 328 LINE",
"273 300 LINE",
"414 448 LINE SMOOTH",
"442 477 OFFCURVE",
"471 492 OFFCURVE",
"504 495 CURVE",
"504 515 LINE"
);
}
);
width = 550;
},
{
anchors = (
{
name = bottom;
position = "{349, 0}";
},
{
name = top;
position = "{215, 782}";
}
);
layerId = "39933D6F-F4A7-4C4E-8677-28C34DBED807";
name = Bold;
paths = (
{
closed = 1;
nodes = (
"204 772 OFFCURVE",
"147 768 OFFCURVE",
"80 768 CURVE SMOOTH",
"60 768 OFFCURVE",
"39 769 OFFCURVE",
"18 771 CURVE",
"18 750 LINE",
"60 750 OFFCURVE",
"74 722 OFFCURVE",
"74 662 CURVE SMOOTH",
"74 93 LINE SMOOTH",
"74 37 OFFCURVE",
"59 21 OFFCURVE",
"18 21 CURVE",
"18 0 LINE",
"47 1 OFFCURVE",
"112 4 OFFCURVE",
"168 4 CURVE SMOOTH",
"224 4 OFFCURVE",
"283 1 OFFCURVE",
"310 0 CURVE",
"310 21 LINE",
"269 21 OFFCURVE",
"254 37 OFFCURVE",
"254 93 CURVE SMOOTH",
"254 782 LINE"
);
},
{
closed = 1;
nodes = (
"560 517 OFFCURVE",
"490 516 OFFCURVE",
"449 516 CURVE SMOOTH",
"417 516 OFFCURVE",
"367 517 OFFCURVE",
"329 519 CURVE",
"329 499 LINE",
"401 493 OFFCURVE",
"443 433 OFFCURVE",
"374 369 CURVE SMOOTH",
"297 297 LINE SMOOTH",
"284 284 OFFCURVE",
"267 282 OFFCURVE",
"249 282 CURVE",
"249 263 LINE",
"265 263 OFFCURVE",
"277 259 OFFCURVE",
"286 241 CURVE SMOOTH",
"374 55 LINE SMOOTH",
"384 34 OFFCURVE",
"376 21 OFFCURVE",
"349 21 CURVE",
"349 0 LINE",
"376 1 OFFCURVE",
"436 4 OFFCURVE",
"490 4 CURVE SMOOTH",
"536 4 OFFCURVE",
"588 1 OFFCURVE",
"611 0 CURVE",
"611 21 LINE",
"592 31 OFFCURVE",
"582 53 OFFCURVE",
"571 73 CURVE SMOOTH",
"410 379 LINE",
"403 366 LINE",
"438 401 LINE SMOOTH",
"488 451 OFFCURVE",
"538 486 OFFCURVE",
"586 499 CURVE",
"586 519 LINE"
);
}
);
width = 609;
}
);
leftKerningGroup = l;
rightKerningGroup = k;
unicode = 006B;
},
{
glyphname = kgreenlandic;
lastChange = "2012-08-08 13:42:22 +0100";
layers = (
{
layerId = UUID0;
name = Regular;
paths = (
{
closed = 1;
nodes = (
"506 513 OFFCURVE",
"485 512 OFFCURVE",
"456 512 CURVE SMOOTH",
"427 512 OFFCURVE",
"388 513 OFFCURVE",
"353 515 CURVE",
"353 495 LINE",
"405 495 OFFCURVE",
"421 472 OFFCURVE",
"392 440 CURVE SMOOTH",
"273 309 LINE SMOOTH",
"249 284 OFFCURVE",
"230 270 OFFCURVE",
"191 264 CURVE",
"191 244 LINE",
"212 244 OFFCURVE",
"229 230 OFFCURVE",
"251 203 CURVE SMOOTH",
"385 55 LINE SMOOTH",
"401 38 OFFCURVE",
"387 21 OFFCURVE",
"360 21 CURVE",
"360 0 LINE",
"381 1 OFFCURVE",
"429 4 OFFCURVE",
"471 4 CURVE SMOOTH",
"501 4 OFFCURVE",
"537 1 OFFCURVE",
"552 0 CURVE",
"552 21 LINE",
"529 25 OFFCURVE",
"505 50 OFFCURVE",
"481 76 CURVE SMOOTH",
"287 288 LINE",
"433 448 LINE SMOOTH",
"467 486 OFFCURVE",
"490 492 OFFCURVE",
"523 495 CURVE",
"523 515 LINE"
);
},
{
closed = 1;
nodes = (
"166 516 OFFCURVE",
"130 512 OFFCURVE",
"91 512 CURVE SMOOTH",
"71 512 OFFCURVE",
"50 513 OFFCURVE",
"29 515 CURVE",
"29 494 LINE",
"87 494 OFFCURVE",
"105 466 OFFCURVE",
"105 406 CURVE SMOOTH",
"105 93 LINE SMOOTH",
"105 37 OFFCURVE",
"84 21 OFFCURVE",
"29 21 CURVE",
"29 0 LINE",
"52 1 OFFCURVE",
"104 4 OFFCURVE",
"150 4 CURVE SMOOTH",
"192 4 OFFCURVE",
"240 1 OFFCURVE",
"261 0 CURVE",
"261 21 LINE",
"213 21 OFFCURVE",
"195 37 OFFCURVE",
"195 93 CURVE SMOOTH",
"195 526 LINE"
);
}
);
width = 563;
},
{
layerId = "39933D6F-F4A7-4C4E-8677-28C34DBED807";
name = Bold;
paths = (
{
closed = 1;
nodes = (
"563 517 OFFCURVE",
"523 516 OFFCURVE",
"482 516 CURVE SMOOTH",
"453 516 OFFCURVE",
"414 517 OFFCURVE",
"379 519 CURVE",
"379 499 LINE",
"442 496 OFFCURVE",
"460 458 OFFCURVE",
"427 418 CURVE SMOOTH",
"351 329 LINE SMOOTH",
"324 296 OFFCURVE",
"299 278 OFFCURVE",
"252 277 CURVE",
"252 258 LINE",
"268 258 OFFCURVE",
"280 254 OFFCURVE",
"289 236 CURVE SMOOTH",
"387 55 LINE SMOOTH",
"397 34 OFFCURVE",
"389 21 OFFCURVE",
"362 21 CURVE",
"362 0 LINE",
"387 1 OFFCURVE",
"443 4 OFFCURVE",
"493 4 CURVE SMOOTH",
"539 4 OFFCURVE",
"591 1 OFFCURVE",
"614 0 CURVE",
"614 21 LINE",
"592 25 OFFCURVE",
"579 42 OFFCURVE",
"564 73 CURVE SMOOTH",
"411 358 LINE",
"486 450 LINE SMOOTH",
"510 480 OFFCURVE",
"535 493 OFFCURVE",
"589 499 CURVE",
"589 519 LINE"
);
},
{
closed = 1;
nodes = (
"207 520 OFFCURVE",
"150 516 OFFCURVE",
"83 516 CURVE SMOOTH",
"63 516 OFFCURVE",
"42 517 OFFCURVE",
"21 519 CURVE",
"21 498 LINE",
"63 498 OFFCURVE",
"77 470 OFFCURVE",
"77 410 CURVE SMOOTH",
"77 93 LINE SMOOTH",
"77 37 OFFCURVE",
"62 21 OFFCURVE",
"21 21 CURVE",
"21 0 LINE",
"50 1 OFFCURVE",
"115 4 OFFCURVE",
"171 4 CURVE SMOOTH",
"227 4 OFFCURVE",
"286 1 OFFCURVE",
"313 0 CURVE",
"313 21 LINE",
"272 21 OFFCURVE",
"257 37 OFFCURVE",
"257 93 CURVE SMOOTH",
"257 530 LINE"
);
}
);
width = 609;
}
);
leftKerningGroup = i;
rightKerningGroup = k;
unicode = 0138;
},
{
glyphname = l;
lastChange = "2012-10-25 11:26:54 +0100";
layers = (
{
anchors = (
{
name = bottom;
position = "{143, 0}";
},
{
name = right;
position = "{249, 515}";
},
{
name = top;
position = "{143, 772}";
},
{
name = topright;
position = "{266, 514}";
}
);
layerId = UUID0;
name = Regular;
paths = (
{
closed = 1;
nodes = (
"159 774 OFFCURVE",
"123 770 OFFCURVE",
"84 770 CURVE SMOOTH",
"64 770 OFFCURVE",
"43 771 OFFCURVE",
"22 773 CURVE",
"22 752 LINE",
"80 752 OFFCURVE",
"98 724 OFFCURVE",
"98 664 CURVE SMOOTH",
"98 93 LINE SMOOTH",
"98 37 OFFCURVE",
"77 21 OFFCURVE",
"22 21 CURVE",
"22 0 LINE",
"45 1 OFFCURVE",
"97 4 OFFCURVE",
"143 4 CURVE SMOOTH",
"189 4 OFFCURVE",
"241 1 OFFCURVE",
"264 0 CURVE",
"264 21 LINE",
"209 21 OFFCURVE",
"188 37 OFFCURVE",
"188 93 CURVE SMOOTH",
"188 784 LINE"
);
}
);
width = 286;
},
{
anchors = (
{
name = bottom;
position = "{162, 0}";
},
{
name = right;
position = "{268, 515}";
},
{
name = top;
position = "{162, 772}";
},
{
name = topright;
position = "{308, 514}";
}
);
layerId = "39933D6F-F4A7-4C4E-8677-28C34DBED807";
name = Bold;
paths = (
{
closed = 1;
nodes = (
"204 772 OFFCURVE",
"147 768 OFFCURVE",
"80 768 CURVE SMOOTH",
"60 768 OFFCURVE",
"39 769 OFFCURVE",
"18 771 CURVE",
"18 750 LINE",
"60 750 OFFCURVE",
"74 722 OFFCURVE",
"74 662 CURVE SMOOTH",
"74 93 LINE SMOOTH",
"74 37 OFFCURVE",
"59 21 OFFCURVE",
"18 21 CURVE",
"18 0 LINE",
"47 1 OFFCURVE",
"112 4 OFFCURVE",
"168 4 CURVE SMOOTH",
"224 4 OFFCURVE",
"283 1 OFFCURVE",
"310 0 CURVE",
"310 21 LINE",
"269 21 OFFCURVE",
"254 37 OFFCURVE",
"254 93 CURVE SMOOTH",
"254 782 LINE"
);
}
);
width = 328;
}
);
leftKerningGroup = l;
rightKerningGroup = l;
unicode = 006C;
},
{
glyphname = lslash;
lastChange = "2012-08-10 07:41:40 +0100";
layers = (
{
components = (
{
name = l;
transform = "{1, 0, 0, 1, 0, 0}";
}
);
layerId = UUID0;
name = Regular;
paths = (
{
closed = 1;
nodes = (
"144 392 LINE",
"144 362 LINE",
"301 499 LINE",
"301 529 LINE"
);
},
{
closed = 1;
nodes = (
"-15 264 LINE",
"-15 234 LINE",
"144 372 LINE",
"144 402 LINE"
);
}
);
width = 286;
},
{
components = (
{
name = l;
transform = "{1, 0, 0, 1, 0, 0}";
}
);
layerId = "39933D6F-F4A7-4C4E-8677-28C34DBED807";
name = Bold;
paths = (
{
closed = 1;
nodes = (
"163 372 LINE",
"163 342 LINE",
"340 498 LINE",
"340 528 LINE"
);
},
{
closed = 1;
nodes = (
"-12 272 LINE",
"-12 242 LINE",
"163 394 LINE",
"163 424 LINE"
);
}
);
width = 328;
}
);
leftKerningGroup = l;
rightKerningGroup = l;
unicode = 0142;
},
{
glyphname = m;
lastChange = "2012-08-07 07:59:26 +0100";
layers = (
{
layerId = UUID0;
name = Regular;
paths = (
{
closed = 1;
nodes = (
"295 529 OFFCURVE",
"229 495 OFFCURVE",
"195 408 CURVE",
"195 526 LINE",
"166 516 OFFCURVE",
"130 512 OFFCURVE",
"91 512 CURVE SMOOTH",
"71 512 OFFCURVE",
"50 513 OFFCURVE",
"29 515 CURVE",
"29 494 LINE",
"87 494 OFFCURVE",
"105 466 OFFCURVE",
"105 406 CURVE SMOOTH",
"105 93 LINE SMOOTH",
"105 37 OFFCURVE",
"84 21 OFFCURVE",
"29 21 CURVE",
"29 0 LINE",
"52 1 OFFCURVE",
"105 4 OFFCURVE",
"149 4 CURVE SMOOTH",
"193 4 OFFCURVE",
"240 1 OFFCURVE",
"261 0 CURVE",
"261 21 LINE",
"213 21 OFFCURVE",
"195 37 OFFCURVE",
"195 93 CURVE SMOOTH",
"195 315 LINE SMOOTH",
"195 417 OFFCURVE",
"252 497 OFFCURVE",
"330 497 CURVE SMOOTH",
"402 497 OFFCURVE",
"406 444 OFFCURVE",
"406 382 CURVE SMOOTH",
"406 93 LINE SMOOTH",
"406 37 OFFCURVE",
"388 21 OFFCURVE",
"340 21 CURVE",
"340 0 LINE",
"361 1 OFFCURVE",
"408 4 OFFCURVE",
"452 4 CURVE SMOOTH",
"496 4 OFFCURVE",
"549 1 OFFCURVE",
"572 0 CURVE",
"572 21 LINE",
"517 21 OFFCURVE",
"496 37 OFFCURVE",
"496 93 CURVE SMOOTH",
"496 360 LINE SMOOTH",
"496 423 OFFCURVE",
"488 464 OFFCURVE",
"463 491 CURVE SMOOTH",
"440 515 OFFCURVE",
"406 529 OFFCURVE",
"359 529 CURVE SMOOTH"
);
},
{
closed = 1;
nodes = (
"596 529 OFFCURVE",
"529 501 OFFCURVE",
"493 409 CURVE",
"496 316 LINE",
"496 418 OFFCURVE",
"553 497 OFFCURVE",
"631 497 CURVE SMOOTH",
"703 497 OFFCURVE",
"707 444 OFFCURVE",
"707 382 CURVE SMOOTH",
"707 93 LINE SMOOTH",
"707 37 OFFCURVE",
"689 21 OFFCURVE",
"641 21 CURVE",
"641 0 LINE",
"662 1 OFFCURVE",
"709 4 OFFCURVE",
"753 4 CURVE SMOOTH",
"797 4 OFFCURVE",
"850 1 OFFCURVE",
"873 0 CURVE",
"873 21 LINE",
"818 21 OFFCURVE",
"797 37 OFFCURVE",
"797 93 CURVE SMOOTH",
"797 360 LINE SMOOTH",
"797 423 OFFCURVE",
"789 464 OFFCURVE",
"764 491 CURVE SMOOTH",
"741 515 OFFCURVE",
"707 529 OFFCURVE",
"660 529 CURVE SMOOTH"
);
}
);
width = 888;
},
{
layerId = "39933D6F-F4A7-4C4E-8677-28C34DBED807";
name = Bold;
paths = (
{
closed = 1;
nodes = (
"339 533 OFFCURVE",
"287 511 OFFCURVE",
"257 458 CURVE",
"257 530 LINE",
"207 520 OFFCURVE",
"150 516 OFFCURVE",
"83 516 CURVE SMOOTH",
"63 516 OFFCURVE",
"42 517 OFFCURVE",
"21 519 CURVE",
"21 498 LINE",
"63 498 OFFCURVE",
"77 470 OFFCURVE",
"77 410 CURVE SMOOTH",
"77 93 LINE SMOOTH",
"77 37 OFFCURVE",
"62 21 OFFCURVE",
"21 21 CURVE",
"21 0 LINE",
"50 1 OFFCURVE",
"115 4 OFFCURVE",
"171 4 CURVE SMOOTH",
"219 4 OFFCURVE",
"270 1 OFFCURVE",
"293 0 CURVE",
"293 21 LINE",
"266 21 OFFCURVE",
"257 37 OFFCURVE",
"257 93 CURVE SMOOTH",
"257 409 LINE SMOOTH",
"257 451 OFFCURVE",
"292 481 OFFCURVE",
"329 481 CURVE SMOOTH",
"357 481 OFFCURVE",
"368 460 OFFCURVE",
"368 418 CURVE SMOOTH",
"368 93 LINE SMOOTH",
"368 37 OFFCURVE",
"358 21 OFFCURVE",
"332 21 CURVE",
"332 0 LINE",
"357 1 OFFCURVE",
"412 4 OFFCURVE",
"464 4 CURVE SMOOTH",
"512 4 OFFCURVE",
"569 1 OFFCURVE",
"594 0 CURVE",
"594 21 LINE",
"559 21 OFFCURVE",
"548 37 OFFCURVE",
"548 93 CURVE SMOOTH",
"548 364 LINE SMOOTH",
"548 432 OFFCURVE",
"539 469 OFFCURVE",
"519 493 CURVE SMOOTH",
"500 516 OFFCURVE",
"467 533 OFFCURVE",
"406 533 CURVE SMOOTH"
);
},
{
closed = 1;
nodes = (
"635 533 OFFCURVE",
"575 513 OFFCURVE",
"539 443 CURVE",
"546 403 LINE",
"549 444 OFFCURVE",
"584 481 OFFCURVE",
"620 481 CURVE SMOOTH",
"655 481 OFFCURVE",
"669 460 OFFCURVE",
"669 418 CURVE SMOOTH",
"669 93 LINE SMOOTH",
"669 37 OFFCURVE",
"660 21 OFFCURVE",
"633 21 CURVE",
"633 0 LINE",
"658 1 OFFCURVE",
"713 4 OFFCURVE",
"765 4 CURVE SMOOTH",
"817 4 OFFCURVE",
"878 1 OFFCURVE",
"905 0 CURVE",
"905 21 LINE",
"864 21 OFFCURVE",
"849 37 OFFCURVE",
"849 93 CURVE SMOOTH",
"849 364 LINE SMOOTH",
"849 432 OFFCURVE",
"840 469 OFFCURVE",
"820 493 CURVE SMOOTH",
"801 516 OFFCURVE",
"768 533 OFFCURVE",
"707 533 CURVE SMOOTH"
);
}
);
width = 916;
}
);
leftKerningGroup = n;
rightKerningGroup = n;
unicode = 006D;
},
{
glyphname = n;
lastChange = "2012-10-25 11:45:22 +0100";
layers = (
{
anchors = (
{
name = bottom;
position = "{316, 0}";
},
{
name = top;
position = "{306, 514}";
}
);
layerId = UUID0;
name = Regular;
paths = (
{
closed = 1;
nodes = (
"297 529 OFFCURVE",
"230 498 OFFCURVE",
"195 408 CURVE",
"195 526 LINE",
"166 516 OFFCURVE",
"130 512 OFFCURVE",
"91 512 CURVE SMOOTH",
"71 512 OFFCURVE",
"50 513 OFFCURVE",
"29 515 CURVE",
"29 494 LINE",
"87 494 OFFCURVE",
"105 466 OFFCURVE",
"105 406 CURVE SMOOTH",
"105 93 LINE SMOOTH",
"105 37 OFFCURVE",
"84 21 OFFCURVE",
"29 21 CURVE",
"29 0 LINE",
"52 1 OFFCURVE",
"105 4 OFFCURVE",
"149 4 CURVE SMOOTH",
"193 4 OFFCURVE",
"240 1 OFFCURVE",
"261 0 CURVE",
"261 21 LINE",
"213 21 OFFCURVE",
"195 37 OFFCURVE",
"195 93 CURVE SMOOTH",
"195 315 LINE SMOOTH",
"195 417 OFFCURVE",
"251 497 OFFCURVE",
"335 497 CURVE SMOOTH",
"407 497 OFFCURVE",
"416 444 OFFCURVE",
"416 382 CURVE SMOOTH",
"416 93 LINE SMOOTH",
"416 37 OFFCURVE",
"398 21 OFFCURVE",
"350 21 CURVE",
"350 0 LINE",
"371 1 OFFCURVE",
"418 4 OFFCURVE",
"462 4 CURVE SMOOTH",
"506 4 OFFCURVE",
"559 1 OFFCURVE",
"582 0 CURVE",
"582 21 LINE",
"527 21 OFFCURVE",
"506 37 OFFCURVE",
"506 93 CURVE SMOOTH",
"506 360 LINE SMOOTH",
"506 428 OFFCURVE",
"496 464 OFFCURVE",
"471 491 CURVE SMOOTH",
"448 515 OFFCURVE",
"416 529 OFFCURVE",
"365 529 CURVE SMOOTH"
);
}
);
width = 597;
},
{
anchors = (
{
name = bottom;
position = "{328, 0}";
},
{
name = top;
position = "{318, 514}";
}
);
layerId = "39933D6F-F4A7-4C4E-8677-28C34DBED807";
name = Bold;
paths = (
{
closed = 1;
nodes = (
"344 533 OFFCURVE",
"289 511 OFFCURVE",
"257 458 CURVE",
"257 530 LINE",
"207 520 OFFCURVE",
"150 516 OFFCURVE",
"83 516 CURVE SMOOTH",
"63 516 OFFCURVE",
"42 517 OFFCURVE",
"21 519 CURVE",
"21 498 LINE",
"63 498 OFFCURVE",
"77 470 OFFCURVE",
"77 410 CURVE SMOOTH",
"77 93 LINE SMOOTH",
"77 37 OFFCURVE",
"62 21 OFFCURVE",
"21 21 CURVE",
"21 0 LINE",
"50 1 OFFCURVE",
"115 4 OFFCURVE",
"171 4 CURVE SMOOTH",
"223 4 OFFCURVE",
"278 1 OFFCURVE",
"303 0 CURVE",
"303 21 LINE",
"269 21 OFFCURVE",
"257 37 OFFCURVE",
"257 93 CURVE SMOOTH",
"257 409 LINE SMOOTH",
"257 451 OFFCURVE",
"292 481 OFFCURVE",
"329 481 CURVE SMOOTH",
"364 481 OFFCURVE",
"378 460 OFFCURVE",
"378 418 CURVE SMOOTH",
"378 93 LINE SMOOTH",
"378 37 OFFCURVE",
"366 21 OFFCURVE",
"332 21 CURVE",
"332 0 LINE",
"359 1 OFFCURVE",
"418 4 OFFCURVE",
"474 4 CURVE SMOOTH",
"526 4 OFFCURVE",
"587 1 OFFCURVE",
"614 0 CURVE",
"614 21 LINE",
"573 21 OFFCURVE",
"558 37 OFFCURVE",
"558 93 CURVE SMOOTH",
"558 364 LINE SMOOTH",
"558 432 OFFCURVE",
"549 469 OFFCURVE",
"529 493 CURVE SMOOTH",
"510 516 OFFCURVE",
"477 533 OFFCURVE",
"416 533 CURVE SMOOTH"
);
}
);
width = 625;
}
);
leftKerningGroup = n;
rightKerningGroup = n;
unicode = 006E;
},
{
glyphname = eng;
lastChange = "2012-08-08 13:43:06 +0100";
layers = (
{
layerId = UUID0;
name = Regular;
paths = (
{
closed = 1;
nodes = (
"297 528 OFFCURVE",
"230 498 OFFCURVE",
"195 408 CURVE",
"195 526 LINE",
"166 516 OFFCURVE",
"130 512 OFFCURVE",
"91 512 CURVE SMOOTH",
"71 512 OFFCURVE",
"50 513 OFFCURVE",
"29 515 CURVE",
"29 494 LINE",
"87 494 OFFCURVE",
"105 466 OFFCURVE",
"105 406 CURVE SMOOTH",
"105 93 LINE SMOOTH",
"105 37 OFFCURVE",
"84 21 OFFCURVE",
"29 21 CURVE",
"29 0 LINE",
"52 1 OFFCURVE",
"105 4 OFFCURVE",
"149 4 CURVE SMOOTH",
"193 4 OFFCURVE",
"240 1 OFFCURVE",
"261 0 CURVE",
"261 21 LINE",
"213 21 OFFCURVE",
"195 37 OFFCURVE",
"195 93 CURVE SMOOTH",
"195 315 LINE SMOOTH",
"195 417 OFFCURVE",
"251 496 OFFCURVE",
"335 496 CURVE SMOOTH",
"407 496 OFFCURVE",
"416 443 OFFCURVE",
"416 381 CURVE SMOOTH",
"416 -65 LINE SMOOTH",
"416 -85 OFFCURVE",
"414 -102 OFFCURVE",
"411 -116 CURVE SMOOTH",
"408 -129 OFFCURVE",
"403 -140 OFFCURVE",
"396 -148 CURVE SMOOTH",
"384 -163 OFFCURVE",
"366 -170 OFFCURVE",
"341 -173 CURVE",
"354 -159 OFFCURVE",
"357 -143 OFFCURVE",
"357 -133 CURVE SMOOTH",
"357 -108 OFFCURVE",
"339 -88 OFFCURVE",
"312 -88 CURVE SMOOTH",
"283 -88 OFFCURVE",
"265 -108 OFFCURVE",
"265 -135 CURVE SMOOTH",
"265 -163 OFFCURVE",
"286 -188 OFFCURVE",
"332 -188 CURVE SMOOTH",
"374 -188 OFFCURVE",
"421 -168 OFFCURVE",
"453 -127 CURVE SMOOTH",
"498 -70 OFFCURVE",
"506 23 OFFCURVE",
"506 115 CURVE SMOOTH",
"506 359 LINE SMOOTH",
"506 427 OFFCURVE",
"496 463 OFFCURVE",
"471 490 CURVE SMOOTH",
"448 514 OFFCURVE",
"416 528 OFFCURVE",
"365 528 CURVE SMOOTH"
);
}
);
width = 579;
},
{
layerId = "39933D6F-F4A7-4C4E-8677-28C34DBED807";
name = Bold;
paths = (
{
closed = 1;
nodes = (
"344 533 OFFCURVE",
"289 511 OFFCURVE",
"257 458 CURVE",
"257 530 LINE",
"207 520 OFFCURVE",
"150 516 OFFCURVE",
"83 516 CURVE SMOOTH",
"63 516 OFFCURVE",
"42 517 OFFCURVE",
"21 519 CURVE",
"21 498 LINE",
"63 498 OFFCURVE",
"77 470 OFFCURVE",
"77 410 CURVE SMOOTH",
"77 93 LINE SMOOTH",
"77 37 OFFCURVE",
"62 21 OFFCURVE",
"21 21 CURVE",
"21 0 LINE",
"50 1 OFFCURVE",
"115 4 OFFCURVE",
"171 4 CURVE SMOOTH",
"223 4 OFFCURVE",
"278 1 OFFCURVE",
"303 0 CURVE",
"303 21 LINE",
"269 21 OFFCURVE",
"257 37 OFFCURVE",
"257 93 CURVE SMOOTH",
"257 409 LINE SMOOTH",
"257 451 OFFCURVE",
"292 481 OFFCURVE",
"329 481 CURVE SMOOTH",
"364 481 OFFCURVE",
"378 460 OFFCURVE",
"378 418 CURVE SMOOTH",
"378 80 LINE SMOOTH",
"378 15 OFFCURVE",
"380 -85 OFFCURVE",
"366 -118 CURVE SMOOTH",
"354 -147 OFFCURVE",
"333 -167 OFFCURVE",
"299 -167 CURVE SMOOTH",
"292 -167 OFFCURVE",
"281 -167 OFFCURVE",
"269 -165 CURVE",
"308 -156 OFFCURVE",
"336 -136 OFFCURVE",
"336 -102 CURVE SMOOTH",
"336 -59 OFFCURVE",
"290 -37 OFFCURVE",
"232 -37 CURVE SMOOTH",
"163 -37 OFFCURVE",
"128 -75 OFFCURVE",
"128 -110 CURVE SMOOTH",
"128 -180 OFFCURVE",
"249 -188 OFFCURVE",
"295 -188 CURVE SMOOTH",
"410 -188 OFFCURVE",
"457 -166 OFFCURVE",
"487 -138 CURVE SMOOTH",
"537 -91 OFFCURVE",
"558 -38 OFFCURVE",
"558 80 CURVE SMOOTH",
"558 364 LINE SMOOTH",
"558 432 OFFCURVE",
"549 469 OFFCURVE",
"529 493 CURVE SMOOTH",
"510 516 OFFCURVE",
"477 533 OFFCURVE",
"416 533 CURVE SMOOTH"
);
}
);
width = 615;
}
);
leftKerningGroup = n;
rightKerningGroup = j;
unicode = 014B;
},
{
glyphname = o;
lastChange = "2012-10-25 11:46:06 +0100";
layers = (
{
anchors = (
{
name = bottom;
position = "{274, 0}";
},
{
name = top;
position = "{277, 514}";
}
);
layerId = UUID0;
name = Regular;
paths = (
{
closed = 1;
nodes = (
"147 529 OFFCURVE",
"47 449 OFFCURVE",
"47 257 CURVE SMOOTH",
"47 65 OFFCURVE",
"147 -14 OFFCURVE",
"274 -14 CURVE SMOOTH",
"401 -14 OFFCURVE",
"501 65 OFFCURVE",
"501 257 CURVE SMOOTH",
"501 449 OFFCURVE",
"401 529 OFFCURVE",
"274 529 CURVE SMOOTH"
);
},
{
closed = 1;
nodes = (
"350 509 OFFCURVE",
"404 436 OFFCURVE",
"404 257 CURVE SMOOTH",
"404 78 OFFCURVE",
"350 6 OFFCURVE",
"274 6 CURVE SMOOTH",
"198 6 OFFCURVE",
"144 78 OFFCURVE",
"144 257 CURVE SMOOTH",
"144 436 OFFCURVE",
"198 509 OFFCURVE",
"274 509 CURVE SMOOTH"
);
}
);
width = 548;
},
{
anchors = (
{
name = bottom;
position = "{288, 0}";
},
{
name = top;
position = "{288, 514}";
}
);
layerId = "39933D6F-F4A7-4C4E-8677-28C34DBED807";
name = Bold;
paths = (
{
closed = 1;
nodes = (
"133 533 OFFCURVE",
"31 461 OFFCURVE",
"31 259 CURVE SMOOTH",
"31 57 OFFCURVE",
"133 -14 OFFCURVE",
"288 -14 CURVE SMOOTH",
"443 -14 OFFCURVE",
"545 57 OFFCURVE",
"545 259 CURVE SMOOTH",
"545 461 OFFCURVE",
"443 533 OFFCURVE",
"288 533 CURVE SMOOTH"
);
},
{
closed = 1;
nodes = (
"328 513 OFFCURVE",
"358 438 OFFCURVE",
"358 259 CURVE SMOOTH",
"358 80 OFFCURVE",
"328 6 OFFCURVE",
"288 6 CURVE SMOOTH",
"248 6 OFFCURVE",
"218 80 OFFCURVE",
"218 259 CURVE SMOOTH",
"218 438 OFFCURVE",
"248 513 OFFCURVE",
"288 513 CURVE SMOOTH"
);
}
);
width = 576;
}
);
leftKerningGroup = o;
rightKerningGroup = o;
unicode = 006F;
},
{
glyphname = oslash;
lastChange = "2012-08-08 13:41:48 +0100";
layers = (
{
anchors = (
{
name = top;
position = "{277, 514}";
}
);
components = (
{
name = o;
transform = "{1, 0, 0, 1, 0, 0}";
}
);
layerId = UUID0;
name = Regular;
paths = (
{
closed = 1;
nodes = (
"152 84 LINE",
"168 63 LINE",
"408 446 LINE",
"393 466 LINE"
);
},
{
closed = 1;
nodes = (
"44 -59 LINE",
"65 -73 LINE",
"158 63 LINE",
"142 84 LINE"
);
},
{
closed = 1;
nodes = (
"403 466 LINE",
"418 446 LINE",
"505 574 LINE",
"486 587 LINE"
);
}
);
width = 547;
},
{
anchors = (
{
name = top;
position = "{287, 514}";
}
);
components = (
{
name = o;
transform = "{1, 0, 0, 1, 0, 0}";
}
);
layerId = "39933D6F-F4A7-4C4E-8677-28C34DBED807";
name = Bold;
paths = (
{
closed = 1;
nodes = (
"178 84 LINE",
"194 63 LINE",
"407 446 LINE",
"392 466 LINE"
);
},
{
closed = 1;
nodes = (
"59 -60 LINE",
"78 -73 LINE",
"166 53 LINE",
"151 73 LINE"
);
},
{
closed = 1;
nodes = (
"414 466 LINE",
"429 446 LINE",
"521 579 LINE",
"502 592 LINE"
);
}
);
width = 576;
}
);
leftKerningGroup = o;
rightKerningGroup = o;
unicode = 00F8;
},
{
glyphname = oe;
lastChange = "2012-08-08 13:40:54 +0100";
layers = (
{
anchors = (
{
name = top;
position = "{418, 514}";
}
);
layerId = UUID0;
name = Regular;
paths = (
{
closed = 1;
nodes = (
"144 528 OFFCURVE",
"48 449 OFFCURVE",
"48 257 CURVE SMOOTH",
"48 65 OFFCURVE",
"144 -14 OFFCURVE",
"265 -14 CURVE SMOOTH",
"374 -14 OFFCURVE",
"462 65 OFFCURVE",
"462 257 CURVE SMOOTH",
"462 449 OFFCURVE",
"374 528 OFFCURVE",
"265 528 CURVE SMOOTH"
);
},
{
closed = 1;
nodes = (
"335 508 OFFCURVE",
"385 436 OFFCURVE",
"385 257 CURVE SMOOTH",
"385 78 OFFCURVE",
"335 6 OFFCURVE",
"265 6 CURVE SMOOTH",
"195 6 OFFCURVE",
"145 78 OFFCURVE",
"145 257 CURVE SMOOTH",
"145 436 OFFCURVE",
"195 508 OFFCURVE",
"265 508 CURVE SMOOTH"
);
},
{
closed = 1;
nodes = (
"486 529 OFFCURVE",
"405 421 OFFCURVE",
"405 245 CURVE SMOOTH",
"405 92 OFFCURVE",
"482 -14 OFFCURVE",
"615 -14 CURVE SMOOTH",
"709 -14 OFFCURVE",
"771 53 OFFCURVE",
"792 120 CURVE",
"772 128 LINE",
"739 53 OFFCURVE",
"691 28 OFFCURVE",
"635 28 CURVE SMOOTH",
"558 28 OFFCURVE",
"482 108 OFFCURVE",
"482 245 CURVE SMOOTH",
"482 269 OFFCURVE",
"483 294 OFFCURVE",
"486 314 CURVE",
"483 318 LINE",
"492 451 OFFCURVE",
"546 510 OFFCURVE",
"607 510 CURVE SMOOTH",
"667 510 OFFCURVE",
"695 426 OFFCURVE",
"692 328 CURVE",
"464 328 LINE",
"464 328 OFFCURVE",
"465 309 OFFCURVE",
"465 309 CURVE",
"788 309 LINE",
"788 460 OFFCURVE",
"722 529 OFFCURVE",
"611 529 CURVE SMOOTH"
);
}
);
width = 835;
},
{
anchors = (
{
name = top;
position = "{400, 514}";
}
);
layerId = "39933D6F-F4A7-4C4E-8677-28C34DBED807";
name = Bold;
paths = (
{
closed = 1;
nodes = (
"129 533 OFFCURVE",
"31 461 OFFCURVE",
"31 259 CURVE SMOOTH",
"31 57 OFFCURVE",
"129 -14 OFFCURVE",
"278 -14 CURVE SMOOTH",
"403 -14 OFFCURVE",
"485 57 OFFCURVE",
"485 259 CURVE SMOOTH",
"485 461 OFFCURVE",
"403 533 OFFCURVE",
"278 533 CURVE SMOOTH"
);
},
{
closed = 1;
nodes = (
"318 513 OFFCURVE",
"348 438 OFFCURVE",
"348 257 CURVE SMOOTH",
"348 80 OFFCURVE",
"318 6 OFFCURVE",
"278 6 CURVE SMOOTH",
"244 6 OFFCURVE",
"218 80 OFFCURVE",
"218 259 CURVE SMOOTH",
"218 438 OFFCURVE",
"244 513 OFFCURVE",
"278 513 CURVE SMOOTH"
);
},
{
closed = 1;
nodes = (
"470 533 OFFCURVE",
"378 451 OFFCURVE",
"378 259 CURVE SMOOTH",
"378 57 OFFCURVE",
"468 -14 OFFCURVE",
"579 -14 CURVE SMOOTH",
"686 -14 OFFCURVE",
"745 75 OFFCURVE",
"768 156 CURVE",
"751 162 LINE",
"715 101 OFFCURVE",
"673 95 OFFCURVE",
"650 95 CURVE SMOOTH",
"596 95 OFFCURVE",
"535 132 OFFCURVE",
"535 273 CURVE SMOOTH",
"535 287 OFFCURVE",
"535 301 OFFCURVE",
"536 314 CURVE",
"532 322 LINE",
"536 459 OFFCURVE",
"553 510 OFFCURVE",
"578 510 CURVE SMOOTH",
"615 510 OFFCURVE",
"629 426 OFFCURVE",
"628 328 CURVE",
"479 328 LINE",
"479 328 OFFCURVE",
"481 309 OFFCURVE",
"481 309 CURVE",
"774 309 LINE",
"774 470 OFFCURVE",
"702 533 OFFCURVE",
"585 533 CURVE SMOOTH"
);
}
);
width = 800;
}
);
leftKerningGroup = o;
rightKerningGroup = e;
unicode = 0153;
},
{
glyphname = p;
lastChange = "2012-10-16 16:47:32 +0100";
layers = (
{
layerId = UUID0;
name = Regular;
paths = (
{
closed = 1;
nodes = (
"159 516 OFFCURVE",
"123 512 OFFCURVE",
"84 512 CURVE SMOOTH",
"64 512 OFFCURVE",
"43 513 OFFCURVE",
"22 515 CURVE",
"22 494 LINE",
"80 494 OFFCURVE",
"98 466 OFFCURVE",
"98 406 CURVE SMOOTH",
"98 -98 LINE SMOOTH",
"98 -146 OFFCURVE",
"80 -160 OFFCURVE",
"32 -160 CURVE",
"32 -181 LINE",
"53 -180 OFFCURVE",
"98 -177 OFFCURVE",
"140 -177 CURVE SMOOTH",
"198 -177 OFFCURVE",
"255 -180 OFFCURVE",
"284 -181 CURVE",
"284 -160 LINE",
"224 -160 OFFCURVE",
"188 -145 OFFCURVE",
"188 -88 CURVE SMOOTH",
"188 526 LINE"
);
},
{
closed = 1;
nodes = (
"256 529 OFFCURVE",
"184 463 OFFCURVE",
"169 350 CURVE",
"181 336 LINE",
"195 445 OFFCURVE",
"255 499 OFFCURVE",
"321 499 CURVE SMOOTH",
"397 499 OFFCURVE",
"437 426 OFFCURVE",
"437 267 CURVE SMOOTH",
"437 125 OFFCURVE",
"405 9 OFFCURVE",
"294 9 CURVE SMOOTH",
"240 9 OFFCURVE",
"205 37 OFFCURVE",
"187 75 CURVE",
"177 61 LINE",
"193 19 OFFCURVE",
"242 -14 OFFCURVE",
"305 -14 CURVE SMOOTH",
"468 -14 OFFCURVE",
"534 136 OFFCURVE",
"534 281 CURVE SMOOTH",
"534 442 OFFCURVE",
"453 529 OFFCURVE",
"348 529 CURVE SMOOTH"
);
}
);
width = 581;
},
{
layerId = "39933D6F-F4A7-4C4E-8677-28C34DBED807";
name = Bold;
paths = (
{
closed = 1;
nodes = (
"204 519 OFFCURVE",
"147 515 OFFCURVE",
"80 515 CURVE SMOOTH",
"60 515 OFFCURVE",
"39 516 OFFCURVE",
"18 518 CURVE",
"18 497 LINE",
"60 497 OFFCURVE",
"74 469 OFFCURVE",
"74 409 CURVE SMOOTH",
"74 -88 LINE SMOOTH",
"74 -144 OFFCURVE",
"59 -160 OFFCURVE",
"18 -160 CURVE",
"18 -181 LINE",
"45 -180 OFFCURVE",
"102 -177 OFFCURVE",
"156 -177 CURVE SMOOTH",
"230 -177 OFFCURVE",
"303 -180 OFFCURVE",
"340 -181 CURVE",
"340 -160 LINE",
"286 -160 OFFCURVE",
"254 -143 OFFCURVE",
"254 -78 CURVE SMOOTH",
"254 529 LINE"
);
},
{
closed = 1;
nodes = (
"338 533 OFFCURVE",
"285 509 OFFCURVE",
"254 458 CURVE",
"254 409 LINE SMOOTH",
"254 451 OFFCURVE",
"289 481 OFFCURVE",
"326 481 CURVE SMOOTH",
"363 481 OFFCURVE",
"393 436 OFFCURVE",
"393 259 CURVE SMOOTH",
"393 97 OFFCURVE",
"363 16 OFFCURVE",
"289 16 CURVE SMOOTH",
"272 16 OFFCURVE",
"253 20 OFFCURVE",
"242 35 CURVE",
"232 22 LINE",
"258 -6 OFFCURVE",
"302 -14 OFFCURVE",
"347 -14 CURVE SMOOTH",
"472 -14 OFFCURVE",
"580 55 OFFCURVE",
"580 282 CURVE SMOOTH",
"580 452 OFFCURVE",
"505 533 OFFCURVE",
"406 533 CURVE SMOOTH"
);
}
);
width = 612;
}
);
rightKerningGroup = b;
unicode = 0070;
},
{
glyphname = thorn;
lastChange = "2012-08-07 07:59:26 +0100";
layers = (
{
layerId = UUID0;
name = Regular;
paths = (
{
closed = 1;
nodes = (
"137 773 OFFCURVE",
"101 769 OFFCURVE",
"62 769 CURVE SMOOTH",
"42 769 OFFCURVE",
"21 770 OFFCURVE",
"0 772 CURVE",
"0 751 LINE",
"58 751 OFFCURVE",
"76 723 OFFCURVE",
"76 663 CURVE SMOOTH",
"76 -98 LINE SMOOTH",
"76 -146 OFFCURVE",
"58 -160 OFFCURVE",
"10 -160 CURVE",
"10 -181 LINE",
"31 -180 OFFCURVE",
"76 -177 OFFCURVE",
"118 -177 CURVE SMOOTH",
"176 -177 OFFCURVE",
"233 -180 OFFCURVE",
"262 -181 CURVE",
"262 -160 LINE",
"202 -160 OFFCURVE",
"166 -145 OFFCURVE",
"166 -88 CURVE SMOOTH",
"166 783 LINE"
);
},
{
closed = 1;
nodes = (
"234 529 OFFCURVE",
"162 463 OFFCURVE",
"147 350 CURVE",
"159 336 LINE",
"173 445 OFFCURVE",
"233 499 OFFCURVE",
"299 499 CURVE SMOOTH",
"375 499 OFFCURVE",
"415 426 OFFCURVE",
"415 267 CURVE SMOOTH",
"415 125 OFFCURVE",
"383 9 OFFCURVE",
"272 9 CURVE SMOOTH",
"218 9 OFFCURVE",
"183 37 OFFCURVE",
"165 75 CURVE",
"155 61 LINE",
"171 19 OFFCURVE",
"220 -14 OFFCURVE",
"283 -14 CURVE SMOOTH",
"446 -14 OFFCURVE",
"512 136 OFFCURVE",
"512 281 CURVE SMOOTH",
"512 442 OFFCURVE",
"431 529 OFFCURVE",
"326 529 CURVE SMOOTH"
);
}
);
width = 559;
},
{
layerId = "39933D6F-F4A7-4C4E-8677-28C34DBED807";
name = Bold;
paths = (
{
closed = 1;
nodes = (
"193 772 OFFCURVE",
"136 768 OFFCURVE",
"69 768 CURVE SMOOTH",
"49 768 OFFCURVE",
"28 769 OFFCURVE",
"7 771 CURVE",
"7 750 LINE",
"49 750 OFFCURVE",
"63 722 OFFCURVE",
"63 662 CURVE SMOOTH",
"63 -88 LINE SMOOTH",
"63 -144 OFFCURVE",
"48 -160 OFFCURVE",
"7 -160 CURVE",
"7 -181 LINE",
"34 -180 OFFCURVE",
"91 -177 OFFCURVE",
"145 -177 CURVE SMOOTH",
"219 -177 OFFCURVE",
"292 -180 OFFCURVE",
"329 -181 CURVE",
"329 -160 LINE",
"275 -160 OFFCURVE",
"243 -143 OFFCURVE",
"243 -78 CURVE SMOOTH",
"243 782 LINE"
);
},
{
closed = 1;
nodes = (
"327 533 OFFCURVE",
"274 509 OFFCURVE",
"243 458 CURVE",
"243 409 LINE SMOOTH",
"243 451 OFFCURVE",
"278 481 OFFCURVE",
"315 481 CURVE SMOOTH",
"352 481 OFFCURVE",
"382 436 OFFCURVE",
"382 259 CURVE SMOOTH",
"382 97 OFFCURVE",
"352 16 OFFCURVE",
"278 16 CURVE SMOOTH",
"261 16 OFFCURVE",
"242 20 OFFCURVE",
"231 35 CURVE",
"221 22 LINE",
"247 -6 OFFCURVE",
"291 -14 OFFCURVE",
"336 -14 CURVE SMOOTH",
"461 -14 OFFCURVE",
"569 55 OFFCURVE",
"569 282 CURVE SMOOTH",
"569 452 OFFCURVE",
"494 533 OFFCURVE",
"395 533 CURVE SMOOTH"
);
}
);
width = 601;
}
);
leftKerningGroup = h;
rightKerningGroup = b;
unicode = 00FE;
},
{
glyphname = q;
lastChange = "2012-08-08 13:40:54 +0100";
layers = (
{
layerId = UUID0;
name = Regular;
paths = (
{
closed = 1;
nodes = (
"141 529 OFFCURVE",
"47 439 OFFCURVE",
"47 257 CURVE SMOOTH",
"47 74 OFFCURVE",
"138 -14 OFFCURVE",
"253 -14 CURVE SMOOTH",
"337 -14 OFFCURVE",
"402 51 OFFCURVE",
"412 164 CURVE",
"400 178 LINE",
"392 71 OFFCURVE",
"338 16 OFFCURVE",
"282 16 CURVE SMOOTH",
"193 16 OFFCURVE",
"144 96 OFFCURVE",
"144 257 CURVE SMOOTH",
"144 426 OFFCURVE",
"190 506 OFFCURVE",
"269 506 CURVE SMOOTH",
"327 506 OFFCURVE",
"375 481 OFFCURVE",
"400 426 CURVE",
"420 415 LINE",
"392 496 OFFCURVE",
"344 529 OFFCURVE",
"261 529 CURVE SMOOTH"
);
},
{
closed = 1;
nodes = (
"446 503 OFFCURVE",
"420 475 OFFCURVE",
"393 447 CURVE",
"393 -88 LINE SMOOTH",
"393 -145 OFFCURVE",
"357 -160 OFFCURVE",
"297 -160 CURVE",
"297 -181 LINE",
"326 -180 OFFCURVE",
"383 -177 OFFCURVE",
"441 -177 CURVE SMOOTH",
"483 -177 OFFCURVE",
"528 -180 OFFCURVE",
"549 -181 CURVE",
"549 -160 LINE",
"501 -160 OFFCURVE",
"483 -146 OFFCURVE",
"483 -98 CURVE SMOOTH",
"483 466 LINE SMOOTH",
"483 486 OFFCURVE",
"485 506 OFFCURVE",
"490 524 CURVE",
"473 531 LINE"
);
}
);
width = 563;
},
{
layerId = "39933D6F-F4A7-4C4E-8677-28C34DBED807";
name = Bold;
paths = (
{
closed = 1;
nodes = (
"119 533 OFFCURVE",
"31 444 OFFCURVE",
"31 263 CURVE SMOOTH",
"31 67 OFFCURVE",
"120 -14 OFFCURVE",
"235 -14 CURVE SMOOTH",
"294 -14 OFFCURVE",
"330 10 OFFCURVE",
"357 61 CURVE",
"357 110 LINE SMOOTH",
"357 68 OFFCURVE",
"322 38 OFFCURVE",
"285 38 CURVE SMOOTH",
"248 38 OFFCURVE",
"218 83 OFFCURVE",
"218 260 CURVE SMOOTH",
"218 429 OFFCURVE",
"248 513 OFFCURVE",
"310 513 CURVE SMOOTH",
"329 513 OFFCURVE",
"352 508 OFFCURVE",
"369 494 CURVE",
"380 510 LINE",
"342 531 OFFCURVE",
"301 533 OFFCURVE",
"253 533 CURVE SMOOTH"
);
},
{
closed = 1;
nodes = (
"501 508 OFFCURVE",
"423 493 OFFCURVE",
"357 520 CURVE",
"357 -78 LINE SMOOTH",
"357 -143 OFFCURVE",
"325 -160 OFFCURVE",
"271 -160 CURVE",
"271 -181 LINE",
"308 -180 OFFCURVE",
"381 -177 OFFCURVE",
"455 -177 CURVE SMOOTH",
"509 -177 OFFCURVE",
"566 -180 OFFCURVE",
"593 -181 CURVE",
"593 -160 LINE",
"552 -160 OFFCURVE",
"537 -144 OFFCURVE",
"537 -88 CURVE SMOOTH",
"537 470 LINE SMOOTH",
"537 489 OFFCURVE",
"538 507 OFFCURVE",
"544 525 CURVE",
"530 535 LINE"
);
}
);
width = 600;
}
);
leftKerningGroup = o;
unicode = 0071;
},
{
glyphname = r;
lastChange = "2012-10-16 16:46:26 +0100";
layers = (
{
anchors = (
{
name = bottom;
position = "{169, 0}";
},
{
name = top;
position = "{236, 514}";
}
);
layerId = UUID0;
name = Regular;
paths = (
{
closed = 1;
nodes = (
"270 529 OFFCURVE",
"216 459 OFFCURVE",
"195 401 CURVE",
"195 526 LINE",
"166 516 OFFCURVE",
"130 512 OFFCURVE",
"91 512 CURVE SMOOTH",
"71 512 OFFCURVE",
"50 513 OFFCURVE",
"29 515 CURVE",
"29 494 LINE",
"87 494 OFFCURVE",
"105 466 OFFCURVE",
"105 406 CURVE SMOOTH",
"105 93 LINE SMOOTH",
"105 37 OFFCURVE",
"84 21 OFFCURVE",
"29 21 CURVE",
"29 0 LINE",
"52 1 OFFCURVE",
"101 4 OFFCURVE",
"147 4 CURVE SMOOTH",
"209 4 OFFCURVE",
"270 1 OFFCURVE",
"301 0 CURVE",
"301 21 LINE",
"235 21 OFFCURVE",
"195 38 OFFCURVE",
"195 103 CURVE SMOOTH",
"195 315 LINE SMOOTH",
"195 389 OFFCURVE",
"250 503 OFFCURVE",
"334 503 CURVE SMOOTH",
"343 503 OFFCURVE",
"350 500 OFFCURVE",
"355 493 CURVE",
"337 482 OFFCURVE",
"321 464 OFFCURVE",
"321 439 CURVE SMOOTH",
"321 406 OFFCURVE",
"346 387 OFFCURVE",
"374 387 CURVE SMOOTH",
"409 387 OFFCURVE",
"431 416 OFFCURVE",
"431 450 CURVE SMOOTH",
"431 493 OFFCURVE",
"394 529 OFFCURVE",
"340 529 CURVE SMOOTH"
);
}
);
width = 445;
},
{
anchors = (
{
name = bottom;
position = "{174, 0}";
},
{
name = top;
position = "{239, 514}";
}
);
layerId = "39933D6F-F4A7-4C4E-8677-28C34DBED807";
name = Bold;
paths = (
{
closed = 1;
nodes = (
"328 533 OFFCURVE",
"283 509 OFFCURVE",
"257 458 CURVE",
"257 530 LINE",
"207 520 OFFCURVE",
"150 516 OFFCURVE",
"83 516 CURVE SMOOTH",
"63 516 OFFCURVE",
"42 517 OFFCURVE",
"21 519 CURVE",
"21 498 LINE",
"63 498 OFFCURVE",
"77 470 OFFCURVE",
"77 410 CURVE SMOOTH",
"77 93 LINE SMOOTH",
"77 37 OFFCURVE",
"62 21 OFFCURVE",
"21 21 CURVE",
"21 0 LINE",
"52 1 OFFCURVE",
"121 4 OFFCURVE",
"181 4 CURVE SMOOTH",
"245 4 OFFCURVE",
"312 1 OFFCURVE",
"343 0 CURVE",
"343 21 LINE",
"282 21 OFFCURVE",
"257 39 OFFCURVE",
"257 103 CURVE SMOOTH",
"257 403 LINE SMOOTH",
"257 443 OFFCURVE",
"283 478 OFFCURVE",
"316 492 CURVE SMOOTH",
"326 497 OFFCURVE",
"337 499 OFFCURVE",
"348 499 CURVE",
"318 479 OFFCURVE",
"297 451 OFFCURVE",
"297 406 CURVE SMOOTH",
"297 363 OFFCURVE",
"327 334 OFFCURVE",
"386 334 CURVE SMOOTH",
"441 334 OFFCURVE",
"478 372 OFFCURVE",
"478 432 CURVE SMOOTH",
"478 478 OFFCURVE",
"458 533 OFFCURVE",
"386 533 CURVE SMOOTH"
);
}
);
width = 481;
}
);
leftKerningGroup = n;
rightKerningGroup = r;
unicode = 0072;
},
{
glyphname = s;
lastChange = "2012-10-19 09:13:03 +0100";
layers = (
{
anchors = (
{
name = bottom;
position = "{228, 0}";
},
{
name = top;
position = "{228, 514}";
}
);
layerId = UUID0;
name = Regular;
paths = (
{
closed = 1;
nodes = (
"128 529 OFFCURVE",
"59 489 OFFCURVE",
"59 400 CURVE SMOOTH",
"59 317 OFFCURVE",
"124 278 OFFCURVE",
"197 232 CURVE SMOOTH",
"262 191 OFFCURVE",
"310 159 OFFCURVE",
"310 101 CURVE SMOOTH",
"310 30 OFFCURVE",
"261 6 OFFCURVE",
"221 6 CURVE SMOOTH",
"121 6 OFFCURVE",
"95 81 OFFCURVE",
"82 193 CURVE",
"59 193 LINE",
"59 92 OFFCURVE",
"58 36 OFFCURVE",
"55 -7 CURVE",
"78 -7 LINE",
"83 26 OFFCURVE",
"95 38 OFFCURVE",
"108 27 CURVE SMOOTH",
"121 16 OFFCURVE",
"135 7 OFFCURVE",
"149 0 CURVE SMOOTH",
"173 -10 OFFCURVE",
"199 -14 OFFCURVE",
"228 -14 CURVE SMOOTH",
"319 -14 OFFCURVE",
"399 34 OFFCURVE",
"399 126 CURVE SMOOTH",
"399 208 OFFCURVE",
"338 252 OFFCURVE",
"262 301 CURVE SMOOTH",
"194 345 OFFCURVE",
"134 373 OFFCURVE",
"134 433 CURVE SMOOTH",
"134 483 OFFCURVE",
"169 510 OFFCURVE",
"216 510 CURVE SMOOTH",
"306 510 OFFCURVE",
"340 432 OFFCURVE",
"352 358 CURVE",
"375 358 LINE",
"375 444 OFFCURVE",
"376 491 OFFCURVE",
"379 528 CURVE",
"356 528 LINE",
"351 485 OFFCURVE",
"338 474 OFFCURVE",
"316 492 CURVE SMOOTH",
"298 507 OFFCURVE",
"260 529 OFFCURVE",
"207 529 CURVE SMOOTH"
);
}
);
width = 446;
},
{
anchors = (
{
name = bottom;
position = "{236, 0}";
},
{
name = top;
position = "{236, 514}";
}
);
layerId = "39933D6F-F4A7-4C4E-8677-28C34DBED807";
name = Bold;
paths = (
{
closed = 1;
nodes = (
"132 533 OFFCURVE",
"43 478 OFFCURVE",
"43 389 CURVE SMOOTH",
"43 310 OFFCURVE",
"100 261 OFFCURVE",
"160 206 CURVE SMOOTH",
"213 158 OFFCURVE",
"253 125 OFFCURVE",
"253 66 CURVE SMOOTH",
"253 28 OFFCURVE",
"226 11 OFFCURVE",
"195 11 CURVE SMOOTH",
"122 11 OFFCURVE",
"75 87 OFFCURVE",
"63 193 CURVE",
"43 193 LINE",
"43 92 OFFCURVE",
"42 36 OFFCURVE",
"39 -7 CURVE",
"59 -7 LINE",
"64 12 OFFCURVE",
"73 28 OFFCURVE",
"87 28 CURVE SMOOTH",
"102 28 OFFCURVE",
"116 22 OFFCURVE",
"137 11 CURVE SMOOTH",
"158 -2 OFFCURVE",
"193 -14 OFFCURVE",
"240 -14 CURVE SMOOTH",
"351 -14 OFFCURVE",
"442 49 OFFCURVE",
"442 140 CURVE SMOOTH",
"442 217 OFFCURVE",
"395 259 OFFCURVE",
"334 309 CURVE SMOOTH",
"277 356 OFFCURVE",
"214 393 OFFCURVE",
"214 453 CURVE SMOOTH",
"214 488 OFFCURVE",
"240 509 OFFCURVE",
"273 509 CURVE SMOOTH",
"355 509 OFFCURVE",
"387 426 OFFCURVE",
"396 352 CURVE",
"416 352 LINE",
"416 443 OFFCURVE",
"417 493 OFFCURVE",
"420 532 CURVE",
"400 532 LINE",
"395 501 OFFCURVE",
"379 493 OFFCURVE",
"357 506 CURVE SMOOTH",
"337 517 OFFCURVE",
"289 533 OFFCURVE",
"231 533 CURVE SMOOTH"
);
}
);
width = 472;
}
);
leftKerningGroup = s;
rightKerningGroup = s;
unicode = 0073;
},
{
glyphname = germandbls;
lastChange = "2012-08-07 07:59:26 +0100";
layers = (
{
layerId = UUID0;
name = Regular;
paths = (
{
closed = 1;
nodes = (
"178 782 OFFCURVE",
"97 717 OFFCURVE",
"97 538 CURVE SMOOTH",
"97 109 LINE SMOOTH",
"97 49 OFFCURVE",
"79 21 OFFCURVE",
"21 21 CURVE",
"21 0 LINE",
"42 2 OFFCURVE",
"63 3 OFFCURVE",
"83 3 CURVE SMOOTH",
"122 3 OFFCURVE",
"158 -1 OFFCURVE",
"187 -11 CURVE",
"187 624 LINE SMOOTH",
"187 748 OFFCURVE",
"246 767 OFFCURVE",
"283 767 CURVE SMOOTH",
"347 767 OFFCURVE",
"381 719 OFFCURVE",
"381 635 CURVE SMOOTH",
"381 549 OFFCURVE",
"356 489 OFFCURVE",
"289 437 CURVE",
"276 442 OFFCURVE",
"262 445 OFFCURVE",
"253 445 CURVE SMOOTH",
"238 445 OFFCURVE",
"230 437 OFFCURVE",
"230 426 CURVE SMOOTH",
"230 415 OFFCURVE",
"240 409 OFFCURVE",
"250 409 CURVE SMOOTH",
"262 409 OFFCURVE",
"276 417 OFFCURVE",
"287 424 CURVE",
"402 388 OFFCURVE",
"453 268 OFFCURVE",
"453 156 CURVE SMOOTH",
"453 39 OFFCURVE",
"399 1 OFFCURVE",
"353 1 CURVE SMOOTH",
"327 1 OFFCURVE",
"305 13 OFFCURVE",
"301 25 CURVE",
"330 34 OFFCURVE",
"344 53 OFFCURVE",
"344 77 CURVE SMOOTH",
"344 108 OFFCURVE",
"321 126 OFFCURVE",
"291 126 CURVE SMOOTH",
"258 126 OFFCURVE",
"239 104 OFFCURVE",
"239 72 CURVE SMOOTH",
"239 12 OFFCURVE",
"307 -14 OFFCURVE",
"361 -14 CURVE SMOOTH",
"456 -14 OFFCURVE",
"542 57 OFFCURVE",
"542 175 CURVE SMOOTH",
"542 307 OFFCURVE",
"428 404 OFFCURVE",
"301 433 CURVE",
"356 455 OFFCURVE",
"471 535 OFFCURVE",
"471 639 CURVE SMOOTH",
"471 727 OFFCURVE",
"409 782 OFFCURVE",
"294 782 CURVE SMOOTH"
);
}
);
width = 584;
},
{
hints = (
{
horizontal = 1;
place = "{941.000000, 21.000000}";
}
);
layerId = "39933D6F-F4A7-4C4E-8677-28C34DBED807";
name = Bold;
paths = (
{
closed = 1;
nodes = (
"170 782 OFFCURVE",
"74 688 OFFCURVE",
"74 512 CURVE SMOOTH",
"74 93 LINE SMOOTH",
"74 37 OFFCURVE",
"59 21 OFFCURVE",
"18 21 CURVE",
"18 0 LINE",
"66 3 OFFCURVE",
"84 4 OFFCURVE",
"115 3 CURVE SMOOTH",
"168 2 OFFCURVE",
"213 -3 OFFCURVE",
"254 -11 CURVE",
"254 533 LINE SMOOTH",
"254 702 OFFCURVE",
"258 767 OFFCURVE",
"335 767 CURVE SMOOTH",
"390 767 OFFCURVE",
"418 719 OFFCURVE",
"418 616 CURVE SMOOTH",
"418 531 OFFCURVE",
"399 480 OFFCURVE",
"331 436 CURVE",
"324 439 OFFCURVE",
"309 443 OFFCURVE",
"299 443 CURVE SMOOTH",
"285 443 OFFCURVE",
"277 436 OFFCURVE",
"277 425 CURVE SMOOTH",
"277 414 OFFCURVE",
"287 409 OFFCURVE",
"297 409 CURVE SMOOTH",
"306 409 OFFCURVE",
"319 414 OFFCURVE",
"331 420 CURVE",
"392 397 OFFCURVE",
"500 356 OFFCURVE",
"500 171 CURVE SMOOTH",
"500 80 OFFCURVE",
"474 4 OFFCURVE",
"404 4 CURVE SMOOTH",
"392 4 OFFCURVE",
"383 6 OFFCURVE",
"375 10 CURVE",
"411 26 OFFCURVE",
"450 62 OFFCURVE",
"450 115 CURVE SMOOTH",
"450 163 OFFCURVE",
"419 197 OFFCURVE",
"370 197 CURVE SMOOTH",
"317 197 OFFCURVE",
"286 157 OFFCURVE",
"286 100 CURVE SMOOTH",
"286 13 OFFCURVE",
"353 -14 OFFCURVE",
"440 -14 CURVE SMOOTH",
"569 -14 OFFCURVE",
"689 53 OFFCURVE",
"689 183 CURVE SMOOTH",
"689 306 OFFCURVE",
"580 407 OFFCURVE",
"348 433 CURVE",
"484 459 OFFCURVE",
"588 532 OFFCURVE",
"588 631 CURVE SMOOTH",
"588 715 OFFCURVE",
"506 782 OFFCURVE",
"355 782 CURVE SMOOTH"
);
}
);
width = 705;
}
);
leftKerningGroup = h;
unicode = 00DF;
},
{
glyphname = t;
lastChange = "2012-10-25 10:44:53 +0100";
layers = (
{
anchors = (
{
name = bottom;
position = "{234, 0}";
},
{
name = center;
position = "{187, 257}";
},
{
name = right;
position = "{288, 514}";
},
{
name = top;
position = "{154, 514}";
}
);
layerId = UUID0;
name = Regular;
paths = (
{
closed = 1;
nodes = (
"165 672 OFFCURVE",
"133 668 OFFCURVE",
"100 667 CURVE",
"100 514 LINE",
"4 514 LINE",
"4 494 LINE",
"100 494 LINE",
"100 159 LINE SMOOTH",
"100 88 OFFCURVE",
"110 49 OFFCURVE",
"139 19 CURVE SMOOTH",
"161 -3 OFFCURVE",
"188 -14 OFFCURVE",
"234 -14 CURVE SMOOTH",
"315 -14 OFFCURVE",
"350 46 OFFCURVE",
"364 124 CURVE",
"344 129 LINE",
"323 51 OFFCURVE",
"294 22 OFFCURVE",
"254 22 CURVE SMOOTH",
"214 22 OFFCURVE",
"190 44 OFFCURVE",
"190 107 CURVE SMOOTH",
"190 494 LINE",
"338 494 LINE",
"338 514 LINE",
"190 514 LINE",
"190 681 LINE"
);
}
);
width = 354;
},
{
anchors = (
{
name = bottom;
position = "{216, 0}";
},
{
name = center;
position = "{175, 257}";
},
{
name = right;
position = "{330, 514}";
},
{
name = top;
position = "{169, 514}";
}
);
layerId = "39933D6F-F4A7-4C4E-8677-28C34DBED807";
name = Bold;
paths = (
{
closed = 1;
nodes = (
"199 650 OFFCURVE",
"143 637 OFFCURVE",
"72 637 CURVE",
"72 518 LINE",
"-4 518 LINE",
"-4 498 LINE",
"72 498 LINE",
"72 159 LINE SMOOTH",
"72 90 OFFCURVE",
"77 49 OFFCURVE",
"106 20 CURVE SMOOTH",
"129 -3 OFFCURVE",
"165 -14 OFFCURVE",
"209 -14 CURVE SMOOTH",
"278 -14 OFFCURVE",
"323 17 OFFCURVE",
"351 65 CURVE",
"336 77 LINE",
"318 55 OFFCURVE",
"296 48 OFFCURVE",
"282 48 CURVE SMOOTH",
"260 48 OFFCURVE",
"252 58 OFFCURVE",
"252 84 CURVE SMOOTH",
"252 498 LINE",
"350 498 LINE",
"350 518 LINE",
"252 518 LINE",
"252 681 LINE"
);
}
);
width = 350;
}
);
leftKerningGroup = t;
rightKerningGroup = t;
unicode = 0074;
},
{
glyphname = tbar;
lastChange = "2012-08-07 07:59:26 +0100";
layers = (
{
components = (
{
name = t;
transform = "{1, 0, 0, 1, 3, 0}";
}
);
layerId = UUID0;
name = Regular;
paths = (
{
closed = 1;
nodes = (
"7 421 LINE",
"7 401 LINE",
"341 401 LINE",
"341 421 LINE"
);
}
);
width = 376;
},
{
components = (
{
name = t;
transform = "{1, 0, 0, 1, 2, 0}";
}
);
layerId = "39933D6F-F4A7-4C4E-8677-28C34DBED807";
name = Bold;
paths = (
{
closed = 1;
nodes = (
"-2 421 LINE",
"-2 401 LINE",
"352 401 LINE",
"352 421 LINE"
);
}
);
width = 353;
}
);
leftKerningGroup = t;
rightKerningGroup = t;
unicode = 0167;
},
{
glyphname = u;
lastChange = "2012-10-16 16:48:25 +0100";
layers = (
{
anchors = (
{
name = bottom;
position = "{301, 0}";
},
{
name = ogonek;
position = "{547, 0}";
},
{
name = top;
position = "{280, 514}";
}
);
layerId = UUID0;
name = Regular;
paths = (
{
closed = 1;
nodes = (
"454 516 OFFCURVE",
"418 512 OFFCURVE",
"379 512 CURVE SMOOTH",
"359 512 OFFCURVE",
"338 513 OFFCURVE",
"317 515 CURVE",
"317 494 LINE",
"375 494 OFFCURVE",
"393 466 OFFCURVE",
"393 406 CURVE SMOOTH",
"393 199 LINE SMOOTH",
"393 97 OFFCURVE",
"336 18 OFFCURVE",
"258 18 CURVE SMOOTH",
"186 18 OFFCURVE",
"182 71 OFFCURVE",
"182 133 CURVE SMOOTH",
"182 526 LINE",
"153 516 OFFCURVE",
"117 512 OFFCURVE",
"78 512 CURVE SMOOTH",
"58 512 OFFCURVE",
"37 513 OFFCURVE",
"16 515 CURVE",
"16 494 LINE",
"74 494 OFFCURVE",
"92 466 OFFCURVE",
"92 406 CURVE SMOOTH",
"92 155 LINE SMOOTH",
"92 92 OFFCURVE",
"100 51 OFFCURVE",
"125 24 CURVE SMOOTH",
"148 0 OFFCURVE",
"182 -14 OFFCURVE",
"229 -14 CURVE SMOOTH",
"293 -14 OFFCURVE",
"359 19 OFFCURVE",
"393 106 CURVE",
"393 -12 LINE",
"422 -2 OFFCURVE",
"458 2 OFFCURVE",
"497 2 CURVE SMOOTH",
"517 2 OFFCURVE",
"538 1 OFFCURVE",
"559 -1 CURVE",
"559 20 LINE",
"501 20 OFFCURVE",
"483 48 OFFCURVE",
"483 108 CURVE SMOOTH",
"483 526 LINE"
);
}
);
width = 581;
},
{
anchors = (
{
name = bottom;
position = "{323, 0}";
},
{
name = ogonek;
position = "{573, 0}";
},
{
name = top;
position = "{295, 514}";
}
);
layerId = "39933D6F-F4A7-4C4E-8677-28C34DBED807";
name = Bold;
paths = (
{
closed = 1;
nodes = (
"498 520 OFFCURVE",
"441 516 OFFCURVE",
"374 516 CURVE SMOOTH",
"354 516 OFFCURVE",
"333 517 OFFCURVE",
"312 519 CURVE",
"312 498 LINE",
"354 498 OFFCURVE",
"368 470 OFFCURVE",
"368 410 CURVE SMOOTH",
"368 110 LINE SMOOTH",
"368 68 OFFCURVE",
"333 38 OFFCURVE",
"296 38 CURVE SMOOTH",
"261 38 OFFCURVE",
"247 59 OFFCURVE",
"247 101 CURVE SMOOTH",
"247 530 LINE",
"197 520 OFFCURVE",
"140 516 OFFCURVE",
"73 516 CURVE SMOOTH",
"53 516 OFFCURVE",
"32 517 OFFCURVE",
"11 519 CURVE",
"11 498 LINE",
"53 498 OFFCURVE",
"67 470 OFFCURVE",
"67 410 CURVE SMOOTH",
"67 155 LINE SMOOTH",
"67 87 OFFCURVE",
"76 50 OFFCURVE",
"96 26 CURVE SMOOTH",
"115 3 OFFCURVE",
"148 -14 OFFCURVE",
"209 -14 CURVE SMOOTH",
"281 -14 OFFCURVE",
"336 8 OFFCURVE",
"368 61 CURVE",
"368 -11 LINE",
"418 -1 OFFCURVE",
"475 3 OFFCURVE",
"542 3 CURVE SMOOTH",
"562 3 OFFCURVE",
"583 2 OFFCURVE",
"604 0 CURVE",
"604 21 LINE",
"562 21 OFFCURVE",
"548 49 OFFCURVE",
"548 109 CURVE SMOOTH",
"548 530 LINE"
);
}
);
width = 622;
}
);
leftKerningGroup = u;
rightKerningGroup = i;
unicode = 0075;
},
{
glyphname = v;
lastChange = "2012-10-19 09:21:09 +0100";
layers = (
{
layerId = UUID0;
name = Regular;
paths = (
{
closed = 1;
nodes = (
"465 513 OFFCURVE",
"441 512 OFFCURVE",
"410 512 CURVE SMOOTH",
"379 512 OFFCURVE",
"361 513 OFFCURVE",
"326 515 CURVE",
"326 495 LINE",
"397 490 OFFCURVE",
"414 467 OFFCURVE",
"389 401 CURVE SMOOTH",
"275 102 LINE",
"281 107 LINE",
"156 416 LINE SMOOTH",
"125 494 OFFCURVE",
"166 494 OFFCURVE",
"216 494 CURVE",
"216 515 LINE",
"176 512 OFFCURVE",
"127 511 OFFCURVE",
"86 511 CURVE SMOOTH",
"52 511 OFFCURVE",
"24 513 OFFCURVE",
"-2 515 CURVE",
"-2 494 LINE",
"12 494 OFFCURVE",
"34 490 OFFCURVE",
"56 438 CURVE SMOOTH",
"240 -5 LINE",
"246 -5 OFFCURVE",
"251 -5 OFFCURVE",
"257 -5 CURVE",
"421 425 LINE SMOOTH",
"440 476 OFFCURVE",
"461 492 OFFCURVE",
"486 495 CURVE",
"486 515 LINE"
);
}
);
width = 489;
},
{
layerId = "39933D6F-F4A7-4C4E-8677-28C34DBED807";
name = Bold;
paths = (
{
closed = 1;
nodes = (
"506 516 OFFCURVE",
"468 515 OFFCURVE",
"444 515 CURVE SMOOTH",
"420 515 OFFCURVE",
"367 516 OFFCURVE",
"339 519 CURVE",
"339 498 LINE",
"398 494 OFFCURVE",
"438 430 OFFCURVE",
"393 295 CURVE SMOOTH",
"337 128 LINE",
"350 148 LINE",
"238 460 LINE SMOOTH",
"229 499 OFFCURVE",
"258 498 OFFCURVE",
"294 498 CURVE",
"294 519 LINE",
"254 516 OFFCURVE",
"205 513 OFFCURVE",
"164 513 CURVE SMOOTH",
"94 513 OFFCURVE",
"39 515 OFFCURVE",
"-14 519 CURVE",
"-14 498 LINE",
"0 498 OFFCURVE",
"24 493 OFFCURVE",
"44 442 CURVE SMOOTH",
"218 0 LINE",
"250 3 OFFCURVE",
"283 3 OFFCURVE",
"315 0 CURVE",
"450 401 LINE SMOOTH",
"472 466 OFFCURVE",
"496 489 OFFCURVE",
"521 498 CURVE",
"521 519 LINE"
);
}
);
width = 520;
}
);
leftKerningGroup = v;
rightKerningGroup = v;
unicode = 0076;
},
{
glyphname = w;
lastChange = "2012-08-08 13:43:47 +0100";
layers = (
{
anchors = (
{
name = top;
position = "{411, 514}";
}
);
layerId = UUID0;
name = Regular;
paths = (
{
closed = 1;
nodes = (
"178 512 OFFCURVE",
"129 509 OFFCURVE",
"88 509 CURVE SMOOTH",
"54 509 OFFCURVE",
"26 511 OFFCURVE",
"0 515 CURVE",
"0 494 LINE",
"14 494 OFFCURVE",
"37 491 OFFCURVE",
"58 438 CURVE SMOOTH",
"222 -5 LINE",
"228 -5 OFFCURVE",
"233 -5 OFFCURVE",
"239 -5 CURVE",
"422 511 LINE",
"402 519 LINE",
"255 113 LINE",
"262 112 LINE",
"158 410 LINE SMOOTH",
"128 495 OFFCURVE",
"168 494 OFFCURVE",
"218 494 CURVE",
"218 515 LINE"
);
},
{
closed = 1;
nodes = (
"746 513 OFFCURVE",
"722 512 OFFCURVE",
"691 512 CURVE SMOOTH",
"660 512 OFFCURVE",
"642 513 OFFCURVE",
"607 515 CURVE",
"607 495 LINE",
"678 490 OFFCURVE",
"694 468 OFFCURVE",
"672 401 CURVE SMOOTH",
"573 100 LINE",
"581 106 LINE",
"425 519 LINE",
"417 519 OFFCURVE",
"410 519 OFFCURVE",
"402 519 CURVE",
"379 404 LINE",
"540 -5 LINE",
"546 -5 OFFCURVE",
"551 -5 OFFCURVE",
"557 -5 CURVE",
"702 425 LINE SMOOTH",
"719 477 OFFCURVE",
"742 492 OFFCURVE",
"767 495 CURVE",
"767 515 LINE"
);
}
);
width = 770;
},
{
anchors = (
{
name = top;
position = "{411, 514}";
}
);
layerId = "39933D6F-F4A7-4C4E-8677-28C34DBED807";
name = Bold;
paths = (
{
closed = 1;
nodes = (
"257 516 OFFCURVE",
"208 513 OFFCURVE",
"167 513 CURVE SMOOTH",
"97 513 OFFCURVE",
"42 515 OFFCURVE",
"-11 519 CURVE",
"-11 498 LINE",
"3 498 OFFCURVE",
"28 495 OFFCURVE",
"47 442 CURVE SMOOTH",
"201 0 LINE",
"233 3 OFFCURVE",
"266 3 OFFCURVE",
"298 0 CURVE",
"431 507 LINE",
"410 518 LINE",
"313 140 LINE",
"330 163 LINE",
"241 460 LINE SMOOTH",
"232 494 OFFCURVE",
"254 498 OFFCURVE",
"297 498 CURVE",
"297 519 LINE"
);
},
{
closed = 1;
nodes = (
"786 516 OFFCURVE",
"748 515 OFFCURVE",
"724 515 CURVE SMOOTH",
"700 515 OFFCURVE",
"637 516 OFFCURVE",
"609 519 CURVE",
"609 498 LINE",
"673 492 OFFCURVE",
"715 432 OFFCURVE",
"674 295 CURVE SMOOTH",
"628 142 LINE",
"641 120 LINE",
"517 518 LINE",
"482 516 OFFCURVE",
"446 515 OFFCURVE",
"411 518 CURVE",
"381 369 LINE",
"508 0 LINE",
"540 3 OFFCURVE",
"573 3 OFFCURVE",
"605 0 CURVE",
"730 401 LINE SMOOTH",
"751 467 OFFCURVE",
"776 489 OFFCURVE",
"801 498 CURVE",
"801 519 LINE"
);
}
);
width = 798;
}
);
leftKerningGroup = v;
rightKerningGroup = v;
unicode = 0077;
},
{
glyphname = x;
lastChange = "2012-08-09 10:33:53 +0100";
layers = (
{
anchors = (
{
name = bottom;
position = "{268, 0}";
},
{
name = top;
position = "{274, 514}";
}
);
layerId = UUID0;
name = Regular;
paths = (
{
closed = 1;
nodes = (
"191 514 OFFCURVE",
"136 511 OFFCURVE",
"94 511 CURVE SMOOTH",
"68 511 OFFCURVE",
"36 514 OFFCURVE",
"23 515 CURVE",
"23 494 LINE",
"47 491 OFFCURVE",
"58 483 OFFCURVE",
"85 444 CURVE SMOOTH",
"352 55 LINE SMOOTH",
"366 35 OFFCURVE",
"343 21 OFFCURVE",
"317 21 CURVE",
"317 0 LINE",
"338 1 OFFCURVE",
"393 4 OFFCURVE",
"435 4 CURVE SMOOTH",
"461 4 OFFCURVE",
"493 1 OFFCURVE",
"506 0 CURVE",
"506 21 LINE",
"480 26 OFFCURVE",
"467 38 OFFCURVE",
"444 71 CURVE SMOOTH",
"177 460 LINE SMOOTH",
"163 481 OFFCURVE",
"186 494 OFFCURVE",
"212 494 CURVE",
"212 515 LINE"
);
},
{
closed = 1;
nodes = (
"109 90 LINE SMOOTH",
"71 40 OFFCURVE",
"46 23 OFFCURVE",
"21 20 CURVE",
"21 0 LINE",
"42 2 OFFCURVE",
"66 3 OFFCURVE",
"97 3 CURVE SMOOTH",
"128 3 OFFCURVE",
"176 2 OFFCURVE",
"211 0 CURVE",
"211 20 LINE",
"140 25 OFFCURVE",
"112 57 OFFCURVE",
"165 126 CURVE SMOOTH",
"248 234 LINE",
"248 234 OFFCURVE",
"239 261 OFFCURVE",
"239 261 CURVE"
);
},
{
closed = 1;
nodes = (
"465 513 OFFCURVE",
"441 512 OFFCURVE",
"410 512 CURVE SMOOTH",
"379 512 OFFCURVE",
"361 513 OFFCURVE",
"326 515 CURVE",
"326 495 LINE",
"397 490 OFFCURVE",
"397 463 OFFCURVE",
"353 401 CURVE SMOOTH",
"275 292 LINE",
"275 292 OFFCURVE",
"283 266 OFFCURVE",
"283 266 CURVE",
"398 425 LINE SMOOTH",
"430 469 OFFCURVE",
"461 492 OFFCURVE",
"486 495 CURVE",
"486 515 LINE"
);
}
);
width = 519;
},
{
anchors = (
{
name = bottom;
position = "{284, 0}";
},
{
name = top;
position = "{290, 514}";
}
);
layerId = "39933D6F-F4A7-4C4E-8677-28C34DBED807";
name = Bold;
paths = (
{
closed = 1;
nodes = (
"245 518 OFFCURVE",
"196 515 OFFCURVE",
"150 515 CURVE SMOOTH",
"92 515 OFFCURVE",
"28 518 OFFCURVE",
"-1 519 CURVE",
"-1 498 LINE",
"19 494 OFFCURVE",
"32 477 OFFCURVE",
"51 448 CURVE SMOOTH",
"312 55 LINE SMOOTH",
"325 34 OFFCURVE",
"314 21 OFFCURVE",
"287 21 CURVE",
"287 0 LINE",
"314 1 OFFCURVE",
"371 4 OFFCURVE",
"425 4 CURVE SMOOTH",
"475 4 OFFCURVE",
"531 1 OFFCURVE",
"556 0 CURVE",
"556 21 LINE",
"534 25 OFFCURVE",
"516 54 OFFCURVE",
"504 71 CURVE SMOOTH",
"243 464 LINE SMOOTH",
"230 485 OFFCURVE",
"241 498 OFFCURVE",
"268 498 CURVE",
"268 519 LINE"
);
},
{
closed = 1;
nodes = (
"103 102 LINE SMOOTH",
"70 62 OFFCURVE",
"43 37 OFFCURVE",
"9 20 CURVE",
"9 0 LINE",
"27 2 OFFCURVE",
"47 3 OFFCURVE",
"76 3 CURVE SMOOTH",
"111 3 OFFCURVE",
"198 2 OFFCURVE",
"239 0 CURVE",
"239 20 LINE",
"168 26 OFFCURVE",
"138 107 OFFCURVE",
"205 192 CURVE SMOOTH",
"216 206 LINE",
"216 206 OFFCURVE",
"212 228 OFFCURVE",
"212 228 CURVE"
);
},
{
closed = 1;
nodes = (
"503 517 OFFCURVE",
"483 516 OFFCURVE",
"454 516 CURVE SMOOTH",
"419 516 OFFCURVE",
"362 517 OFFCURVE",
"321 519 CURVE",
"321 499 LINE",
"392 493 OFFCURVE",
"407 426 OFFCURVE",
"347 353 CURVE SMOOTH",
"315 314 LINE",
"315 314 OFFCURVE",
"319 292 OFFCURVE",
"319 292 CURVE",
"427 417 LINE SMOOTH",
"460 457 OFFCURVE",
"491 486 OFFCURVE",
"521 499 CURVE",
"521 519 LINE"
);
}
);
width = 547;
}
);
unicode = 0078;
},
{
glyphname = y;
lastChange = "2012-10-19 09:24:17 +0100";
layers = (
{
anchors = (
{
name = top;
position = "{254, 514}";
}
);
layerId = UUID0;
name = Regular;
paths = (
{
closed = 1;
nodes = (
"473 513 OFFCURVE",
"449 512 OFFCURVE",
"418 512 CURVE SMOOTH",
"387 512 OFFCURVE",
"369 513 OFFCURVE",
"334 515 CURVE",
"334 495 LINE",
"405 490 OFFCURVE",
"423 467 OFFCURVE",
"398 401 CURVE SMOOTH",
"284 103 LINE",
"290 105 LINE",
"167 410 LINE SMOOTH",
"133 494 OFFCURVE",
"174 494 OFFCURVE",
"224 494 CURVE",
"224 515 LINE",
"184 512 OFFCURVE",
"135 509 OFFCURVE",
"94 509 CURVE SMOOTH",
"56 509 OFFCURVE",
"25 511 OFFCURVE",
"-4 515 CURVE",
"-4 494 LINE",
"12 494 OFFCURVE",
"38 490 OFFCURVE",
"64 438 CURVE SMOOTH",
"248 -5 LINE",
"265 -5 LINE",
"429 425 LINE SMOOTH",
"448 476 OFFCURVE",
"469 492 OFFCURVE",
"494 495 CURVE",
"494 515 LINE"
);
},
{
closed = 1;
nodes = (
"246 3 LINE",
"210 -90 LINE SMOOTH",
"189 -145 OFFCURVE",
"161 -168 OFFCURVE",
"125 -168 CURVE SMOOTH",
"123 -168 OFFCURVE",
"121 -168 OFFCURVE",
"119 -167 CURVE",
"133 -159 OFFCURVE",
"146 -145 OFFCURVE",
"146 -122 CURVE SMOOTH",
"146 -91 OFFCURVE",
"123 -75 OFFCURVE",
"95 -75 CURVE SMOOTH",
"62 -75 OFFCURVE",
"42 -96 OFFCURVE",
"42 -128 CURVE SMOOTH",
"42 -167 OFFCURVE",
"72 -188 OFFCURVE",
"110 -188 CURVE SMOOTH",
"134 -188 OFFCURVE",
"166 -182 OFFCURVE",
"188 -162 CURVE SMOOTH",
"204 -148 OFFCURVE",
"218 -126 OFFCURVE",
"231 -92 CURVE SMOOTH",
"265 -5 LINE"
);
}
);
width = 504;
},
{
anchors = (
{
name = top;
position = "{260, 514}";
}
);
layerId = "39933D6F-F4A7-4C4E-8677-28C34DBED807";
name = Bold;
paths = (
{
closed = 1;
nodes = (
"510 516 OFFCURVE",
"472 515 OFFCURVE",
"448 515 CURVE SMOOTH",
"424 515 OFFCURVE",
"371 516 OFFCURVE",
"343 519 CURVE",
"343 498 LINE",
"402 494 OFFCURVE",
"442 430 OFFCURVE",
"397 295 CURVE SMOOTH",
"349 148 LINE",
"360 156 LINE",
"232 460 LINE SMOOTH",
"216 497 OFFCURVE",
"252 498 OFFCURVE",
"288 498 CURVE",
"288 519 LINE",
"248 516 OFFCURVE",
"205 513 OFFCURVE",
"143 513 CURVE SMOOTH",
"93 513 OFFCURVE",
"33 515 OFFCURVE",
"-20 519 CURVE",
"-20 498 LINE",
"-6 498 OFFCURVE",
"15 493 OFFCURVE",
"38 442 CURVE SMOOTH",
"278 -88 LINE",
"329 29 LINE",
"454 401 LINE SMOOTH",
"476 466 OFFCURVE",
"500 489 OFFCURVE",
"525 498 CURVE",
"525 519 LINE"
);
},
{
closed = 1;
nodes = (
"301 19 LINE",
"266 -90 LINE SMOOTH",
"248 -145 OFFCURVE",
"214 -170 OFFCURVE",
"171 -170 CURVE SMOOTH",
"163 -170 OFFCURVE",
"147 -170 OFFCURVE",
"137 -168 CURVE",
"182 -154 OFFCURVE",
"202 -120 OFFCURVE",
"202 -91 CURVE SMOOTH",
"202 -42 OFFCURVE",
"167 -17 OFFCURVE",
"112 -17 CURVE SMOOTH",
"53 -17 OFFCURVE",
"14 -47 OFFCURVE",
"14 -94 CURVE SMOOTH",
"14 -164 OFFCURVE",
"95 -188 OFFCURVE",
"150 -188 CURVE SMOOTH",
"199 -188 OFFCURVE",
"225 -178 OFFCURVE",
"243 -164 CURVE SMOOTH",
"262 -149 OFFCURVE",
"275 -126 OFFCURVE",
"287 -92 CURVE SMOOTH",
"329 29 LINE"
);
}
);
width = 529;
}
);
leftKerningGroup = y;
rightKerningGroup = v;
unicode = 0079;
},
